<svg height="275.22pt" version="1.1" viewBox="0 0 286.56 275.22" width="286.56pt" xmlns="http://www.w3.org/2000/svg" xmlns:xlink="http://www.w3.org/1999/xlink" role="img" aria-label="Graph of a line in the x y plane with the origin labeled O. The x axis ranges from negative 1 to 4 in increments of 1, with values marked every 2 gridlines. The y axis ranges from negative 9 to 1 in increments of 1, with values marked every 2 gridlines. Refer to long description.">
 <defs>
  <style type="text/css">
*{stroke-linecap:butt;stroke-linejoin:round;}
  </style>
 </defs>
 <g id="figure_1">
  <g id="patch_1">
   <path d="M 0 275.22 
L 286.56 275.22 
L 286.56 0 
L 0 0 
z
" style="fill:none;"></path>
  </g>
  <g id="axes_1">
   <g id="patch_2">
    <path d="M 7.2 260.46 
L 279.36 260.46 
L 279.36 10.98 
L 7.2 10.98 
z
" style="fill:none;"></path>
   </g>
   <g id="matplotlib.axis_1"></g>
   <g id="matplotlib.axis_2"></g>
  </g>
  <g id="axes_2">
   <g id="patch_3">
    <path d="M 12.6432 268.02 
L 268.2468 268.02 
L 268.2468 7.2 
L 12.6432 7.2 
z
" style="fill:none;"></path>
   </g>
   <g id="matplotlib.axis_3">
    <g id="xtick_1"></g>
    <g id="xtick_2"></g>
    <g id="xtick_3"></g>
    <g id="xtick_4"></g>
    <g id="xtick_5"></g>
    <g id="xtick_6"></g>
    <g id="xtick_7"></g>
    <g id="xtick_8"></g>
    <g id="xtick_9"></g>
    <g id="xtick_10"></g>
    <g id="xtick_11"></g>
    <g id="xtick_12"></g>
   </g>
   <g id="matplotlib.axis_4">
    <g id="ytick_1"></g>
    <g id="ytick_2"></g>
    <g id="ytick_3"></g>
    <g id="ytick_4"></g>
    <g id="ytick_5"></g>
    <g id="ytick_6"></g>
    <g id="ytick_7"></g>
    <g id="ytick_8"></g>
    <g id="ytick_9"></g>
    <g id="ytick_10"></g>
   </g>
   <g id="LineCollection_1">
    <path clip-path="url(#pff0cca8617)" d="M 29.530636 256.164545 
L 29.530636 34.862727 
" style="fill:none;stroke:#000000;stroke-width:0.708982;"></path>
    <path clip-path="url(#pff0cca8617)" d="M 113.836091 256.164545 
L 113.836091 34.862727 
" style="fill:none;stroke:#000000;stroke-width:0.708982;"></path>
    <path clip-path="url(#pff0cca8617)" d="M 155.988818 256.164545 
L 155.988818 34.862727 
" style="fill:none;stroke:#000000;stroke-width:0.708982;"></path>
    <path clip-path="url(#pff0cca8617)" d="M 198.141545 256.164545 
L 198.141545 34.862727 
" style="fill:none;stroke:#000000;stroke-width:0.708982;"></path>
    <path clip-path="url(#pff0cca8617)" d="M 240.294273 256.164545 
L 240.294273 34.862727 
" style="fill:none;stroke:#000000;stroke-width:0.708982;"></path>
    <path clip-path="url(#pff0cca8617)" d="M 24.261545 250.895455 
L 245.563364 250.895455 
" style="fill:none;stroke:#000000;stroke-width:0.708982;"></path>
    <path clip-path="url(#pff0cca8617)" d="M 24.261545 229.819091 
L 245.563364 229.819091 
" style="fill:none;stroke:#000000;stroke-width:0.708982;"></path>
    <path clip-path="url(#pff0cca8617)" d="M 24.261545 208.742727 
L 245.563364 208.742727 
" style="fill:none;stroke:#000000;stroke-width:0.708982;"></path>
    <path clip-path="url(#pff0cca8617)" d="M 24.261545 187.666364 
L 245.563364 187.666364 
" style="fill:none;stroke:#000000;stroke-width:0.708982;"></path>
    <path clip-path="url(#pff0cca8617)" d="M 24.261545 166.59 
L 245.563364 166.59 
" style="fill:none;stroke:#000000;stroke-width:0.708982;"></path>
    <path clip-path="url(#pff0cca8617)" d="M 24.261545 145.513636 
L 245.563364 145.513636 
" style="fill:none;stroke:#000000;stroke-width:0.708982;"></path>
    <path clip-path="url(#pff0cca8617)" d="M 24.261545 124.437273 
L 245.563364 124.437273 
" style="fill:none;stroke:#000000;stroke-width:0.708982;"></path>
    <path clip-path="url(#pff0cca8617)" d="M 24.261545 103.360909 
L 245.563364 103.360909 
" style="fill:none;stroke:#000000;stroke-width:0.708982;"></path>
    <path clip-path="url(#pff0cca8617)" d="M 24.261545 82.284545 
L 245.563364 82.284545 
" style="fill:none;stroke:#000000;stroke-width:0.708982;"></path>
    <path clip-path="url(#pff0cca8617)" d="M 24.261545 40.131818 
L 245.563364 40.131818 
" style="fill:none;stroke:#000000;stroke-width:0.708982;"></path>
   </g>
   <g id="LineCollection_2">
    <path clip-path="url(#pff0cca8617)" d="M 24.261545 61.208182 
L 250.832455 61.208182 
" style="fill:none;stroke:#000000;stroke-width:1.949699;"></path>
   </g>
   <g id="PathCollection_1">
    <defs>
     <path d="M 248.13205 -213.027368 
L 250.832455 -214.011818 
L 248.13205 -214.996269 
L 248.13205 -213.027368 
L 250.832455 -214.011818 
" id="m6b43b0c739" style="stroke:#000000;stroke-linejoin:miter;stroke-width:1.949699;"></path>
    </defs>
    <g clip-path="url(#pff0cca8617)">
     <use style="stroke:#000000;stroke-linejoin:miter;stroke-width:1.949699;" x="0" xlink:href="#m6b43b0c739" y="275.22"></use>
    </g>
   </g>
   <g id="LineCollection_3">
    <path clip-path="url(#pff0cca8617)" d="M 71.683364 256.164545 
L 71.683364 29.593636 
" style="fill:none;stroke:#000000;stroke-width:1.949699;"></path>
   </g>
   <g id="PathCollection_2">
    <defs>
     <path d="M 72.639537 -242.052125 
L 71.683364 -245.626364 
L 70.72719 -242.052125 
L 72.639537 -242.052125 
L 71.683364 -245.626364 
" id="mb0039e3467" style="stroke:#000000;stroke-linejoin:miter;stroke-width:1.949699;"></path>
    </defs>
    <g clip-path="url(#pff0cca8617)">
     <use style="stroke:#000000;stroke-linejoin:miter;stroke-width:1.949699;" x="0" xlink:href="#mb0039e3467" y="275.22"></use>
    </g>
   </g>
   <g id="LineCollection_4">
    <path clip-path="url(#pff0cca8617)" d="M 29.530636 65.09067 
L 29.530636 57.325694 
" style="fill:none;stroke:#000000;stroke-width:0.886227;"></path>
    <path clip-path="url(#pff0cca8617)" d="M 113.836091 65.09067 
L 113.836091 57.325694 
" style="fill:none;stroke:#000000;stroke-width:0.886227;"></path>
    <path clip-path="url(#pff0cca8617)" d="M 155.988818 65.09067 
L 155.988818 57.325694 
" style="fill:none;stroke:#000000;stroke-width:0.886227;"></path>
    <path clip-path="url(#pff0cca8617)" d="M 198.141545 65.09067 
L 198.141545 57.325694 
" style="fill:none;stroke:#000000;stroke-width:0.886227;"></path>
    <path clip-path="url(#pff0cca8617)" d="M 240.294273 65.09067 
L 240.294273 57.325694 
" style="fill:none;stroke:#000000;stroke-width:0.886227;"></path>
   </g>
   <g id="LineCollection_5">
    <path clip-path="url(#pff0cca8617)" d="M 67.800876 250.895455 
L 75.565852 250.895455 
" style="fill:none;stroke:#000000;stroke-width:0.886227;"></path>
    <path clip-path="url(#pff0cca8617)" d="M 67.800876 229.819091 
L 75.565852 229.819091 
" style="fill:none;stroke:#000000;stroke-width:0.886227;"></path>
    <path clip-path="url(#pff0cca8617)" d="M 67.800876 208.742727 
L 75.565852 208.742727 
" style="fill:none;stroke:#000000;stroke-width:0.886227;"></path>
    <path clip-path="url(#pff0cca8617)" d="M 67.800876 187.666364 
L 75.565852 187.666364 
" style="fill:none;stroke:#000000;stroke-width:0.886227;"></path>
    <path clip-path="url(#pff0cca8617)" d="M 67.800876 166.59 
L 75.565852 166.59 
" style="fill:none;stroke:#000000;stroke-width:0.886227;"></path>
    <path clip-path="url(#pff0cca8617)" d="M 67.800876 145.513636 
L 75.565852 145.513636 
" style="fill:none;stroke:#000000;stroke-width:0.886227;"></path>
    <path clip-path="url(#pff0cca8617)" d="M 67.800876 124.437273 
L 75.565852 124.437273 
" style="fill:none;stroke:#000000;stroke-width:0.886227;"></path>
    <path clip-path="url(#pff0cca8617)" d="M 67.800876 103.360909 
L 75.565852 103.360909 
" style="fill:none;stroke:#000000;stroke-width:0.886227;"></path>
    <path clip-path="url(#pff0cca8617)" d="M 67.800876 82.284545 
L 75.565852 82.284545 
" style="fill:none;stroke:#000000;stroke-width:0.886227;"></path>
    <path clip-path="url(#pff0cca8617)" d="M 67.800876 40.131818 
L 75.565852 40.131818 
" style="fill:none;stroke:#000000;stroke-width:0.886227;"></path>
   </g>
   <g id="PolyCollection_1">
    <path clip-path="url(#pff0cca8617)" d="M 56.666455 236.142 
L 56.666455 224.55 
L 64.570091 224.55 
L 64.570091 236.142 
z
" style="fill:#ffffff;"></path>
   </g>
   <g id="PolyCollection_2">
    <path clip-path="url(#pff0cca8617)" d="M 48.499364 229.028727 
L 48.499364 233.507455 
L 59.037545 233.507455 
L 59.037545 229.028727 
z
" style="fill:#ffffff;"></path>
   </g>
   <g id="text_1">
    <g clip-path="url(#pff0cca8617)">
     <!-- – -->
     <defs>
      <path d="M 2.734375 20.40625 
Q 2.734375 21.390625 3.078125 23.484375 
Q 3.421875 25.59375 4.109375 25.59375 
L 45.609375 25.59375 
Q 46.1875 25.59375 46.1875 24.703125 
Q 46.1875 23.734375 45.3125 20.21875 
Q 45.21875 19.921875 45.0625 19.765625 
Q 44.921875 19.625 44.734375 19.53125 
L 44.625 19.53125 
L 3.328125 19.53125 
Q 3.328125 19.53125 2.9375 19.734375 
Q 2.734375 20.015625 2.734375 20.40625 
z
" id="CrimsonText-Regular-8211"></path>
     </defs>
     <g transform="translate(49.356298 234.564098)scale(0.15 -0.15)">
      <use xlink:href="#CrimsonText-Regular-8211"></use>
     </g>
    </g>
   </g>
   <g id="text_2">
    <g clip-path="url(#pff0cca8617)">
     <!-- 8 -->
     <defs>
      <path d="M 23.53125 2.640625 
Q 28.421875 2.640625 31.25 5.5625 
Q 34.078125 8.5 34.078125 13.484375 
Q 34.078125 16.3125 32.421875 19.09375 
Q 30.765625 21.875 28.21875 24.015625 
Q 25.6875 26.171875 24.265625 27.140625 
Q 22.859375 28.125 21.578125 28.8125 
Q 21.1875 29 21 29 
Q 20.703125 29 20.609375 28.90625 
Q 16.5 26.375 14.6875 23.1875 
Q 12.890625 20.015625 12.890625 15.328125 
Q 12.890625 9.671875 16.109375 6.15625 
Q 19.34375 2.640625 23.53125 2.640625 
z
M 23.53125 59.375 
Q 19.921875 59.375 17.53125 56.25 
Q 15.140625 53.125 15.140625 48.046875 
Q 15.140625 41.40625 25.296875 35.546875 
Q 25.6875 35.359375 25.875 35.359375 
Q 26.171875 35.359375 26.46875 35.546875 
Q 33.109375 39.9375 33.109375 47.46875 
Q 33.109375 52.046875 30.421875 55.703125 
Q 27.734375 59.375 23.53125 59.375 
z
M 24.125 62.796875 
Q 30.859375 62.796875 35.5 58.734375 
Q 40.140625 54.6875 40.140625 47.953125 
Q 40.140625 40.53125 29.203125 33.59375 
Q 28.515625 33.40625 29.203125 33.015625 
Q 34.28125 30.078125 38.140625 25.625 
Q 42 21.1875 42 16.3125 
Q 42 9.078125 36.375 4.09375 
Q 30.765625 -0.875 23.34375 -0.875 
Q 15.234375 -0.875 10.203125 3.515625 
Q 5.171875 7.90625 5.171875 15.046875 
Q 5.171875 16.3125 5.46875 17.53125 
Q 5.765625 18.75 6.109375 19.71875 
Q 6.453125 20.703125 7.234375 21.828125 
Q 8.015625 22.953125 8.546875 23.6875 
Q 9.078125 24.421875 10.15625 25.390625 
Q 11.234375 26.375 11.71875 26.8125 
Q 12.203125 27.25 13.46875 28.125 
Q 14.75 29 15.09375 29.25 
Q 15.4375 29.5 16.609375 30.28125 
L 17.875 31.0625 
Q 18.359375 31.34375 17.875 31.640625 
Q 14.0625 33.890625 10.984375 37.9375 
Q 7.90625 42 7.90625 46.875 
Q 7.90625 53.125 12.78125 57.953125 
Q 17.671875 62.796875 24.125 62.796875 
z
" id="CrimsonText-Regular-56"></path>
     </defs>
     <g transform="translate(57.216793 234.564098)scale(0.15 -0.15)">
      <use xlink:href="#CrimsonText-Regular-56"></use>
     </g>
    </g>
   </g>
   <g id="text_3">
    <g clip-path="url(#pff0cca8617)">
     <!-- 8 -->
     <g transform="translate(57.216793 234.564098)scale(0.15 -0.15)">
      <use xlink:href="#CrimsonText-Regular-56"></use>
     </g>
    </g>
   </g>
   <g id="PolyCollection_3">
    <path clip-path="url(#pff0cca8617)" d="M 56.666455 193.989273 
L 56.666455 182.397273 
L 64.570091 182.397273 
L 64.570091 193.989273 
z
" style="fill:#ffffff;"></path>
   </g>
   <g id="PolyCollection_4">
    <path clip-path="url(#pff0cca8617)" d="M 48.499364 186.876 
L 48.499364 191.354727 
L 59.037545 191.354727 
L 59.037545 186.876 
z
" style="fill:#ffffff;"></path>
   </g>
   <g id="text_4">
    <g clip-path="url(#pff0cca8617)">
     <!-- – -->
     <g transform="translate(49.356298 192.411371)scale(0.15 -0.15)">
      <use xlink:href="#CrimsonText-Regular-8211"></use>
     </g>
    </g>
   </g>
   <g id="text_5">
    <g clip-path="url(#pff0cca8617)">
     <!-- 6 -->
     <defs>
      <path d="M 12.703125 20.515625 
Q 12.703125 13.671875 15.96875 8.4375 
Q 19.234375 3.21875 24.125 3.21875 
Q 28.421875 3.21875 31.640625 6.984375 
Q 34.859375 10.75 34.859375 17 
Q 34.859375 23.640625 31.6875 27.9375 
Q 28.515625 32.234375 22.359375 32.234375 
Q 19.734375 32.234375 17.28125 30.8125 
Q 14.84375 29.390625 14.15625 27.828125 
Q 12.796875 24.703125 12.703125 20.515625 
z
M 22.953125 -0.59375 
Q 14.84375 -0.59375 9.5625 5.703125 
Q 4.296875 12.015625 4.296875 20.3125 
Q 4.296875 27.9375 7.328125 34.96875 
Q 10.359375 42 15.484375 47.3125 
Q 20.609375 52.640625 26.515625 56.59375 
Q 32.421875 60.546875 39.0625 63.1875 
Q 39.65625 63.1875 40.484375 62.109375 
Q 41.3125 61.03125 41.3125 60.546875 
Q 31.453125 56.25 24.5625 50.140625 
Q 17.671875 44.046875 15.046875 34.375 
Q 14.84375 33.40625 15.140625 33.40625 
Q 15.328125 33.5 15.4375 33.59375 
Q 16.796875 34.671875 20.359375 35.9375 
Q 23.921875 37.203125 26.859375 37.203125 
Q 33.6875 37.203125 38.328125 31.484375 
Q 42.96875 25.78125 42.96875 19.046875 
Q 42.96875 10.9375 36.90625 5.171875 
Q 30.859375 -0.59375 22.953125 -0.59375 
z
" id="CrimsonText-Regular-54"></path>
     </defs>
     <g transform="translate(57.216793 192.411371)scale(0.15 -0.15)">
      <use xlink:href="#CrimsonText-Regular-54"></use>
     </g>
    </g>
   </g>
   <g id="text_6">
    <g clip-path="url(#pff0cca8617)">
     <!-- 6 -->
     <g transform="translate(57.216793 192.411371)scale(0.15 -0.15)">
      <use xlink:href="#CrimsonText-Regular-54"></use>
     </g>
    </g>
   </g>
   <g id="PolyCollection_5">
    <path clip-path="url(#pff0cca8617)" d="M 56.666455 151.836545 
L 56.666455 140.244545 
L 64.570091 140.244545 
L 64.570091 151.836545 
z
" style="fill:#ffffff;"></path>
   </g>
   <g id="PolyCollection_6">
    <path clip-path="url(#pff0cca8617)" d="M 48.499364 144.723273 
L 48.499364 149.202 
L 59.037545 149.202 
L 59.037545 144.723273 
z
" style="fill:#ffffff;"></path>
   </g>
   <g id="text_7">
    <g clip-path="url(#pff0cca8617)">
     <!-- – -->
     <g transform="translate(49.356298 150.258643)scale(0.15 -0.15)">
      <use xlink:href="#CrimsonText-Regular-8211"></use>
     </g>
    </g>
   </g>
   <g id="text_8">
    <g clip-path="url(#pff0cca8617)">
     <!-- 4 -->
     <defs>
      <path d="M 35.0625 62.984375 
Q 36.328125 62.984375 36.328125 62.015625 
L 36.328125 22.65625 
L 42.390625 22.65625 
Q 43.953125 22.65625 43.953125 17.96875 
Q 43.953125 17.390625 43.359375 17 
Q 43.359375 17 36.328125 17 
L 36.328125 -0.09375 
Q 36.03125 -0.59375 32.234375 -0.59375 
Q 28.609375 -0.59375 28.609375 0.203125 
L 28.609375 17 
L 3.90625 17 
Q 3.21875 17.875 3.21875 20.015625 
L 32.8125 61.8125 
Q 33.6875 62.984375 35.0625 62.984375 
z
M 28.609375 22.65625 
L 28.609375 48.640625 
Q 28.609375 49.515625 28.125 49.515625 
Q 28.125 49.421875 28.03125 49.3125 
L 10.25 23.828125 
Q 10.15625 23.734375 10.15625 23.53125 
Q 10.15625 22.65625 10.84375 22.65625 
z
" id="CrimsonText-Regular-52"></path>
     </defs>
     <g transform="translate(57.244918 150.258643)scale(0.15 -0.15)">
      <use xlink:href="#CrimsonText-Regular-52"></use>
     </g>
    </g>
   </g>
   <g id="text_9">
    <g clip-path="url(#pff0cca8617)">
     <!-- 4 -->
     <g transform="translate(57.244918 150.258643)scale(0.15 -0.15)">
      <use xlink:href="#CrimsonText-Regular-52"></use>
     </g>
    </g>
   </g>
   <g id="PolyCollection_7">
    <path clip-path="url(#pff0cca8617)" d="M 56.666455 109.683818 
L 56.666455 98.091818 
L 64.570091 98.091818 
L 64.570091 109.683818 
z
" style="fill:#ffffff;"></path>
   </g>
   <g id="PolyCollection_8">
    <path clip-path="url(#pff0cca8617)" d="M 48.499364 102.570545 
L 48.499364 107.049273 
L 59.037545 107.049273 
L 59.037545 102.570545 
z
" style="fill:#ffffff;"></path>
   </g>
   <g id="text_10">
    <g clip-path="url(#pff0cca8617)">
     <!-- – -->
     <g transform="translate(49.356298 108.105916)scale(0.15 -0.15)">
      <use xlink:href="#CrimsonText-Regular-8211"></use>
     </g>
    </g>
   </g>
   <g id="text_11">
    <g clip-path="url(#pff0cca8617)">
     <!-- 2 -->
     <defs>
      <path d="M 25 62.703125 
Q 31.546875 62.703125 35.296875 57.8125 
Q 39.0625 52.9375 39.0625 46.78125 
Q 39.0625 43.171875 37.84375 39.3125 
Q 36.625 35.453125 34.03125 31.4375 
Q 31.453125 27.4375 29.34375 24.453125 
Q 27.25 21.484375 23.53125 17.578125 
Q 19.828125 13.671875 18.40625 12.203125 
Q 17 10.75 13.875 7.71875 
Q 13.578125 7.234375 14.0625 7.03125 
L 32.90625 7.03125 
Q 35.640625 7.03125 36.859375 8.59375 
Q 38.09375 10.15625 39.359375 14.546875 
Q 39.75 15.625 40.71875 15.625 
Q 42 15.625 42.484375 15.234375 
Q 40.140625 3.515625 39.84375 1.5625 
Q 39.65625 0 37.890625 0 
L 5.859375 0 
Q 5.46875 0 5.125 1.125 
Q 4.78125 2.25 4.78125 2.9375 
Q 15.4375 13.671875 23.046875 25.234375 
Q 30.671875 36.8125 30.671875 44.828125 
Q 30.671875 50.09375 28.03125 52.96875 
Q 25.390625 55.859375 21.09375 55.859375 
Q 12.984375 55.859375 8.109375 47.75 
Q 7.515625 47.75 6.875 48.390625 
Q 6.25 49.03125 6.25 49.3125 
Q 6.546875 50.484375 7.859375 52.484375 
Q 9.1875 54.5 11.375 56.890625 
Q 13.578125 59.28125 17.234375 60.984375 
Q 20.90625 62.703125 25 62.703125 
z
" id="CrimsonText-Regular-50"></path>
     </defs>
     <g transform="translate(57.216793 108.105916)scale(0.15 -0.15)">
      <use xlink:href="#CrimsonText-Regular-50"></use>
     </g>
    </g>
   </g>
   <g id="text_12">
    <g clip-path="url(#pff0cca8617)">
     <!-- 2 -->
     <g transform="translate(57.216793 108.105916)scale(0.15 -0.15)">
      <use xlink:href="#CrimsonText-Regular-50"></use>
     </g>
    </g>
   </g>
   <g id="PolyCollection_9">
    <path clip-path="url(#pff0cca8617)" d="M 151.246636 76.488545 
L 151.246636 64.896545 
L 159.150273 64.896545 
L 159.150273 76.488545 
z
" style="fill:#ffffff;"></path>
   </g>
   <g id="text_13">
    <g clip-path="url(#pff0cca8617)">
     <!-- 2 -->
     <g transform="translate(151.53352 75.174098)scale(0.15 -0.15)">
      <use xlink:href="#CrimsonText-Regular-50"></use>
     </g>
    </g>
   </g>
   <g id="text_14">
    <g clip-path="url(#pff0cca8617)">
     <!-- 2 -->
     <g transform="translate(151.53352 75.174098)scale(0.15 -0.15)">
      <use xlink:href="#CrimsonText-Regular-50"></use>
     </g>
    </g>
   </g>
   <g id="PolyCollection_10">
    <path clip-path="url(#pff0cca8617)" d="M 235.552091 76.488545 
L 235.552091 64.896545 
L 243.455727 64.896545 
L 243.455727 76.488545 
z
" style="fill:#ffffff;"></path>
   </g>
   <g id="text_15">
    <g clip-path="url(#pff0cca8617)">
     <!-- 4 -->
     <g transform="translate(235.867099 75.174098)scale(0.15 -0.15)">
      <use xlink:href="#CrimsonText-Regular-52"></use>
     </g>
    </g>
   </g>
   <g id="text_16">
    <g clip-path="url(#pff0cca8617)">
     <!-- 4 -->
     <g transform="translate(235.867099 75.174098)scale(0.15 -0.15)">
      <use xlink:href="#CrimsonText-Regular-52"></use>
     </g>
    </g>
   </g>
   <g id="text_17">
    <g clip-path="url(#pff0cca8617)">
     <!-- O -->
     <defs>
      <path d="M 39.9375 61.03125 
Q 29.390625 61.03125 22.0625 50.140625 
Q 14.75 39.265625 14.75 26.078125 
Q 14.75 16.109375 19.09375 9.65625 
Q 23.4375 3.21875 31.453125 3.21875 
Q 41.609375 3.21875 49.03125 14.296875 
Q 56.453125 25.390625 56.453125 38.578125 
Q 56.453125 48.34375 52.15625 54.6875 
Q 47.859375 61.03125 39.9375 61.03125 
z
M 42.1875 65.140625 
Q 52.046875 65.140625 58.734375 57.765625 
Q 65.4375 50.390625 65.4375 39.9375 
Q 65.4375 29.390625 60.40625 19.921875 
Q 55.375 10.453125 46.875 4.734375 
Q 38.375 -0.984375 28.90625 -0.984375 
Q 18.453125 -0.984375 12.15625 6.484375 
Q 5.859375 13.96875 5.859375 25.296875 
Q 5.859375 35.453125 11.234375 44.78125 
Q 16.609375 54.109375 25 59.625 
Q 33.40625 65.140625 42.1875 65.140625 
z
" id="CrimsonText-Italic-79"></path>
     </defs>
     <g transform="translate(59.999778 71.616767)scale(0.15 -0.15)">
      <use xlink:href="#CrimsonText-Italic-79"></use>
     </g>
    </g>
   </g>
   <g id="text_18">
    <g clip-path="url(#pff0cca8617)">
     <!-- y -->
     <defs>
      <path d="M 21.09375 42.484375 
Q 24.03125 42.484375 25.921875 37.5 
Q 27.828125 32.515625 28.515625 24.453125 
Q 29.203125 16.40625 29.390625 11.859375 
Q 29.59375 7.328125 29.59375 2.734375 
Q 33.40625 7.421875 37.203125 14.6875 
Q 41.015625 21.96875 41.015625 27.828125 
Q 41.015625 33.59375 38.578125 38.28125 
Q 39.84375 42.484375 43.453125 42.484375 
Q 47.75 42.484375 47.75 34.765625 
Q 47.75 24.03125 39.34375 10.109375 
Q 30.953125 -3.8125 20.359375 -13.28125 
Q 9.765625 -22.75 3.21875 -22.75 
Q 0.6875 -22.75 -0.96875 -21.578125 
Q -2.640625 -20.40625 -2.640625 -18.75 
Q -2.640625 -15.625 -0.390625 -14.453125 
Q 1.765625 -15.71875 6.15625 -15.71875 
Q 14.265625 -15.71875 20.21875 -7.03125 
Q 22.46875 -3.71875 22.46875 6.0625 
Q 22.46875 10.84375 22.21875 15.578125 
Q 21.96875 20.3125 21.328125 25.296875 
Q 20.703125 30.28125 19.484375 33.34375 
Q 18.265625 36.421875 16.609375 36.421875 
Q 15.71875 36.421875 13.953125 34.765625 
Q 12.203125 33.109375 11.234375 31.84375 
Q 11.03125 31.84375 10.5 32.765625 
Q 9.96875 33.6875 9.96875 34.078125 
Q 10.546875 35.546875 14.59375 39.015625 
Q 18.65625 42.484375 21.09375 42.484375 
z
" id="CrimsonText-Italic-121"></path>
     </defs>
     <g transform="translate(68.17477 22.350767)scale(0.15 -0.15)">
      <use xlink:href="#CrimsonText-Italic-121"></use>
     </g>
    </g>
   </g>
   <g id="text_19">
    <g clip-path="url(#pff0cca8617)">
     <!-- x -->
     <defs>
      <path d="M 20.3125 42.484375 
Q 24.421875 42.484375 26.953125 33.984375 
L 29 27.046875 
L 34.765625 36.921875 
Q 37.984375 42.484375 42.96875 42.484375 
Q 46.296875 42.484375 48.640625 40.53125 
Q 49.421875 38.96875 49.421875 37.984375 
Q 49.421875 36.53125 48.390625 35.5 
Q 47.359375 34.46875 46.296875 34.46875 
Q 45.015625 34.46875 43.40625 35.984375 
Q 41.796875 37.5 40.4375 37.5 
Q 39.265625 37.5 37.796875 34.96875 
L 30.46875 22.46875 
L 34.671875 8.6875 
Q 35.640625 5.375 37.3125 5.375 
Q 38.765625 5.375 40.421875 6.890625 
Q 42.09375 8.40625 42.78125 9.671875 
Q 43.171875 9.671875 43.75 8.890625 
Q 44.34375 8.109375 44.34375 7.71875 
Q 44.046875 6.0625 40.71875 2.78125 
Q 37.40625 -0.484375 34.375 -0.484375 
Q 30.28125 -0.484375 27.734375 8.015625 
L 25.484375 15.625 
L 19.34375 4.984375 
Q 16.109375 -0.59375 11.140625 -0.59375 
Q 7.8125 -0.59375 5.46875 1.375 
Q 4.6875 2.734375 4.6875 3.90625 
Q 4.6875 5.375 5.703125 6.390625 
Q 6.734375 7.421875 7.8125 7.421875 
Q 9.078125 7.421875 10.6875 5.90625 
Q 12.3125 4.390625 13.671875 4.390625 
Q 14.84375 4.390625 16.3125 6.9375 
L 24.03125 20.21875 
L 20.015625 33.296875 
Q 19.046875 36.625 17.390625 36.625 
Q 15.921875 36.625 14.25 35.109375 
Q 12.59375 33.59375 11.921875 32.328125 
Q 11.53125 32.328125 10.9375 33.109375 
Q 10.359375 33.890625 10.359375 34.28125 
Q 10.640625 35.9375 13.953125 39.203125 
Q 17.28125 42.484375 20.3125 42.484375 
z
" id="CrimsonText-Italic-120"></path>
     </defs>
     <g transform="translate(253.142126 64.503494)scale(0.15 -0.15)">
      <use xlink:href="#CrimsonText-Italic-120"></use>
     </g>
    </g>
   </g>
   <g id="line2d_1">
    <path clip-path="url(#pff0cca8617)" d="M 29.530636 229.819091 
L 126.6762 35.527963 
L 126.6762 35.527963 
" style="fill:none;stroke:#000000;stroke-linecap:square;stroke-width:2.3;"></path>
   </g>
  </g>
 </g>
 <defs>
  <clipPath id="pff0cca8617">
   <rect height="260.82" width="255.6036" x="12.6432" y="7.2"></rect>
  </clipPath>
 </defs>
</svg>