<svg height="275.22pt" version="1.1" viewBox="0 0 286.56 275.22" width="286.56pt" xmlns="http://www.w3.org/2000/svg" xmlns:xlink="http://www.w3.org/1999/xlink" role="img" aria-label="A scatterplot in the x y plane with the origin labeled O. The x axis ranges from 0 to 5 in increments of 1. The y axis ranges from 0 to 5 in increments of 1. Refer to long description.">
 <defs>
  <style type="text/css">
*{stroke-linecap:butt;stroke-linejoin:round;}
  </style>
 </defs>
 <g id="figure_1">
  <g id="patch_1">
   <path d="M 0 275.22 
L 286.56 275.22 
L 286.56 0 
L 0 0 
z
" style="fill:none;"></path>
  </g>
  <g id="axes_1">
   <g id="patch_2">
    <path d="M 7.2 260.46 
L 279.36 260.46 
L 279.36 10.98 
L 7.2 10.98 
z
" style="fill:none;"></path>
   </g>
   <g id="matplotlib.axis_1"></g>
   <g id="matplotlib.axis_2"></g>
  </g>
  <g id="axes_2">
   <g id="patch_3">
    <path d="M 12.676567 268.02 
L 268.213433 268.02 
L 268.213433 7.2 
L 12.676567 7.2 
z
" style="fill:none;"></path>
   </g>
   <g id="matplotlib.axis_3">
    <g id="xtick_1"></g>
    <g id="xtick_2"></g>
    <g id="xtick_3"></g>
    <g id="xtick_4"></g>
    <g id="xtick_5"></g>
    <g id="xtick_6"></g>
   </g>
   <g id="matplotlib.axis_4">
    <g id="ytick_1"></g>
    <g id="ytick_2"></g>
    <g id="ytick_3"></g>
    <g id="ytick_4"></g>
    <g id="ytick_5"></g>
    <g id="ytick_6"></g>
   </g>
   <g id="LineCollection_1">
    <path clip-path="url(#p071db4904a)" d="M 79.145475 246.558847 
L 79.145475 34.222347 
" style="fill:none;stroke:#000000;stroke-width:0.708982;"></path>
    <path clip-path="url(#p071db4904a)" d="M 119.590522 246.558847 
L 119.590522 34.222347 
" style="fill:none;stroke:#000000;stroke-width:0.708982;"></path>
    <path clip-path="url(#p071db4904a)" d="M 160.03557 246.558847 
L 160.03557 34.222347 
" style="fill:none;stroke:#000000;stroke-width:0.708982;"></path>
    <path clip-path="url(#p071db4904a)" d="M 200.480617 246.558847 
L 200.480617 34.222347 
" style="fill:none;stroke:#000000;stroke-width:0.708982;"></path>
    <path clip-path="url(#p071db4904a)" d="M 240.925665 246.558847 
L 240.925665 34.222347 
" style="fill:none;stroke:#000000;stroke-width:0.708982;"></path>
    <path clip-path="url(#p071db4904a)" d="M 33.644796 201.058168 
L 245.981296 201.058168 
" style="fill:none;stroke:#000000;stroke-width:0.708982;"></path>
    <path clip-path="url(#p071db4904a)" d="M 33.644796 160.613121 
L 245.981296 160.613121 
" style="fill:none;stroke:#000000;stroke-width:0.708982;"></path>
    <path clip-path="url(#p071db4904a)" d="M 33.644796 120.168073 
L 245.981296 120.168073 
" style="fill:none;stroke:#000000;stroke-width:0.708982;"></path>
    <path clip-path="url(#p071db4904a)" d="M 33.644796 79.723026 
L 245.981296 79.723026 
" style="fill:none;stroke:#000000;stroke-width:0.708982;"></path>
    <path clip-path="url(#p071db4904a)" d="M 33.644796 39.277978 
L 245.981296 39.277978 
" style="fill:none;stroke:#000000;stroke-width:0.708982;"></path>
   </g>
   <g id="LineCollection_2">
    <path clip-path="url(#p071db4904a)" d="M 33.644796 241.503216 
L 251.036927 241.503216 
" style="fill:none;stroke:#000000;stroke-width:1.949699;"></path>
   </g>
   <g id="PathCollection_1">
    <defs>
     <path d="M 248.337227 -32.732334 
L 251.036927 -33.716784 
L 248.337227 -34.701235 
L 248.337227 -32.732334 
L 251.036927 -33.716784 
" id="mdd7e966acb" style="stroke:#000000;stroke-linejoin:miter;stroke-width:1.949699;"></path>
    </defs>
    <g clip-path="url(#p071db4904a)">
     <use style="stroke:#000000;stroke-linejoin:miter;stroke-width:1.949699;" x="0" xlink:href="#mdd7e966acb" y="275.22"></use>
    </g>
   </g>
   <g id="LineCollection_3">
    <path clip-path="url(#p071db4904a)" d="M 38.700427 246.558847 
L 38.700427 29.166716 
" style="fill:none;stroke:#000000;stroke-width:1.949699;"></path>
   </g>
   <g id="PathCollection_2">
    <defs>
     <path d="M 39.656351 -242.479045 
L 38.700427 -246.053284 
L 37.744504 -242.479045 
L 39.656351 -242.479045 
L 38.700427 -246.053284 
" id="m287692ab37" style="stroke:#000000;stroke-linejoin:miter;stroke-width:1.949699;"></path>
    </defs>
    <g clip-path="url(#p071db4904a)">
     <use style="stroke:#000000;stroke-linejoin:miter;stroke-width:1.949699;" x="0" xlink:href="#m287692ab37" y="275.22"></use>
    </g>
   </g>
   <g id="LineCollection_4">
    <path clip-path="url(#p071db4904a)" d="M 79.145475 245.228417 
L 79.145475 237.778014 
" style="fill:none;stroke:#000000;stroke-width:0.886227;"></path>
    <path clip-path="url(#p071db4904a)" d="M 119.590522 245.228417 
L 119.590522 237.778014 
" style="fill:none;stroke:#000000;stroke-width:0.886227;"></path>
    <path clip-path="url(#p071db4904a)" d="M 160.03557 245.228417 
L 160.03557 237.778014 
" style="fill:none;stroke:#000000;stroke-width:0.886227;"></path>
    <path clip-path="url(#p071db4904a)" d="M 200.480617 245.228417 
L 200.480617 237.778014 
" style="fill:none;stroke:#000000;stroke-width:0.886227;"></path>
    <path clip-path="url(#p071db4904a)" d="M 240.925665 245.228417 
L 240.925665 237.778014 
" style="fill:none;stroke:#000000;stroke-width:0.886227;"></path>
   </g>
   <g id="LineCollection_5">
    <path clip-path="url(#p071db4904a)" d="M 34.975226 201.058168 
L 42.425629 201.058168 
" style="fill:none;stroke:#000000;stroke-width:0.886227;"></path>
    <path clip-path="url(#p071db4904a)" d="M 34.975226 160.613121 
L 42.425629 160.613121 
" style="fill:none;stroke:#000000;stroke-width:0.886227;"></path>
    <path clip-path="url(#p071db4904a)" d="M 34.975226 120.168073 
L 42.425629 120.168073 
" style="fill:none;stroke:#000000;stroke-width:0.886227;"></path>
    <path clip-path="url(#p071db4904a)" d="M 34.975226 79.723026 
L 42.425629 79.723026 
" style="fill:none;stroke:#000000;stroke-width:0.886227;"></path>
    <path clip-path="url(#p071db4904a)" d="M 34.975226 39.277978 
L 42.425629 39.277978 
" style="fill:none;stroke:#000000;stroke-width:0.886227;"></path>
   </g>
   <g id="PolyCollection_1">
    <path clip-path="url(#p071db4904a)" d="M 24.291879 207.124925 
L 24.291879 196.002537 
L 31.875326 196.002537 
L 31.875326 207.124925 
z
" style="fill:#ffffff;"></path>
   </g>
   <g id="text_1">
    <g clip-path="url(#p071db4904a)">
     <!-- 1 -->
     <defs>
      <path d="M 12.796875 48.4375 
Q 12.203125 48.734375 11.609375 49.5625 
Q 11.03125 50.390625 11.03125 50.875 
Q 11.03125 51.265625 11.234375 51.46875 
Q 27.734375 62.703125 28.125 62.703125 
L 28.328125 62.703125 
Q 29.109375 62.703125 29.5 60.84375 
Q 28.515625 57.625 28.515625 51.65625 
L 28.515625 13.1875 
Q 28.515625 7.515625 29.296875 4.5 
Q 29.5 3.8125 32.171875 3.171875 
Q 34.859375 2.546875 35.84375 2.546875 
Q 36.234375 2.546875 36.234375 0.78125 
Q 36.234375 -0.09375 36.140625 -0.296875 
Q 26.375 0.203125 24.3125 0.203125 
Q 22.75 0.203125 12.984375 -0.296875 
Q 12.59375 0.09375 12.59375 1.3125 
Q 12.59375 2.546875 12.984375 2.546875 
Q 14.265625 2.546875 16.9375 3.171875 
Q 19.625 3.8125 19.828125 4.5 
Q 20.40625 6.84375 20.40625 10.0625 
L 20.40625 45.21875 
Q 20.40625 48.046875 20.203125 49.515625 
Q 20.015625 50.984375 19.765625 51.3125 
Q 19.53125 51.65625 19.046875 51.65625 
Q 18.453125 51.65625 17.328125 51.0625 
Q 16.21875 50.484375 14.75 49.609375 
Q 13.28125 48.734375 12.796875 48.4375 
z
" id="CrimsonText-Regular-49"></path>
     </defs>
     <g transform="translate(24.5327 205.74981)scale(0.15 -0.15)">
      <use xlink:href="#CrimsonText-Regular-49"></use>
     </g>
    </g>
   </g>
   <g id="text_2">
    <g clip-path="url(#p071db4904a)">
     <!-- 1 -->
     <g transform="translate(24.5327 205.74981)scale(0.15 -0.15)">
      <use xlink:href="#CrimsonText-Regular-49"></use>
     </g>
    </g>
   </g>
   <g id="PolyCollection_2">
    <path clip-path="url(#p071db4904a)" d="M 24.291879 166.679878 
L 24.291879 155.55749 
L 31.875326 155.55749 
L 31.875326 166.679878 
z
" style="fill:#ffffff;"></path>
   </g>
   <g id="text_3">
    <g clip-path="url(#p071db4904a)">
     <!-- 2 -->
     <defs>
      <path d="M 25 62.703125 
Q 31.546875 62.703125 35.296875 57.8125 
Q 39.0625 52.9375 39.0625 46.78125 
Q 39.0625 43.171875 37.84375 39.3125 
Q 36.625 35.453125 34.03125 31.4375 
Q 31.453125 27.4375 29.34375 24.453125 
Q 27.25 21.484375 23.53125 17.578125 
Q 19.828125 13.671875 18.40625 12.203125 
Q 17 10.75 13.875 7.71875 
Q 13.578125 7.234375 14.0625 7.03125 
L 32.90625 7.03125 
Q 35.640625 7.03125 36.859375 8.59375 
Q 38.09375 10.15625 39.359375 14.546875 
Q 39.75 15.625 40.71875 15.625 
Q 42 15.625 42.484375 15.234375 
Q 40.140625 3.515625 39.84375 1.5625 
Q 39.65625 0 37.890625 0 
L 5.859375 0 
Q 5.46875 0 5.125 1.125 
Q 4.78125 2.25 4.78125 2.9375 
Q 15.4375 13.671875 23.046875 25.234375 
Q 30.671875 36.8125 30.671875 44.828125 
Q 30.671875 50.09375 28.03125 52.96875 
Q 25.390625 55.859375 21.09375 55.859375 
Q 12.984375 55.859375 8.109375 47.75 
Q 7.515625 47.75 6.875 48.390625 
Q 6.25 49.03125 6.25 49.3125 
Q 6.546875 50.484375 7.859375 52.484375 
Q 9.1875 54.5 11.375 56.890625 
Q 13.578125 59.28125 17.234375 60.984375 
Q 20.90625 62.703125 25 62.703125 
z
" id="CrimsonText-Regular-50"></path>
     </defs>
     <g transform="translate(24.5327 165.304763)scale(0.15 -0.15)">
      <use xlink:href="#CrimsonText-Regular-50"></use>
     </g>
    </g>
   </g>
   <g id="text_4">
    <g clip-path="url(#p071db4904a)">
     <!-- 2 -->
     <g transform="translate(24.5327 165.304763)scale(0.15 -0.15)">
      <use xlink:href="#CrimsonText-Regular-50"></use>
     </g>
    </g>
   </g>
   <g id="PolyCollection_3">
    <path clip-path="url(#p071db4904a)" d="M 24.291879 126.23483 
L 24.291879 115.112442 
L 31.875326 115.112442 
L 31.875326 126.23483 
z
" style="fill:#ffffff;"></path>
   </g>
   <g id="text_5">
    <g clip-path="url(#p071db4904a)">
     <!-- 3 -->
     <defs>
      <path d="M 24.421875 62.703125 
Q 28.609375 62.703125 32.46875 59.234375 
Q 36.328125 55.765625 36.328125 50.203125 
Q 36.328125 45.90625 34.21875 42.921875 
Q 32.125 39.9375 28.21875 37.015625 
Q 33.40625 35.15625 37.640625 30.859375 
Q 41.890625 26.5625 41.890625 20.125 
Q 41.890625 10.84375 35.34375 5.171875 
Q 28.8125 -0.484375 19.140625 -0.484375 
Q 10.84375 -0.484375 6.453125 2.4375 
Q 5.46875 3.125 5.46875 5.28125 
Q 5.46875 9.859375 9.078125 9.859375 
Q 9.96875 9.859375 10.890625 9.125 
Q 11.8125 8.40625 12.9375 7.234375 
Q 14.0625 6.0625 14.84375 5.46875 
Q 17.671875 3.421875 22.265625 3.421875 
Q 26.5625 3.421875 30.03125 6.78125 
Q 33.5 10.15625 33.5 17.578125 
Q 33.5 23.34375 29.78125 27.34375 
Q 26.078125 31.34375 21.09375 31.34375 
Q 17.484375 31.34375 14.75 30.671875 
Q 14.0625 31.546875 14.0625 33.203125 
Q 14.0625 33.890625 14.265625 34.1875 
Q 21 35.359375 25 38.875 
Q 29 42.390625 29 48.4375 
Q 29 51.765625 26.40625 54.34375 
Q 23.828125 56.9375 20.515625 56.9375 
Q 18.359375 56.9375 16.546875 56.203125 
Q 14.75 55.46875 13.8125 54.6875 
Q 12.890625 53.90625 12.015625 52.96875 
Q 11.140625 52.046875 11.03125 51.953125 
Q 10.640625 51.953125 10.25 52.875 
Q 9.859375 53.8125 9.859375 54.5 
Q 12.5 58.40625 15.8125 60.546875 
Q 19.140625 62.703125 24.421875 62.703125 
z
" id="CrimsonText-Regular-51"></path>
     </defs>
     <g transform="translate(24.518638 124.859715)scale(0.15 -0.15)">
      <use xlink:href="#CrimsonText-Regular-51"></use>
     </g>
    </g>
   </g>
   <g id="text_6">
    <g clip-path="url(#p071db4904a)">
     <!-- 3 -->
     <g transform="translate(24.518638 124.859715)scale(0.15 -0.15)">
      <use xlink:href="#CrimsonText-Regular-51"></use>
     </g>
    </g>
   </g>
   <g id="PolyCollection_4">
    <path clip-path="url(#p071db4904a)" d="M 24.291879 85.789783 
L 24.291879 74.667395 
L 31.875326 74.667395 
L 31.875326 85.789783 
z
" style="fill:#ffffff;"></path>
   </g>
   <g id="text_7">
    <g clip-path="url(#p071db4904a)">
     <!-- 4 -->
     <defs>
      <path d="M 35.0625 62.984375 
Q 36.328125 62.984375 36.328125 62.015625 
L 36.328125 22.65625 
L 42.390625 22.65625 
Q 43.953125 22.65625 43.953125 17.96875 
Q 43.953125 17.390625 43.359375 17 
Q 43.359375 17 36.328125 17 
L 36.328125 -0.09375 
Q 36.03125 -0.59375 32.234375 -0.59375 
Q 28.609375 -0.59375 28.609375 0.203125 
L 28.609375 17 
L 3.90625 17 
Q 3.21875 17.875 3.21875 20.015625 
L 32.8125 61.8125 
Q 33.6875 62.984375 35.0625 62.984375 
z
M 28.609375 22.65625 
L 28.609375 48.640625 
Q 28.609375 49.515625 28.125 49.515625 
Q 28.125 49.421875 28.03125 49.3125 
L 10.25 23.828125 
Q 10.15625 23.734375 10.15625 23.53125 
Q 10.15625 22.65625 10.84375 22.65625 
z
" id="CrimsonText-Regular-52"></path>
     </defs>
     <g transform="translate(24.560825 84.414668)scale(0.15 -0.15)">
      <use xlink:href="#CrimsonText-Regular-52"></use>
     </g>
    </g>
   </g>
   <g id="text_8">
    <g clip-path="url(#p071db4904a)">
     <!-- 4 -->
     <g transform="translate(24.560825 84.414668)scale(0.15 -0.15)">
      <use xlink:href="#CrimsonText-Regular-52"></use>
     </g>
    </g>
   </g>
   <g id="PolyCollection_5">
    <path clip-path="url(#p071db4904a)" d="M 24.291879 45.344735 
L 24.291879 34.222347 
L 31.875326 34.222347 
L 31.875326 45.344735 
z
" style="fill:#ffffff;"></path>
   </g>
   <g id="text_9">
    <g clip-path="url(#p071db4904a)">
     <!-- 5 -->
     <defs>
      <path d="M 13.578125 60.84375 
Q 32.8125 61.421875 36.53125 62.203125 
Q 37.015625 61.53125 37.015625 60.15625 
Q 37.015625 57.71875 36.421875 54.78125 
Q 33.890625 54 25.390625 53.71875 
L 16.890625 53.328125 
Q 16.40625 53.21875 16.21875 52.546875 
Q 15.140625 47.171875 13.375 36.921875 
Q 16.609375 38.1875 22.5625 38.1875 
Q 30.375 38.1875 36.078125 32.8125 
Q 41.796875 27.4375 41.796875 20.125 
Q 41.796875 11.140625 35.5 5.328125 
Q 29.203125 -0.484375 19.625 -0.484375 
Q 10.9375 -0.484375 6.546875 2.4375 
Q 5.5625 3.125 5.5625 5.28125 
Q 5.5625 9.859375 9.1875 9.859375 
Q 10.0625 9.859375 10.984375 9.125 
Q 11.921875 8.40625 13.03125 7.234375 
Q 14.15625 6.0625 14.9375 5.46875 
Q 17.78125 3.421875 22.75 3.421875 
Q 26.859375 3.421875 30.125 6.890625 
Q 33.40625 10.359375 33.40625 17.578125 
Q 33.40625 20.125 32.71875 22.359375 
Q 32.03125 24.609375 30.515625 26.796875 
Q 29 29 26.0625 30.265625 
Q 23.140625 31.546875 19.140625 31.546875 
Q 14.0625 31.546875 10.640625 30.46875 
Q 9.859375 30.859375 8.890625 31.84375 
z
" id="CrimsonText-Regular-53"></path>
     </defs>
     <g transform="translate(24.518638 43.96962)scale(0.15 -0.15)">
      <use xlink:href="#CrimsonText-Regular-53"></use>
     </g>
    </g>
   </g>
   <g id="text_10">
    <g clip-path="url(#p071db4904a)">
     <!-- 5 -->
     <g transform="translate(24.518638 43.96962)scale(0.15 -0.15)">
      <use xlink:href="#CrimsonText-Regular-53"></use>
     </g>
    </g>
   </g>
   <g id="PolyCollection_6">
    <path clip-path="url(#p071db4904a)" d="M 74.595407 256.164545 
L 74.595407 245.042157 
L 82.178853 245.042157 
L 82.178853 256.164545 
z
" style="fill:#ffffff;"></path>
   </g>
   <g id="text_11">
    <g clip-path="url(#p071db4904a)">
     <!-- 1 -->
     <g transform="translate(74.583447 255.042212)scale(0.15 -0.15)">
      <use xlink:href="#CrimsonText-Regular-49"></use>
     </g>
    </g>
   </g>
   <g id="text_12">
    <g clip-path="url(#p071db4904a)">
     <!-- 1 -->
     <g transform="translate(74.583447 255.042212)scale(0.15 -0.15)">
      <use xlink:href="#CrimsonText-Regular-49"></use>
     </g>
    </g>
   </g>
   <g id="PolyCollection_7">
    <path clip-path="url(#p071db4904a)" d="M 115.040455 256.164545 
L 115.040455 245.042157 
L 122.623901 245.042157 
L 122.623901 256.164545 
z
" style="fill:#ffffff;"></path>
   </g>
   <g id="text_13">
    <g clip-path="url(#p071db4904a)">
     <!-- 2 -->
     <g transform="translate(115.028494 255.042212)scale(0.15 -0.15)">
      <use xlink:href="#CrimsonText-Regular-50"></use>
     </g>
    </g>
   </g>
   <g id="text_14">
    <g clip-path="url(#p071db4904a)">
     <!-- 2 -->
     <g transform="translate(115.028494 255.042212)scale(0.15 -0.15)">
      <use xlink:href="#CrimsonText-Regular-50"></use>
     </g>
    </g>
   </g>
   <g id="PolyCollection_8">
    <path clip-path="url(#p071db4904a)" d="M 155.485502 256.164545 
L 155.485502 245.042157 
L 163.068948 245.042157 
L 163.068948 256.164545 
z
" style="fill:#ffffff;"></path>
   </g>
   <g id="text_15">
    <g clip-path="url(#p071db4904a)">
     <!-- 3 -->
     <g transform="translate(155.459479 255.042212)scale(0.15 -0.15)">
      <use xlink:href="#CrimsonText-Regular-51"></use>
     </g>
    </g>
   </g>
   <g id="text_16">
    <g clip-path="url(#p071db4904a)">
     <!-- 3 -->
     <g transform="translate(155.459479 255.042212)scale(0.15 -0.15)">
      <use xlink:href="#CrimsonText-Regular-51"></use>
     </g>
    </g>
   </g>
   <g id="PolyCollection_9">
    <path clip-path="url(#p071db4904a)" d="M 195.93055 256.164545 
L 195.93055 245.042157 
L 203.513996 245.042157 
L 203.513996 256.164545 
z
" style="fill:#ffffff;"></path>
   </g>
   <g id="text_17">
    <g clip-path="url(#p071db4904a)">
     <!-- 4 -->
     <g transform="translate(195.946714 255.042212)scale(0.15 -0.15)">
      <use xlink:href="#CrimsonText-Regular-52"></use>
     </g>
    </g>
   </g>
   <g id="text_18">
    <g clip-path="url(#p071db4904a)">
     <!-- 4 -->
     <g transform="translate(195.946714 255.042212)scale(0.15 -0.15)">
      <use xlink:href="#CrimsonText-Regular-52"></use>
     </g>
    </g>
   </g>
   <g id="PolyCollection_10">
    <path clip-path="url(#p071db4904a)" d="M 236.375597 256.164545 
L 236.375597 245.042157 
L 243.959043 245.042157 
L 243.959043 256.164545 
z
" style="fill:#ffffff;"></path>
   </g>
   <g id="text_19">
    <g clip-path="url(#p071db4904a)">
     <!-- 5 -->
     <g transform="translate(236.349574 255.042212)scale(0.15 -0.15)">
      <use xlink:href="#CrimsonText-Regular-53"></use>
     </g>
    </g>
   </g>
   <g id="text_20">
    <g clip-path="url(#p071db4904a)">
     <!-- 5 -->
     <g transform="translate(236.349574 255.042212)scale(0.15 -0.15)">
      <use xlink:href="#CrimsonText-Regular-53"></use>
     </g>
    </g>
   </g>
   <g id="text_21">
    <g clip-path="url(#p071db4904a)">
     <!-- O -->
     <defs>
      <path d="M 39.9375 61.03125 
Q 29.390625 61.03125 22.0625 50.140625 
Q 14.75 39.265625 14.75 26.078125 
Q 14.75 16.109375 19.09375 9.65625 
Q 23.4375 3.21875 31.453125 3.21875 
Q 41.609375 3.21875 49.03125 14.296875 
Q 56.453125 25.390625 56.453125 38.578125 
Q 56.453125 48.34375 52.15625 54.6875 
Q 47.859375 61.03125 39.9375 61.03125 
z
M 42.1875 65.140625 
Q 52.046875 65.140625 58.734375 57.765625 
Q 65.4375 50.390625 65.4375 39.9375 
Q 65.4375 29.390625 60.40625 19.921875 
Q 55.375 10.453125 46.875 4.734375 
Q 38.375 -0.984375 28.90625 -0.984375 
Q 18.453125 -0.984375 12.15625 6.484375 
Q 5.859375 13.96875 5.859375 25.296875 
Q 5.859375 35.453125 11.234375 44.78125 
Q 16.609375 54.109375 25 59.625 
Q 33.40625 65.140625 42.1875 65.140625 
z
" id="CrimsonText-Italic-79"></path>
     </defs>
     <g transform="translate(27.305013 251.62363)scale(0.15 -0.15)">
      <use xlink:href="#CrimsonText-Italic-79"></use>
     </g>
    </g>
   </g>
   <g id="text_22">
    <g clip-path="url(#p071db4904a)">
     <!-- y -->
     <defs>
      <path d="M 21.09375 42.484375 
Q 24.03125 42.484375 25.921875 37.5 
Q 27.828125 32.515625 28.515625 24.453125 
Q 29.203125 16.40625 29.390625 11.859375 
Q 29.59375 7.328125 29.59375 2.734375 
Q 33.40625 7.421875 37.203125 14.6875 
Q 41.015625 21.96875 41.015625 27.828125 
Q 41.015625 33.59375 38.578125 38.28125 
Q 39.84375 42.484375 43.453125 42.484375 
Q 47.75 42.484375 47.75 34.765625 
Q 47.75 24.03125 39.34375 10.109375 
Q 30.953125 -3.8125 20.359375 -13.28125 
Q 9.765625 -22.75 3.21875 -22.75 
Q 0.6875 -22.75 -0.96875 -21.578125 
Q -2.640625 -20.40625 -2.640625 -18.75 
Q -2.640625 -15.625 -0.390625 -14.453125 
Q 1.765625 -15.71875 6.15625 -15.71875 
Q 14.265625 -15.71875 20.21875 -7.03125 
Q 22.46875 -3.71875 22.46875 6.0625 
Q 22.46875 10.84375 22.21875 15.578125 
Q 21.96875 20.3125 21.328125 25.296875 
Q 20.703125 30.28125 19.484375 33.34375 
Q 18.265625 36.421875 16.609375 36.421875 
Q 15.71875 36.421875 13.953125 34.765625 
Q 12.203125 33.109375 11.234375 31.84375 
Q 11.03125 31.84375 10.5 32.765625 
Q 9.96875 33.6875 9.96875 34.078125 
Q 10.546875 35.546875 14.59375 39.015625 
Q 18.65625 42.484375 21.09375 42.484375 
z
" id="CrimsonText-Italic-121"></path>
     </defs>
     <g transform="translate(35.191834 22.350767)scale(0.15 -0.15)">
      <use xlink:href="#CrimsonText-Italic-121"></use>
     </g>
    </g>
   </g>
   <g id="text_23">
    <g clip-path="url(#p071db4904a)">
     <!-- x -->
     <defs>
      <path d="M 20.3125 42.484375 
Q 24.421875 42.484375 26.953125 33.984375 
L 29 27.046875 
L 34.765625 36.921875 
Q 37.984375 42.484375 42.96875 42.484375 
Q 46.296875 42.484375 48.640625 40.53125 
Q 49.421875 38.96875 49.421875 37.984375 
Q 49.421875 36.53125 48.390625 35.5 
Q 47.359375 34.46875 46.296875 34.46875 
Q 45.015625 34.46875 43.40625 35.984375 
Q 41.796875 37.5 40.4375 37.5 
Q 39.265625 37.5 37.796875 34.96875 
L 30.46875 22.46875 
L 34.671875 8.6875 
Q 35.640625 5.375 37.3125 5.375 
Q 38.765625 5.375 40.421875 6.890625 
Q 42.09375 8.40625 42.78125 9.671875 
Q 43.171875 9.671875 43.75 8.890625 
Q 44.34375 8.109375 44.34375 7.71875 
Q 44.046875 6.0625 40.71875 2.78125 
Q 37.40625 -0.484375 34.375 -0.484375 
Q 30.28125 -0.484375 27.734375 8.015625 
L 25.484375 15.625 
L 19.34375 4.984375 
Q 16.109375 -0.59375 11.140625 -0.59375 
Q 7.8125 -0.59375 5.46875 1.375 
Q 4.6875 2.734375 4.6875 3.90625 
Q 4.6875 5.375 5.703125 6.390625 
Q 6.734375 7.421875 7.8125 7.421875 
Q 9.078125 7.421875 10.6875 5.90625 
Q 12.3125 4.390625 13.671875 4.390625 
Q 14.84375 4.390625 16.3125 6.9375 
L 24.03125 20.21875 
L 20.015625 33.296875 
Q 19.046875 36.625 17.390625 36.625 
Q 15.921875 36.625 14.25 35.109375 
Q 12.59375 33.59375 11.921875 32.328125 
Q 11.53125 32.328125 10.9375 33.109375 
Q 10.359375 33.890625 10.359375 34.28125 
Q 10.640625 35.9375 13.953125 39.203125 
Q 17.28125 42.484375 20.3125 42.484375 
z
" id="CrimsonText-Italic-120"></path>
     </defs>
     <g transform="translate(253.111793 244.798528)scale(0.15 -0.15)">
      <use xlink:href="#CrimsonText-Italic-120"></use>
     </g>
    </g>
   </g>
   <g id="line2d_1">
    <defs>
     <path d="M 0 3 
C 0.795609 3 1.55874 2.683901 2.12132 2.12132 
C 2.683901 1.55874 3 0.795609 3 0 
C 3 -0.795609 2.683901 -1.55874 2.12132 -2.12132 
C 1.55874 -2.683901 0.795609 -3 0 -3 
C -0.795609 -3 -1.55874 -2.683901 -2.12132 -2.12132 
C -2.683901 -1.55874 -3 -0.795609 -3 0 
C -3 0.795609 -2.683901 1.55874 -2.12132 2.12132 
C -1.55874 2.683901 -0.795609 3 0 3 
z
" id="m1709572b5e" style="stroke:#000000;"></path>
    </defs>
    <g clip-path="url(#p071db4904a)">
     <use style="stroke:#000000;" x="38.700427" xlink:href="#m1709572b5e" y="241.503216"></use>
     <use style="stroke:#000000;" x="79.145475" xlink:href="#m1709572b5e" y="217.236187"></use>
     <use style="stroke:#000000;" x="119.590522" xlink:href="#m1709572b5e" y="184.880149"></use>
     <use style="stroke:#000000;" x="160.03557" xlink:href="#m1709572b5e" y="156.568616"></use>
     <use style="stroke:#000000;" x="200.480617" xlink:href="#m1709572b5e" y="160.613121"></use>
     <use style="stroke:#000000;" x="240.925665" xlink:href="#m1709572b5e" y="156.568616"></use>
    </g>
   </g>
   <g id="line2d_2">
    <path clip-path="url(#p071db4904a)" d="M 38.700427 230.71787 
L 240.925665 141.738765 
L 240.925665 141.738765 
" style="fill:none;stroke:#000000;stroke-linecap:square;stroke-width:2.3;"></path>
   </g>
  </g>
 </g>
 <defs>
  <clipPath id="p071db4904a">
   <rect height="260.82" width="255.536866" x="12.676567" y="7.2"></rect>
  </clipPath>
 </defs>
</svg>