<svg aria-label="Graph of a system of a curve and a line in the x y plane with the origin labeled O. The x axis ranges from negative 2 to 9 in increments of 1. The y axis ranges from negative 2 to 9 in increments of 1. Refer to long description." role="img" version="1.1" viewBox="0 0 378.885664 362.16" width="378.885664px" xmlns="http://www.w3.org/2000/svg" xmlns:xlink="http://www.w3.org/1999/xlink">
<defs>
<style type="text/css">
*{stroke-linecap:butt;stroke-linejoin:round;}
  </style>
</defs>
<g id="figure_1">
<g id="patch_1">
<path d="M 0 362.16 
L 378.885664 362.16 
L 378.885664 0 
L 0 0 
z
" style="fill:none;"></path>
</g>
<g id="axes_1">
<g id="patch_2">
<path d="M 8.805664 344.88 
L 371.685664 344.88 
L 371.685664 12.24 
L 8.805664 12.24 
z
" style="fill:none;"></path>
</g>
<g id="matplotlib.axis_1"></g>
<g id="matplotlib.axis_2"></g>
</g>
<g id="axes_2">
<g id="patch_3">
<path d="M 7.2 354.96 
L 365.731327 354.96 
L 365.731327 7.2 
L 7.2 7.2 
z
" style="fill:none;"></path>
</g>
<g id="matplotlib.axis_3">
<g id="xtick_1"></g>
<g id="xtick_2"></g>
<g id="xtick_3"></g>
<g id="xtick_4"></g>
<g id="xtick_5"></g>
<g id="xtick_6"></g>
</g>
<g id="matplotlib.axis_4">
<g id="ytick_1"></g>
<g id="ytick_2"></g>
<g id="ytick_3"></g>
<g id="ytick_4"></g>
<g id="ytick_5"></g>
<g id="ytick_6"></g>
<g id="ytick_7"></g>
</g>
<g id="LineCollection_1">
<path clip-path="url(#p292ee35719)" d="M 47.977168 337.753854 
L 47.977168 43.990378 
" style="fill:none;stroke:#000000;stroke-width:0.708982;"></path>
<path clip-path="url(#p292ee35719)" d="M 73.411235 337.753854 
L 73.411235 43.990378 
" style="fill:none;stroke:#000000;stroke-width:0.708982;"></path>
<path clip-path="url(#p292ee35719)" d="M 124.27937 337.753854 
L 124.27937 43.990378 
" style="fill:none;stroke:#000000;stroke-width:0.708982;"></path>
<path clip-path="url(#p292ee35719)" d="M 149.713437 337.753854 
L 149.713437 43.990378 
" style="fill:none;stroke:#000000;stroke-width:0.708982;"></path>
<path clip-path="url(#p292ee35719)" d="M 175.147504 337.753854 
L 175.147504 43.990378 
" style="fill:none;stroke:#000000;stroke-width:0.708982;"></path>
<path clip-path="url(#p292ee35719)" d="M 200.581571 337.753854 
L 200.581571 43.990378 
" style="fill:none;stroke:#000000;stroke-width:0.708982;"></path>
<path clip-path="url(#p292ee35719)" d="M 226.015638 337.753854 
L 226.015638 43.990378 
" style="fill:none;stroke:#000000;stroke-width:0.708982;"></path>
<path clip-path="url(#p292ee35719)" d="M 251.449705 337.753854 
L 251.449705 43.990378 
" style="fill:none;stroke:#000000;stroke-width:0.708982;"></path>
<path clip-path="url(#p292ee35719)" d="M 276.883772 337.753854 
L 276.883772 43.990378 
" style="fill:none;stroke:#000000;stroke-width:0.708982;"></path>
<path clip-path="url(#p292ee35719)" d="M 302.31784 337.753854 
L 302.31784 43.990378 
" style="fill:none;stroke:#000000;stroke-width:0.708982;"></path>
<path clip-path="url(#p292ee35719)" d="M 327.751907 337.753854 
L 327.751907 43.990378 
" style="fill:none;stroke:#000000;stroke-width:0.708982;"></path>
<path clip-path="url(#p292ee35719)" d="M 40.9828 330.759485 
L 334.746275 330.759485 
" style="fill:none;stroke:#000000;stroke-width:0.708982;"></path>
<path clip-path="url(#p292ee35719)" d="M 40.9828 305.325418 
L 334.746275 305.325418 
" style="fill:none;stroke:#000000;stroke-width:0.708982;"></path>
<path clip-path="url(#p292ee35719)" d="M 40.9828 254.457284 
L 334.746275 254.457284 
" style="fill:none;stroke:#000000;stroke-width:0.708982;"></path>
<path clip-path="url(#p292ee35719)" d="M 40.9828 229.023217 
L 334.746275 229.023217 
" style="fill:none;stroke:#000000;stroke-width:0.708982;"></path>
<path clip-path="url(#p292ee35719)" d="M 40.9828 203.589149 
L 334.746275 203.589149 
" style="fill:none;stroke:#000000;stroke-width:0.708982;"></path>
<path clip-path="url(#p292ee35719)" d="M 40.9828 178.155082 
L 334.746275 178.155082 
" style="fill:none;stroke:#000000;stroke-width:0.708982;"></path>
<path clip-path="url(#p292ee35719)" d="M 40.9828 152.721015 
L 334.746275 152.721015 
" style="fill:none;stroke:#000000;stroke-width:0.708982;"></path>
<path clip-path="url(#p292ee35719)" d="M 40.9828 127.286948 
L 334.746275 127.286948 
" style="fill:none;stroke:#000000;stroke-width:0.708982;"></path>
<path clip-path="url(#p292ee35719)" d="M 40.9828 101.852881 
L 334.746275 101.852881 
" style="fill:none;stroke:#000000;stroke-width:0.708982;"></path>
<path clip-path="url(#p292ee35719)" d="M 40.9828 76.418814 
L 334.746275 76.418814 
" style="fill:none;stroke:#000000;stroke-width:0.708982;"></path>
<path clip-path="url(#p292ee35719)" d="M 40.9828 50.984747 
L 334.746275 50.984747 
" style="fill:none;stroke:#000000;stroke-width:0.708982;"></path>
</g>
<g id="LineCollection_2">
<path clip-path="url(#p292ee35719)" d="M 40.9828 279.891351 
L 341.740644 279.891351 
" style="fill:none;stroke:#000000;stroke-width:1.949699;"></path>
</g>
<g id="PathCollection_1">
<defs>
<path d="M 337.952827 -80.956048 
L 341.740644 -82.268649 
L 337.952827 -83.58125 
L 337.952827 -80.956048 
L 341.740644 -82.268649 
" id="ma159c514a0" style="stroke:#000000;stroke-linejoin:miter;stroke-width:1.949699;"></path>
</defs>
<g clip-path="url(#p292ee35719)">
<use style="stroke:#000000;stroke-linejoin:miter;stroke-width:1.949699;" x="0" xlink:href="#ma159c514a0" y="362.16"></use>
</g>
</g>
<g id="LineCollection_3">
<path clip-path="url(#p292ee35719)" d="M 98.845302 337.753854 
L 98.845302 36.99601 
" style="fill:none;stroke:#000000;stroke-width:1.949699;"></path>
</g>
<g id="PathCollection_2">
<defs>
<path d="M 100.186513 -320.398339 
L 98.845302 -325.16399 
L 97.504092 -320.398339 
L 100.186513 -320.398339 
L 98.845302 -325.16399 
" id="m6f65ff4b5c" style="stroke:#000000;stroke-linejoin:miter;stroke-width:1.949699;"></path>
</defs>
<g clip-path="url(#p292ee35719)">
<use style="stroke:#000000;stroke-linejoin:miter;stroke-width:1.949699;" x="0" xlink:href="#m6f65ff4b5c" y="362.16"></use>
</g>
</g>
<g id="LineCollection_4">
<path clip-path="url(#p292ee35719)" d="M 47.977168 285.045096 
L 47.977168 274.737606 
" style="fill:none;stroke:#000000;stroke-width:0.886227;"></path>
<path clip-path="url(#p292ee35719)" d="M 73.411235 285.045096 
L 73.411235 274.737606 
" style="fill:none;stroke:#000000;stroke-width:0.886227;"></path>
<path clip-path="url(#p292ee35719)" d="M 124.27937 285.045096 
L 124.27937 274.737606 
" style="fill:none;stroke:#000000;stroke-width:0.886227;"></path>
<path clip-path="url(#p292ee35719)" d="M 149.713437 285.045096 
L 149.713437 274.737606 
" style="fill:none;stroke:#000000;stroke-width:0.886227;"></path>
<path clip-path="url(#p292ee35719)" d="M 175.147504 285.045096 
L 175.147504 274.737606 
" style="fill:none;stroke:#000000;stroke-width:0.886227;"></path>
<path clip-path="url(#p292ee35719)" d="M 200.581571 285.045096 
L 200.581571 274.737606 
" style="fill:none;stroke:#000000;stroke-width:0.886227;"></path>
<path clip-path="url(#p292ee35719)" d="M 226.015638 285.045096 
L 226.015638 274.737606 
" style="fill:none;stroke:#000000;stroke-width:0.886227;"></path>
<path clip-path="url(#p292ee35719)" d="M 251.449705 285.045096 
L 251.449705 274.737606 
" style="fill:none;stroke:#000000;stroke-width:0.886227;"></path>
<path clip-path="url(#p292ee35719)" d="M 276.883772 285.045096 
L 276.883772 274.737606 
" style="fill:none;stroke:#000000;stroke-width:0.886227;"></path>
<path clip-path="url(#p292ee35719)" d="M 302.31784 285.045096 
L 302.31784 274.737606 
" style="fill:none;stroke:#000000;stroke-width:0.886227;"></path>
<path clip-path="url(#p292ee35719)" d="M 327.751907 285.045096 
L 327.751907 274.737606 
" style="fill:none;stroke:#000000;stroke-width:0.886227;"></path>
</g>
<g id="LineCollection_5">
<path clip-path="url(#p292ee35719)" d="M 93.691557 330.759485 
L 103.999048 330.759485 
" style="fill:none;stroke:#000000;stroke-width:0.886227;"></path>
<path clip-path="url(#p292ee35719)" d="M 93.691557 305.325418 
L 103.999048 305.325418 
" style="fill:none;stroke:#000000;stroke-width:0.886227;"></path>
<path clip-path="url(#p292ee35719)" d="M 93.691557 254.457284 
L 103.999048 254.457284 
" style="fill:none;stroke:#000000;stroke-width:0.886227;"></path>
<path clip-path="url(#p292ee35719)" d="M 93.691557 229.023217 
L 103.999048 229.023217 
" style="fill:none;stroke:#000000;stroke-width:0.886227;"></path>
<path clip-path="url(#p292ee35719)" d="M 93.691557 203.589149 
L 103.999048 203.589149 
" style="fill:none;stroke:#000000;stroke-width:0.886227;"></path>
<path clip-path="url(#p292ee35719)" d="M 93.691557 178.155082 
L 103.999048 178.155082 
" style="fill:none;stroke:#000000;stroke-width:0.886227;"></path>
<path clip-path="url(#p292ee35719)" d="M 93.691557 152.721015 
L 103.999048 152.721015 
" style="fill:none;stroke:#000000;stroke-width:0.886227;"></path>
<path clip-path="url(#p292ee35719)" d="M 93.691557 127.286948 
L 103.999048 127.286948 
" style="fill:none;stroke:#000000;stroke-width:0.886227;"></path>
<path clip-path="url(#p292ee35719)" d="M 93.691557 101.852881 
L 103.999048 101.852881 
" style="fill:none;stroke:#000000;stroke-width:0.886227;"></path>
<path clip-path="url(#p292ee35719)" d="M 93.691557 76.418814 
L 103.999048 76.418814 
" style="fill:none;stroke:#000000;stroke-width:0.886227;"></path>
<path clip-path="url(#p292ee35719)" d="M 93.691557 50.984747 
L 103.999048 50.984747 
" style="fill:none;stroke:#000000;stroke-width:0.886227;"></path>
</g>
<g id="PolyCollection_1">
<path clip-path="url(#p292ee35719)" d="M 78.911352 339.152727 
L 78.911352 323.765117 
L 89.402905 323.765117 
L 89.402905 339.152727 
z
" style="fill:#ffffff;"></path>
</g>
<g id="PolyCollection_2">
<path clip-path="url(#p292ee35719)" d="M 68.070081 329.71033 
L 68.070081 335.655543 
L 82.058818 335.655543 
L 82.058818 329.71033 
z
" style="fill:#ffffff;"></path>
</g>
<g id="text_1">
<g clip-path="url(#p292ee35719)">
<!-- – -->
<defs>
<path d="M 2.734375 20.40625 
Q 2.734375 21.390625 3.078125 23.484375 
Q 3.421875 25.59375 4.109375 25.59375 
L 45.609375 25.59375 
Q 46.1875 25.59375 46.1875 24.703125 
Q 46.1875 23.734375 45.3125 20.21875 
Q 45.21875 19.921875 45.0625 19.765625 
Q 44.921875 19.625 44.734375 19.53125 
L 44.625 19.53125 
L 3.328125 19.53125 
Q 3.328125 19.53125 2.9375 19.734375 
Q 2.734375 20.015625 2.734375 20.40625 
z
" id="CrimsonText-Regular-8211"></path>
</defs>
<g transform="translate(69.164477 337.07839)scale(0.2 -0.2)">
<use xlink:href="#CrimsonText-Regular-8211"></use>
</g>
</g>
</g>
<g id="text_2">
<g clip-path="url(#p292ee35719)">
<!-- 2 -->
<defs>
<path d="M 25 62.703125 
Q 31.546875 62.703125 35.296875 57.8125 
Q 39.0625 52.9375 39.0625 46.78125 
Q 39.0625 43.171875 37.84375 39.3125 
Q 36.625 35.453125 34.03125 31.4375 
Q 31.453125 27.4375 29.34375 24.453125 
Q 27.25 21.484375 23.53125 17.578125 
Q 19.828125 13.671875 18.40625 12.203125 
Q 17 10.75 13.875 7.71875 
Q 13.578125 7.234375 14.0625 7.03125 
L 32.90625 7.03125 
Q 35.640625 7.03125 36.859375 8.59375 
Q 38.09375 10.15625 39.359375 14.546875 
Q 39.75 15.625 40.71875 15.625 
Q 42 15.625 42.484375 15.234375 
Q 40.140625 3.515625 39.84375 1.5625 
Q 39.65625 0 37.890625 0 
L 5.859375 0 
Q 5.46875 0 5.125 1.125 
Q 4.78125 2.25 4.78125 2.9375 
Q 15.4375 13.671875 23.046875 25.234375 
Q 30.671875 36.8125 30.671875 44.828125 
Q 30.671875 50.09375 28.03125 52.96875 
Q 25.390625 55.859375 21.09375 55.859375 
Q 12.984375 55.859375 8.109375 47.75 
Q 7.515625 47.75 6.875 48.390625 
Q 6.25 49.03125 6.25 49.3125 
Q 6.546875 50.484375 7.859375 52.484375 
Q 9.1875 54.5 11.375 56.890625 
Q 13.578125 59.28125 17.234375 60.984375 
Q 20.90625 62.703125 25 62.703125 
z
" id="CrimsonText-Regular-50"></path>
</defs>
<g transform="translate(79.600062 337.07839)scale(0.2 -0.2)">
<use xlink:href="#CrimsonText-Regular-50"></use>
</g>
</g>
</g>
<g id="text_3">
<g clip-path="url(#p292ee35719)">
<!-- 2 -->
<g transform="translate(79.600062 337.07839)scale(0.2 -0.2)">
<use xlink:href="#CrimsonText-Regular-50"></use>
</g>
</g>
</g>
<g id="PolyCollection_3">
<path clip-path="url(#p292ee35719)" d="M 78.911352 313.71866 
L 78.911352 298.33105 
L 89.402905 298.33105 
L 89.402905 313.71866 
z
" style="fill:#ffffff;"></path>
</g>
<g id="PolyCollection_4">
<path clip-path="url(#p292ee35719)" d="M 68.070081 304.276263 
L 68.070081 310.221476 
L 82.058818 310.221476 
L 82.058818 304.276263 
z
" style="fill:#ffffff;"></path>
</g>
<g id="text_4">
<g clip-path="url(#p292ee35719)">
<!-- – -->
<g transform="translate(69.164477 311.644323)scale(0.2 -0.2)">
<use xlink:href="#CrimsonText-Regular-8211"></use>
</g>
</g>
</g>
<g id="text_5">
<g clip-path="url(#p292ee35719)">
<!-- 1 -->
<defs>
<path d="M 12.796875 48.4375 
Q 12.203125 48.734375 11.609375 49.5625 
Q 11.03125 50.390625 11.03125 50.875 
Q 11.03125 51.265625 11.234375 51.46875 
Q 27.734375 62.703125 28.125 62.703125 
L 28.328125 62.703125 
Q 29.109375 62.703125 29.5 60.84375 
Q 28.515625 57.625 28.515625 51.65625 
L 28.515625 13.1875 
Q 28.515625 7.515625 29.296875 4.5 
Q 29.5 3.8125 32.171875 3.171875 
Q 34.859375 2.546875 35.84375 2.546875 
Q 36.234375 2.546875 36.234375 0.78125 
Q 36.234375 -0.09375 36.140625 -0.296875 
Q 26.375 0.203125 24.3125 0.203125 
Q 22.75 0.203125 12.984375 -0.296875 
Q 12.59375 0.09375 12.59375 1.3125 
Q 12.59375 2.546875 12.984375 2.546875 
Q 14.265625 2.546875 16.9375 3.171875 
Q 19.625 3.8125 19.828125 4.5 
Q 20.40625 6.84375 20.40625 10.0625 
L 20.40625 45.21875 
Q 20.40625 48.046875 20.203125 49.515625 
Q 20.015625 50.984375 19.765625 51.3125 
Q 19.53125 51.65625 19.046875 51.65625 
Q 18.453125 51.65625 17.328125 51.0625 
Q 16.21875 50.484375 14.75 49.609375 
Q 13.28125 48.734375 12.796875 48.4375 
z
" id="CrimsonText-Regular-49"></path>
</defs>
<g transform="translate(79.600062 311.644323)scale(0.2 -0.2)">
<use xlink:href="#CrimsonText-Regular-49"></use>
</g>
</g>
</g>
<g id="text_6">
<g clip-path="url(#p292ee35719)">
<!-- 1 -->
<g transform="translate(79.600062 311.644323)scale(0.2 -0.2)">
<use xlink:href="#CrimsonText-Regular-49"></use>
</g>
</g>
</g>
<g id="PolyCollection_5">
<path clip-path="url(#p292ee35719)" d="M 78.911352 262.850526 
L 78.911352 247.462915 
L 89.402905 247.462915 
L 89.402905 262.850526 
z
" style="fill:#ffffff;"></path>
</g>
<g id="text_7">
<g clip-path="url(#p292ee35719)">
<!-- 1 -->
<g transform="translate(79.600062 260.776188)scale(0.2 -0.2)">
<use xlink:href="#CrimsonText-Regular-49"></use>
</g>
</g>
</g>
<g id="text_8">
<g clip-path="url(#p292ee35719)">
<!-- 1 -->
<g transform="translate(79.600062 260.776188)scale(0.2 -0.2)">
<use xlink:href="#CrimsonText-Regular-49"></use>
</g>
</g>
</g>
<g id="PolyCollection_6">
<path clip-path="url(#p292ee35719)" d="M 78.911352 237.416459 
L 78.911352 222.028848 
L 89.402905 222.028848 
L 89.402905 237.416459 
z
" style="fill:#ffffff;"></path>
</g>
<g id="text_9">
<g clip-path="url(#p292ee35719)">
<!-- 2 -->
<g transform="translate(79.600062 235.342121)scale(0.2 -0.2)">
<use xlink:href="#CrimsonText-Regular-50"></use>
</g>
</g>
</g>
<g id="text_10">
<g clip-path="url(#p292ee35719)">
<!-- 2 -->
<g transform="translate(79.600062 235.342121)scale(0.2 -0.2)">
<use xlink:href="#CrimsonText-Regular-50"></use>
</g>
</g>
</g>
<g id="PolyCollection_7">
<path clip-path="url(#p292ee35719)" d="M 78.911352 211.982392 
L 78.911352 196.594781 
L 89.402905 196.594781 
L 89.402905 211.982392 
z
" style="fill:#ffffff;"></path>
</g>
<g id="text_11">
<g clip-path="url(#p292ee35719)">
<!-- 3 -->
<defs>
<path d="M 24.421875 62.703125 
Q 28.609375 62.703125 32.46875 59.234375 
Q 36.328125 55.765625 36.328125 50.203125 
Q 36.328125 45.90625 34.21875 42.921875 
Q 32.125 39.9375 28.21875 37.015625 
Q 33.40625 35.15625 37.640625 30.859375 
Q 41.890625 26.5625 41.890625 20.125 
Q 41.890625 10.84375 35.34375 5.171875 
Q 28.8125 -0.484375 19.140625 -0.484375 
Q 10.84375 -0.484375 6.453125 2.4375 
Q 5.46875 3.125 5.46875 5.28125 
Q 5.46875 9.859375 9.078125 9.859375 
Q 9.96875 9.859375 10.890625 9.125 
Q 11.8125 8.40625 12.9375 7.234375 
Q 14.0625 6.0625 14.84375 5.46875 
Q 17.671875 3.421875 22.265625 3.421875 
Q 26.5625 3.421875 30.03125 6.78125 
Q 33.5 10.15625 33.5 17.578125 
Q 33.5 23.34375 29.78125 27.34375 
Q 26.078125 31.34375 21.09375 31.34375 
Q 17.484375 31.34375 14.75 30.671875 
Q 14.0625 31.546875 14.0625 33.203125 
Q 14.0625 33.890625 14.265625 34.1875 
Q 21 35.359375 25 38.875 
Q 29 42.390625 29 48.4375 
Q 29 51.765625 26.40625 54.34375 
Q 23.828125 56.9375 20.515625 56.9375 
Q 18.359375 56.9375 16.546875 56.203125 
Q 14.75 55.46875 13.8125 54.6875 
Q 12.890625 53.90625 12.015625 52.96875 
Q 11.140625 52.046875 11.03125 51.953125 
Q 10.640625 51.953125 10.25 52.875 
Q 9.859375 53.8125 9.859375 54.5 
Q 12.5 58.40625 15.8125 60.546875 
Q 19.140625 62.703125 24.421875 62.703125 
z
" id="CrimsonText-Regular-51"></path>
</defs>
<g transform="translate(79.581312 209.908054)scale(0.2 -0.2)">
<use xlink:href="#CrimsonText-Regular-51"></use>
</g>
</g>
</g>
<g id="text_12">
<g clip-path="url(#p292ee35719)">
<!-- 3 -->
<g transform="translate(79.581312 209.908054)scale(0.2 -0.2)">
<use xlink:href="#CrimsonText-Regular-51"></use>
</g>
</g>
</g>
<g id="PolyCollection_8">
<path clip-path="url(#p292ee35719)" d="M 78.911352 186.548324 
L 78.911352 171.160714 
L 89.402905 171.160714 
L 89.402905 186.548324 
z
" style="fill:#ffffff;"></path>
</g>
<g id="text_13">
<g clip-path="url(#p292ee35719)">
<!-- 4 -->
<defs>
<path d="M 35.0625 62.984375 
Q 36.328125 62.984375 36.328125 62.015625 
L 36.328125 22.65625 
L 42.390625 22.65625 
Q 43.953125 22.65625 43.953125 17.96875 
Q 43.953125 17.390625 43.359375 17 
Q 43.359375 17 36.328125 17 
L 36.328125 -0.09375 
Q 36.03125 -0.59375 32.234375 -0.59375 
Q 28.609375 -0.59375 28.609375 0.203125 
L 28.609375 17 
L 3.90625 17 
Q 3.21875 17.875 3.21875 20.015625 
L 32.8125 61.8125 
Q 33.6875 62.984375 35.0625 62.984375 
z
M 28.609375 22.65625 
L 28.609375 48.640625 
Q 28.609375 49.515625 28.125 49.515625 
Q 28.125 49.421875 28.03125 49.3125 
L 10.25 23.828125 
Q 10.15625 23.734375 10.15625 23.53125 
Q 10.15625 22.65625 10.84375 22.65625 
z
" id="CrimsonText-Regular-52"></path>
</defs>
<g transform="translate(79.637562 184.473987)scale(0.2 -0.2)">
<use xlink:href="#CrimsonText-Regular-52"></use>
</g>
</g>
</g>
<g id="text_14">
<g clip-path="url(#p292ee35719)">
<!-- 4 -->
<g transform="translate(79.637562 184.473987)scale(0.2 -0.2)">
<use xlink:href="#CrimsonText-Regular-52"></use>
</g>
</g>
</g>
<g id="PolyCollection_9">
<path clip-path="url(#p292ee35719)" d="M 78.911352 161.114257 
L 78.911352 145.726647 
L 89.402905 145.726647 
L 89.402905 161.114257 
z
" style="fill:#ffffff;"></path>
</g>
<g id="text_15">
<g clip-path="url(#p292ee35719)">
<!-- 5 -->
<defs>
<path d="M 13.578125 60.84375 
Q 32.8125 61.421875 36.53125 62.203125 
Q 37.015625 61.53125 37.015625 60.15625 
Q 37.015625 57.71875 36.421875 54.78125 
Q 33.890625 54 25.390625 53.71875 
L 16.890625 53.328125 
Q 16.40625 53.21875 16.21875 52.546875 
Q 15.140625 47.171875 13.375 36.921875 
Q 16.609375 38.1875 22.5625 38.1875 
Q 30.375 38.1875 36.078125 32.8125 
Q 41.796875 27.4375 41.796875 20.125 
Q 41.796875 11.140625 35.5 5.328125 
Q 29.203125 -0.484375 19.625 -0.484375 
Q 10.9375 -0.484375 6.546875 2.4375 
Q 5.5625 3.125 5.5625 5.28125 
Q 5.5625 9.859375 9.1875 9.859375 
Q 10.0625 9.859375 10.984375 9.125 
Q 11.921875 8.40625 13.03125 7.234375 
Q 14.15625 6.0625 14.9375 5.46875 
Q 17.78125 3.421875 22.75 3.421875 
Q 26.859375 3.421875 30.125 6.890625 
Q 33.40625 10.359375 33.40625 17.578125 
Q 33.40625 20.125 32.71875 22.359375 
Q 32.03125 24.609375 30.515625 26.796875 
Q 29 29 26.0625 30.265625 
Q 23.140625 31.546875 19.140625 31.546875 
Q 14.0625 31.546875 10.640625 30.46875 
Q 9.859375 30.859375 8.890625 31.84375 
z
" id="CrimsonText-Regular-53"></path>
</defs>
<g transform="translate(79.581312 159.03992)scale(0.2 -0.2)">
<use xlink:href="#CrimsonText-Regular-53"></use>
</g>
</g>
</g>
<g id="text_16">
<g clip-path="url(#p292ee35719)">
<!-- 5 -->
<g transform="translate(79.581312 159.03992)scale(0.2 -0.2)">
<use xlink:href="#CrimsonText-Regular-53"></use>
</g>
</g>
</g>
<g id="PolyCollection_10">
<path clip-path="url(#p292ee35719)" d="M 78.911352 135.68019 
L 78.911352 120.29258 
L 89.402905 120.29258 
L 89.402905 135.68019 
z
" style="fill:#ffffff;"></path>
</g>
<g id="text_17">
<g clip-path="url(#p292ee35719)">
<!-- 6 -->
<defs>
<path d="M 12.703125 20.515625 
Q 12.703125 13.671875 15.96875 8.4375 
Q 19.234375 3.21875 24.125 3.21875 
Q 28.421875 3.21875 31.640625 6.984375 
Q 34.859375 10.75 34.859375 17 
Q 34.859375 23.640625 31.6875 27.9375 
Q 28.515625 32.234375 22.359375 32.234375 
Q 19.734375 32.234375 17.28125 30.8125 
Q 14.84375 29.390625 14.15625 27.828125 
Q 12.796875 24.703125 12.703125 20.515625 
z
M 22.953125 -0.59375 
Q 14.84375 -0.59375 9.5625 5.703125 
Q 4.296875 12.015625 4.296875 20.3125 
Q 4.296875 27.9375 7.328125 34.96875 
Q 10.359375 42 15.484375 47.3125 
Q 20.609375 52.640625 26.515625 56.59375 
Q 32.421875 60.546875 39.0625 63.1875 
Q 39.65625 63.1875 40.484375 62.109375 
Q 41.3125 61.03125 41.3125 60.546875 
Q 31.453125 56.25 24.5625 50.140625 
Q 17.671875 44.046875 15.046875 34.375 
Q 14.84375 33.40625 15.140625 33.40625 
Q 15.328125 33.5 15.4375 33.59375 
Q 16.796875 34.671875 20.359375 35.9375 
Q 23.921875 37.203125 26.859375 37.203125 
Q 33.6875 37.203125 38.328125 31.484375 
Q 42.96875 25.78125 42.96875 19.046875 
Q 42.96875 10.9375 36.90625 5.171875 
Q 30.859375 -0.59375 22.953125 -0.59375 
z
" id="CrimsonText-Regular-54"></path>
</defs>
<g transform="translate(79.600062 133.605853)scale(0.2 -0.2)">
<use xlink:href="#CrimsonText-Regular-54"></use>
</g>
</g>
</g>
<g id="text_18">
<g clip-path="url(#p292ee35719)">
<!-- 6 -->
<g transform="translate(79.600062 133.605853)scale(0.2 -0.2)">
<use xlink:href="#CrimsonText-Regular-54"></use>
</g>
</g>
</g>
<g id="PolyCollection_11">
<path clip-path="url(#p292ee35719)" d="M 78.911352 110.246123 
L 78.911352 94.858512 
L 89.402905 94.858512 
L 89.402905 110.246123 
z
" style="fill:#ffffff;"></path>
</g>
<g id="text_19">
<g clip-path="url(#p292ee35719)">
<!-- 7 -->
<defs>
<path d="M 12.984375 54 
Q 11.328125 54 10 52.625 
Q 8.6875 51.265625 8.09375 49.890625 
Q 7.515625 48.53125 6.84375 46.296875 
Q 6.734375 45.90625 5.46875 45.796875 
Q 4.203125 45.703125 3.515625 46 
Q 3.71875 46.875 4.9375 52.484375 
Q 6.15625 58.109375 6.546875 60.640625 
Q 6.640625 61.8125 8.109375 61.8125 
L 36.328125 61.8125 
Q 37.890625 61.8125 40.328125 61.953125 
Q 42.78125 62.109375 42.875 62.109375 
Q 43.5625 62.109375 43.5625 61.234375 
Q 43.5625 60.640625 43.171875 59.71875 
Q 42.78125 58.796875 41.9375 57.125 
Q 41.109375 55.46875 40.71875 54.6875 
L 15.046875 -0.296875 
Q 14.75 -0.59375 13.96875 -0.59375 
Q 12.890625 -0.59375 11.71875 0.4375 
Q 10.546875 1.46875 10.546875 2.15625 
L 36.53125 54 
z
" id="CrimsonText-Regular-55"></path>
</defs>
<g transform="translate(79.618812 108.171785)scale(0.2 -0.2)">
<use xlink:href="#CrimsonText-Regular-55"></use>
</g>
</g>
</g>
<g id="text_20">
<g clip-path="url(#p292ee35719)">
<!-- 7 -->
<g transform="translate(79.618812 108.171785)scale(0.2 -0.2)">
<use xlink:href="#CrimsonText-Regular-55"></use>
</g>
</g>
</g>
<g id="PolyCollection_12">
<path clip-path="url(#p292ee35719)" d="M 78.911352 84.812056 
L 78.911352 69.424445 
L 89.402905 69.424445 
L 89.402905 84.812056 
z
" style="fill:#ffffff;"></path>
</g>
<g id="text_21">
<g clip-path="url(#p292ee35719)">
<!-- 8 -->
<defs>
<path d="M 23.53125 2.640625 
Q 28.421875 2.640625 31.25 5.5625 
Q 34.078125 8.5 34.078125 13.484375 
Q 34.078125 16.3125 32.421875 19.09375 
Q 30.765625 21.875 28.21875 24.015625 
Q 25.6875 26.171875 24.265625 27.140625 
Q 22.859375 28.125 21.578125 28.8125 
Q 21.1875 29 21 29 
Q 20.703125 29 20.609375 28.90625 
Q 16.5 26.375 14.6875 23.1875 
Q 12.890625 20.015625 12.890625 15.328125 
Q 12.890625 9.671875 16.109375 6.15625 
Q 19.34375 2.640625 23.53125 2.640625 
z
M 23.53125 59.375 
Q 19.921875 59.375 17.53125 56.25 
Q 15.140625 53.125 15.140625 48.046875 
Q 15.140625 41.40625 25.296875 35.546875 
Q 25.6875 35.359375 25.875 35.359375 
Q 26.171875 35.359375 26.46875 35.546875 
Q 33.109375 39.9375 33.109375 47.46875 
Q 33.109375 52.046875 30.421875 55.703125 
Q 27.734375 59.375 23.53125 59.375 
z
M 24.125 62.796875 
Q 30.859375 62.796875 35.5 58.734375 
Q 40.140625 54.6875 40.140625 47.953125 
Q 40.140625 40.53125 29.203125 33.59375 
Q 28.515625 33.40625 29.203125 33.015625 
Q 34.28125 30.078125 38.140625 25.625 
Q 42 21.1875 42 16.3125 
Q 42 9.078125 36.375 4.09375 
Q 30.765625 -0.875 23.34375 -0.875 
Q 15.234375 -0.875 10.203125 3.515625 
Q 5.171875 7.90625 5.171875 15.046875 
Q 5.171875 16.3125 5.46875 17.53125 
Q 5.765625 18.75 6.109375 19.71875 
Q 6.453125 20.703125 7.234375 21.828125 
Q 8.015625 22.953125 8.546875 23.6875 
Q 9.078125 24.421875 10.15625 25.390625 
Q 11.234375 26.375 11.71875 26.8125 
Q 12.203125 27.25 13.46875 28.125 
Q 14.75 29 15.09375 29.25 
Q 15.4375 29.5 16.609375 30.28125 
L 17.875 31.0625 
Q 18.359375 31.34375 17.875 31.640625 
Q 14.0625 33.890625 10.984375 37.9375 
Q 7.90625 42 7.90625 46.875 
Q 7.90625 53.125 12.78125 57.953125 
Q 17.671875 62.796875 24.125 62.796875 
z
" id="CrimsonText-Regular-56"></path>
</defs>
<g transform="translate(79.600062 82.737718)scale(0.2 -0.2)">
<use xlink:href="#CrimsonText-Regular-56"></use>
</g>
</g>
</g>
<g id="text_22">
<g clip-path="url(#p292ee35719)">
<!-- 8 -->
<g transform="translate(79.600062 82.737718)scale(0.2 -0.2)">
<use xlink:href="#CrimsonText-Regular-56"></use>
</g>
</g>
</g>
<g id="PolyCollection_13">
<path clip-path="url(#p292ee35719)" d="M 78.911352 59.377989 
L 78.911352 43.990378 
L 89.402905 43.990378 
L 89.402905 59.377989 
z
" style="fill:#ffffff;"></path>
</g>
<g id="text_23">
<g clip-path="url(#p292ee35719)">
<!-- 9 -->
<defs>
<path d="M 34.46875 42.09375 
Q 34.46875 49.03125 31.203125 54.203125 
Q 27.9375 59.375 22.75 59.375 
Q 18.5625 59.375 15.53125 55.46875 
Q 12.5 51.5625 12.5 45.21875 
Q 12.5 38.875 15.71875 34.625 
Q 18.953125 30.375 24.90625 30.375 
Q 27.546875 30.375 29.984375 31.78125 
Q 32.421875 33.203125 33.109375 34.765625 
Q 34.375 37.703125 34.46875 42.09375 
z
M 24.3125 63.1875 
Q 32.328125 63.1875 37.59375 56.890625 
Q 42.875 50.59375 42.875 42.28125 
Q 42.875 34.671875 39.75 27.390625 
Q 36.625 20.125 31.6875 14.703125 
Q 26.765625 9.28125 21.234375 5.328125 
Q 15.71875 1.375 10.25 -0.59375 
Q 9.671875 -0.59375 8.890625 0.578125 
Q 8.109375 1.765625 8.109375 2.25 
Q 15.625 5.171875 22.5625 11.859375 
Q 29.5 18.5625 32.125 28.21875 
Q 32.328125 29.203125 32.03125 29.203125 
Q 31.84375 29.109375 31.734375 29 
Q 30.671875 27.734375 27.25 26.65625 
Q 23.828125 25.59375 21.1875 25.59375 
Q 14.15625 25.59375 9.265625 30.859375 
Q 4.390625 36.140625 4.390625 43.453125 
Q 4.390625 51.5625 10.390625 57.375 
Q 16.40625 63.1875 24.3125 63.1875 
z
" id="CrimsonText-Regular-57"></path>
</defs>
<g transform="translate(79.600062 57.303651)scale(0.2 -0.2)">
<use xlink:href="#CrimsonText-Regular-57"></use>
</g>
</g>
</g>
<g id="text_24">
<g clip-path="url(#p292ee35719)">
<!-- 9 -->
<g transform="translate(79.600062 57.303651)scale(0.2 -0.2)">
<use xlink:href="#CrimsonText-Regular-57"></use>
</g>
</g>
</g>
<g id="PolyCollection_14">
<path clip-path="url(#p292ee35719)" d="M 23.496879 291.08234 
L 23.496879 296.677835 
L 67.116304 296.677835 
L 67.116304 291.08234 
z
" style="fill:#ffffff;"></path>
</g>
<g id="PolyCollection_15">
<path clip-path="url(#p292ee35719)" d="M 41.682237 300.175019 
L 41.682237 284.787409 
L 52.173789 284.787409 
L 52.173789 300.175019 
z
" style="fill:#ffffff;"></path>
</g>
<g id="text_25">
<g clip-path="url(#p292ee35719)">
<!-- – -->
<g transform="translate(32.28508 298.4504)scale(0.2 -0.2)">
<use xlink:href="#CrimsonText-Regular-8211"></use>
</g>
</g>
</g>
<g id="text_26">
<g clip-path="url(#p292ee35719)">
<!-- 2 -->
<g transform="translate(42.021227 298.4504)scale(0.2 -0.2)">
<use xlink:href="#CrimsonText-Regular-50"></use>
</g>
</g>
</g>
<g id="text_27">
<g clip-path="url(#p292ee35719)">
<!-- 2 -->
<g transform="translate(42.021227 298.4504)scale(0.2 -0.2)">
<use xlink:href="#CrimsonText-Regular-50"></use>
</g>
</g>
</g>
<g id="PolyCollection_16">
<path clip-path="url(#p292ee35719)" d="M 67.116304 300.175019 
L 67.116304 284.787409 
L 77.607856 284.787409 
L 77.607856 300.175019 
z
" style="fill:#ffffff;"></path>
</g>
<g id="text_28">
<g clip-path="url(#p292ee35719)">
<!-- – -->
<g transform="translate(57.719147 298.4504)scale(0.2 -0.2)">
<use xlink:href="#CrimsonText-Regular-8211"></use>
</g>
</g>
</g>
<g id="text_29">
<g clip-path="url(#p292ee35719)">
<!-- 1 -->
<g transform="translate(67.455295 298.4504)scale(0.2 -0.2)">
<use xlink:href="#CrimsonText-Regular-49"></use>
</g>
</g>
</g>
<g id="text_30">
<g clip-path="url(#p292ee35719)">
<!-- 1 -->
<g transform="translate(67.455295 298.4504)scale(0.2 -0.2)">
<use xlink:href="#CrimsonText-Regular-49"></use>
</g>
</g>
</g>
<g id="PolyCollection_17">
<path clip-path="url(#p292ee35719)" d="M 117.984438 300.175019 
L 117.984438 284.787409 
L 128.475991 284.787409 
L 128.475991 300.175019 
z
" style="fill:#ffffff;"></path>
</g>
<g id="text_31">
<g clip-path="url(#p292ee35719)">
<!-- 1 -->
<g transform="translate(118.323429 298.4504)scale(0.2 -0.2)">
<use xlink:href="#CrimsonText-Regular-49"></use>
</g>
</g>
</g>
<g id="text_32">
<g clip-path="url(#p292ee35719)">
<!-- 1 -->
<g transform="translate(118.323429 298.4504)scale(0.2 -0.2)">
<use xlink:href="#CrimsonText-Regular-49"></use>
</g>
</g>
</g>
<g id="PolyCollection_18">
<path clip-path="url(#p292ee35719)" d="M 143.418505 300.175019 
L 143.418505 284.787409 
L 153.910058 284.787409 
L 153.910058 300.175019 
z
" style="fill:#ffffff;"></path>
</g>
<g id="text_33">
<g clip-path="url(#p292ee35719)">
<!-- 2 -->
<g transform="translate(143.757496 298.4504)scale(0.2 -0.2)">
<use xlink:href="#CrimsonText-Regular-50"></use>
</g>
</g>
</g>
<g id="text_34">
<g clip-path="url(#p292ee35719)">
<!-- 2 -->
<g transform="translate(143.757496 298.4504)scale(0.2 -0.2)">
<use xlink:href="#CrimsonText-Regular-50"></use>
</g>
</g>
</g>
<g id="PolyCollection_19">
<path clip-path="url(#p292ee35719)" d="M 168.852572 300.175019 
L 168.852572 284.787409 
L 179.344125 284.787409 
L 179.344125 300.175019 
z
" style="fill:#ffffff;"></path>
</g>
<g id="text_35">
<g clip-path="url(#p292ee35719)">
<!-- 3 -->
<g transform="translate(169.172813 298.4504)scale(0.2 -0.2)">
<use xlink:href="#CrimsonText-Regular-51"></use>
</g>
</g>
</g>
<g id="text_36">
<g clip-path="url(#p292ee35719)">
<!-- 3 -->
<g transform="translate(169.172813 298.4504)scale(0.2 -0.2)">
<use xlink:href="#CrimsonText-Regular-51"></use>
</g>
</g>
</g>
<g id="PolyCollection_20">
<path clip-path="url(#p292ee35719)" d="M 194.286639 300.175019 
L 194.286639 284.787409 
L 204.778192 284.787409 
L 204.778192 300.175019 
z
" style="fill:#ffffff;"></path>
</g>
<g id="text_37">
<g clip-path="url(#p292ee35719)">
<!-- 4 -->
<g transform="translate(194.66313 298.4504)scale(0.2 -0.2)">
<use xlink:href="#CrimsonText-Regular-52"></use>
</g>
</g>
</g>
<g id="text_38">
<g clip-path="url(#p292ee35719)">
<!-- 4 -->
<g transform="translate(194.66313 298.4504)scale(0.2 -0.2)">
<use xlink:href="#CrimsonText-Regular-52"></use>
</g>
</g>
</g>
<g id="PolyCollection_21">
<path clip-path="url(#p292ee35719)" d="M 219.720707 300.175019 
L 219.720707 284.787409 
L 230.212259 284.787409 
L 230.212259 300.175019 
z
" style="fill:#ffffff;"></path>
</g>
<g id="text_39">
<g clip-path="url(#p292ee35719)">
<!-- 5 -->
<g transform="translate(220.040947 298.4504)scale(0.2 -0.2)">
<use xlink:href="#CrimsonText-Regular-53"></use>
</g>
</g>
</g>
<g id="text_40">
<g clip-path="url(#p292ee35719)">
<!-- 5 -->
<g transform="translate(220.040947 298.4504)scale(0.2 -0.2)">
<use xlink:href="#CrimsonText-Regular-53"></use>
</g>
</g>
</g>
<g id="PolyCollection_22">
<path clip-path="url(#p292ee35719)" d="M 245.154774 300.175019 
L 245.154774 284.787409 
L 255.646326 284.787409 
L 255.646326 300.175019 
z
" style="fill:#ffffff;"></path>
</g>
<g id="text_41">
<g clip-path="url(#p292ee35719)">
<!-- 6 -->
<g transform="translate(245.493764 298.4504)scale(0.2 -0.2)">
<use xlink:href="#CrimsonText-Regular-54"></use>
</g>
</g>
</g>
<g id="text_42">
<g clip-path="url(#p292ee35719)">
<!-- 6 -->
<g transform="translate(245.493764 298.4504)scale(0.2 -0.2)">
<use xlink:href="#CrimsonText-Regular-54"></use>
</g>
</g>
</g>
<g id="PolyCollection_23">
<path clip-path="url(#p292ee35719)" d="M 270.588841 300.175019 
L 270.588841 284.787409 
L 281.080393 284.787409 
L 281.080393 300.175019 
z
" style="fill:#ffffff;"></path>
</g>
<g id="text_43">
<g clip-path="url(#p292ee35719)">
<!-- 7 -->
<g transform="translate(270.946582 298.4504)scale(0.2 -0.2)">
<use xlink:href="#CrimsonText-Regular-55"></use>
</g>
</g>
</g>
<g id="text_44">
<g clip-path="url(#p292ee35719)">
<!-- 7 -->
<g transform="translate(270.946582 298.4504)scale(0.2 -0.2)">
<use xlink:href="#CrimsonText-Regular-55"></use>
</g>
</g>
</g>
<g id="PolyCollection_24">
<path clip-path="url(#p292ee35719)" d="M 296.022908 300.175019 
L 296.022908 284.787409 
L 306.514461 284.787409 
L 306.514461 300.175019 
z
" style="fill:#ffffff;"></path>
</g>
<g id="text_45">
<g clip-path="url(#p292ee35719)">
<!-- 8 -->
<g transform="translate(296.361899 298.4504)scale(0.2 -0.2)">
<use xlink:href="#CrimsonText-Regular-56"></use>
</g>
</g>
</g>
<g id="text_46">
<g clip-path="url(#p292ee35719)">
<!-- 8 -->
<g transform="translate(296.361899 298.4504)scale(0.2 -0.2)">
<use xlink:href="#CrimsonText-Regular-56"></use>
</g>
</g>
</g>
<g id="PolyCollection_25">
<path clip-path="url(#p292ee35719)" d="M 321.456975 300.175019 
L 321.456975 284.787409 
L 331.948528 284.787409 
L 331.948528 300.175019 
z
" style="fill:#ffffff;"></path>
</g>
<g id="text_47">
<g clip-path="url(#p292ee35719)">
<!-- 9 -->
<g transform="translate(321.795966 298.4504)scale(0.2 -0.2)">
<use xlink:href="#CrimsonText-Regular-57"></use>
</g>
</g>
</g>
<g id="text_48">
<g clip-path="url(#p292ee35719)">
<!-- 9 -->
<g transform="translate(321.795966 298.4504)scale(0.2 -0.2)">
<use xlink:href="#CrimsonText-Regular-57"></use>
</g>
</g>
</g>
<g id="text_49">
<g clip-path="url(#p292ee35719)">
<!-- O -->
<defs>
<path d="M 39.9375 61.03125 
Q 29.390625 61.03125 22.0625 50.140625 
Q 14.75 39.265625 14.75 26.078125 
Q 14.75 16.109375 19.09375 9.65625 
Q 23.4375 3.21875 31.453125 3.21875 
Q 41.609375 3.21875 49.03125 14.296875 
Q 56.453125 25.390625 56.453125 38.578125 
Q 56.453125 48.34375 52.15625 54.6875 
Q 47.859375 61.03125 39.9375 61.03125 
z
M 42.1875 65.140625 
Q 52.046875 65.140625 58.734375 57.765625 
Q 65.4375 50.390625 65.4375 39.9375 
Q 65.4375 29.390625 60.40625 19.921875 
Q 55.375 10.453125 46.875 4.734375 
Q 38.375 -0.984375 28.90625 -0.984375 
Q 18.453125 -0.984375 12.15625 6.484375 
Q 5.859375 13.96875 5.859375 25.296875 
Q 5.859375 35.453125 11.234375 44.78125 
Q 16.609375 54.109375 25 59.625 
Q 33.40625 65.140625 42.1875 65.140625 
z
" id="CrimsonText-Italic-79"></path>
</defs>
<g transform="translate(83.309155 293.727498)scale(0.2 -0.2)">
<use xlink:href="#CrimsonText-Italic-79"></use>
</g>
</g>
</g>
<g id="text_50">
<g clip-path="url(#p292ee35719)">
<!-- y -->
<defs>
<path d="M 21.09375 42.484375 
Q 24.03125 42.484375 25.921875 37.5 
Q 27.828125 32.515625 28.515625 24.453125 
Q 29.203125 16.40625 29.390625 11.859375 
Q 29.59375 7.328125 29.59375 2.734375 
Q 33.40625 7.421875 37.203125 14.6875 
Q 41.015625 21.96875 41.015625 27.828125 
Q 41.015625 33.59375 38.578125 38.28125 
Q 39.84375 42.484375 43.453125 42.484375 
Q 47.75 42.484375 47.75 34.765625 
Q 47.75 24.03125 39.34375 10.109375 
Q 30.953125 -3.8125 20.359375 -13.28125 
Q 9.765625 -22.75 3.21875 -22.75 
Q 0.6875 -22.75 -0.96875 -21.578125 
Q -2.640625 -20.40625 -2.640625 -18.75 
Q -2.640625 -15.625 -0.390625 -14.453125 
Q 1.765625 -15.71875 6.15625 -15.71875 
Q 14.265625 -15.71875 20.21875 -7.03125 
Q 22.46875 -3.71875 22.46875 6.0625 
Q 22.46875 10.84375 22.21875 15.578125 
Q 21.96875 20.3125 21.328125 25.296875 
Q 20.703125 30.28125 19.484375 33.34375 
Q 18.265625 36.421875 16.609375 36.421875 
Q 15.71875 36.421875 13.953125 34.765625 
Q 12.203125 33.109375 11.234375 31.84375 
Q 11.03125 31.84375 10.5 32.765625 
Q 9.96875 33.6875 9.96875 34.078125 
Q 10.546875 35.546875 14.59375 39.015625 
Q 18.65625 42.484375 21.09375 42.484375 
z
" id="CrimsonText-Italic-121"></path>
</defs>
<g transform="translate(94.167177 27.401023)scale(0.2 -0.2)">
<use xlink:href="#CrimsonText-Italic-121"></use>
</g>
</g>
</g>
<g id="text_51">
<g clip-path="url(#p292ee35719)">
<!-- x -->
<defs>
<path d="M 20.3125 42.484375 
Q 24.421875 42.484375 26.953125 33.984375 
L 29 27.046875 
L 34.765625 36.921875 
Q 37.984375 42.484375 42.96875 42.484375 
Q 46.296875 42.484375 48.640625 40.53125 
Q 49.421875 38.96875 49.421875 37.984375 
Q 49.421875 36.53125 48.390625 35.5 
Q 47.359375 34.46875 46.296875 34.46875 
Q 45.015625 34.46875 43.40625 35.984375 
Q 41.796875 37.5 40.4375 37.5 
Q 39.265625 37.5 37.796875 34.96875 
L 30.46875 22.46875 
L 34.671875 8.6875 
Q 35.640625 5.375 37.3125 5.375 
Q 38.765625 5.375 40.421875 6.890625 
Q 42.09375 8.40625 42.78125 9.671875 
Q 43.171875 9.671875 43.75 8.890625 
Q 44.34375 8.109375 44.34375 7.71875 
Q 44.046875 6.0625 40.71875 2.78125 
Q 37.40625 -0.484375 34.375 -0.484375 
Q 30.28125 -0.484375 27.734375 8.015625 
L 25.484375 15.625 
L 19.34375 4.984375 
Q 16.109375 -0.59375 11.140625 -0.59375 
Q 7.8125 -0.59375 5.46875 1.375 
Q 4.6875 2.734375 4.6875 3.90625 
Q 4.6875 5.375 5.703125 6.390625 
Q 6.734375 7.421875 7.8125 7.421875 
Q 9.078125 7.421875 10.6875 5.90625 
Q 12.3125 4.390625 13.671875 4.390625 
Q 14.84375 4.390625 16.3125 6.9375 
L 24.03125 20.21875 
L 20.015625 33.296875 
Q 19.046875 36.625 17.390625 36.625 
Q 15.921875 36.625 14.25 35.109375 
Q 12.59375 33.59375 11.921875 32.328125 
Q 11.53125 32.328125 10.9375 33.109375 
Q 10.359375 33.890625 10.359375 34.28125 
Q 10.640625 35.9375 13.953125 39.203125 
Q 17.28125 42.484375 20.3125 42.484375 
z
" id="CrimsonText-Italic-120"></path>
</defs>
<g transform="translate(344.786011 284.285101)scale(0.2 -0.2)">
<use xlink:href="#CrimsonText-Italic-120"></use>
</g>
</g>
</g>
<g id="line2d_1">
<defs>
<path d="M 0 3 
C 0.795609 3 1.55874 2.683901 2.12132 2.12132 
C 2.683901 1.55874 3 0.795609 3 0 
C 3 -0.795609 2.683901 -1.55874 2.12132 -2.12132 
C 1.55874 -2.683901 0.795609 -3 0 -3 
C -0.795609 -3 -1.55874 -2.683901 -2.12132 -2.12132 
C -2.683901 -1.55874 -3 -0.795609 -3 0 
C -3 0.795609 -2.683901 1.55874 -2.12132 2.12132 
C -1.55874 2.683901 -0.795609 3 0 3 
z
" id="mabb0945c58" style="stroke:#000000;"></path>
</defs>
<g clip-path="url(#p292ee35719)">
<use style="stroke:#000000;" x="149.713437" xlink:href="#mabb0945c58" y="178.155082"></use>
</g>
</g>
<g id="line2d_2">
<path clip-path="url(#p292ee35719)" d="M 47.977168 201.99952 
L 60.872597 201.330118 
L 71.525343 200.569163 
L 81.056746 199.673392 
L 89.466809 198.664733 
L 96.755529 197.582644 
L 103.483579 196.373871 
L 109.650958 195.053269 
L 115.257666 193.644084 
L 120.864375 192.002257 
L 125.910412 190.294088 
L 130.956449 188.334096 
L 135.441816 186.350581 
L 139.927182 184.109163 
L 143.851878 181.910104 
L 147.776574 179.462796 
L 151.70127 176.739216 
L 155.625965 173.708177 
L 158.98999 170.839224 
L 162.354015 167.694814 
L 165.71804 164.248502 
L 169.082065 160.4713 
L 172.44609 156.331438 
L 175.810115 151.794097 
L 179.17414 146.821114 
L 181.977494 142.314121 
L 184.780848 137.449303 
L 187.584202 132.198252 
L 190.387556 126.530304 
L 193.19091 120.412359 
L 195.994264 113.808691 
L 198.797618 106.680738 
L 201.600972 98.986873 
L 204.404327 90.682169 
L 207.207681 81.718127 
L 210.011035 72.042403 
L 212.814389 61.598492 
L 215.617743 50.325406 
L 216.739085 45.569428 
L 216.739085 45.569428 
" style="fill:none;stroke:#000000;stroke-linecap:square;stroke-width:2.3;"></path>
</g>
<g id="line2d_3">
<path clip-path="url(#p292ee35719)" d="M 47.977168 248.67329 
L 327.751907 54.748219 
L 327.751907 54.748219 
" style="fill:none;stroke:#000000;stroke-linecap:square;stroke-width:2.3;"></path>
</g>
</g>
</g>
<defs>
<clipPath id="p292ee35719">
<rect height="347.76" width="358.531327" x="7.2" y="7.2"></rect>
</clipPath>
</defs>
</svg>