<svg aria-label="Graph of a parabola in the x y plane with the origin labeled O. The x axis is labeled Time, in seconds. It ranges from 0 to 3 in increments of 1. The y axis is labeled Height above ground, in meters. It ranges from 0 to 7 in increments of 1. Refer to long description." height="374.051875px" role="img" version="1.1" viewBox="0 0 400.3425 374.051875" width="400.3425px" xmlns="http://www.w3.org/2000/svg" xmlns:xlink="http://www.w3.org/1999/xlink">
<defs>
<style type="text/css">
*{stroke-linecap:butt;stroke-linejoin:round;}
  </style>
</defs>
<g id="figure_1">
<g id="patch_1">
<path d="M 0 374.051875 
L 400.3425 374.051875 
L 400.3425 0 
L 0 0 
z
" style="fill:none;"></path>
</g>
<g id="axes_1">
<g id="patch_2">
<path d="M 30.2625 344.88 
L 393.1425 344.88 
L 393.1425 12.24 
L 30.2625 12.24 
z
" style="fill:none;"></path>
</g>
<g id="matplotlib.axis_1">
<g id="text_1">
<!-- Time (seconds) -->
<defs>
<path d="M 15.046875 64.453125 
Q 28.421875 64.0625 32.71875 64.0625 
Q 37.015625 64.0625 43.75 64.25 
Q 50.484375 64.453125 54.203125 64.453125 
Q 56.640625 64.453125 60.9375 65.53125 
L 62.796875 51.5625 
Q 62.109375 50.875 60.453125 50.875 
Q 59.578125 50.875 59.46875 51.375 
Q 58.109375 56.84375 56.109375 58.453125 
Q 54.109375 60.0625 48.53125 60.0625 
Q 38.1875 60.0625 37.796875 58.59375 
Q 36.921875 55.46875 36.921875 48.828125 
L 36.921875 13.578125 
Q 36.921875 7.90625 37.796875 4.5 
Q 37.984375 3.8125 40.515625 3.171875 
Q 43.0625 2.546875 44.046875 2.546875 
Q 44.4375 2.546875 44.4375 1.078125 
Q 44.4375 0.296875 44.234375 -0.296875 
Q 34.46875 0.203125 32.90625 0.203125 
Q 32.421875 0.203125 21.1875 -0.296875 
Q 20.796875 0.09375 20.796875 1.171875 
Q 20.796875 2.546875 21.1875 2.546875 
Q 22.46875 2.546875 24.953125 3.125 
Q 27.4375 3.71875 27.734375 4.5 
Q 28.421875 7.125 28.421875 13.1875 
L 28.421875 48.53125 
Q 28.421875 57.03125 27.546875 58.59375 
Q 26.765625 60.0625 17 60.0625 
Q 11.421875 60.0625 9.421875 58.453125 
Q 7.421875 56.84375 6.0625 51.375 
Q 5.953125 50.875 5.078125 50.875 
Q 3.421875 50.875 2.734375 51.5625 
L 4.59375 65.53125 
Q 8.890625 64.453125 11.328125 64.453125 
Q 15.046875 64.453125 28.421875 64.0625 
z
" id="CrimsonText-Regular-84"></path>
<path d="M 11.140625 53.03125 
Q 8.296875 55.859375 8.296875 57.90625 
Q 8.296875 59.96875 9.71875 61.375 
Q 11.140625 62.796875 13.1875 62.796875 
Q 15.234375 62.796875 16.640625 61.375 
Q 18.0625 59.96875 18.0625 57.90625 
Q 18.0625 55.859375 16.640625 54.4375 
Q 15.234375 53.03125 13.1875 53.03125 
Q 11.140625 53.03125 8.296875 55.859375 
z
M 17.671875 13.1875 
Q 17.671875 7.515625 18.453125 4.5 
Q 18.65625 3.8125 21 3.171875 
Q 23.34375 2.546875 24.3125 2.546875 
Q 24.609375 2.546875 24.703125 1.375 
Q 24.8125 0.203125 24.609375 -0.296875 
Q 14.84375 0.203125 14.15625 0.203125 
Q 13.484375 0.203125 3.515625 -0.296875 
Q 3.125 0.09375 3.125 1.3125 
Q 3.125 2.546875 3.515625 2.546875 
Q 4.6875 2.546875 6.984375 3.171875 
Q 9.28125 3.8125 9.46875 4.5 
Q 10.15625 7.328125 10.15625 11.328125 
L 10.15625 29.78125 
Q 10.15625 33.59375 8.796875 35.0625 
Q 7.8125 36.234375 6.390625 36.671875 
Q 4.984375 37.109375 4.046875 37.109375 
Q 3.125 37.109375 3.125 37.3125 
Q 3.125 39.65625 3.71875 39.75 
Q 14.0625 41.3125 17.1875 42.28125 
L 17.390625 42.390625 
Q 17.578125 42.390625 17.671875 42.390625 
Q 18.0625 42.390625 18.15625 41.546875 
Q 18.265625 40.71875 18.171875 40.328125 
Q 17.671875 36.421875 17.671875 33.296875 
z
" id="CrimsonText-Regular-105"></path>
<path d="M 31.25 42.78125 
Q 35.15625 42.78125 37.734375 40.671875 
Q 40.328125 38.578125 41.3125 35.84375 
Q 48.640625 42.78125 56.453125 42.78125 
Q 68.75 42.78125 68.75 24.03125 
L 68.75 13.1875 
Q 68.75 7.515625 69.53125 4.5 
Q 69.734375 3.8125 72.078125 3.171875 
Q 74.421875 2.546875 75.390625 2.546875 
Q 75.6875 2.546875 75.78125 1.375 
Q 75.875 0.203125 75.6875 -0.296875 
Q 65.921875 0.203125 65.234375 0.203125 
Q 64.65625 0.203125 54.59375 -0.296875 
Q 54.203125 0.09375 54.203125 1.3125 
Q 54.203125 2.546875 54.59375 2.546875 
Q 55.765625 2.546875 58.0625 3.171875 
Q 60.359375 3.8125 60.546875 4.5 
Q 61.234375 7.328125 61.234375 10.75 
L 61.234375 21.78125 
Q 61.234375 36.8125 51.375 36.8125 
Q 47.75 36.8125 45.109375 34.71875 
Q 42.484375 32.625 42.484375 31.25 
L 42.578125 30.859375 
Q 42.578125 30.46875 42.578125 30.375 
Q 42.96875 27.9375 42.96875 23.34375 
L 42.96875 12.3125 
Q 42.96875 7.515625 43.75 4.5 
Q 43.953125 3.8125 46.296875 3.171875 
Q 48.640625 2.546875 49.609375 2.546875 
Q 49.90625 2.546875 50 1.375 
Q 50.09375 0.203125 49.90625 -0.296875 
Q 40.140625 0.203125 39.453125 0.203125 
Q 38.875 0.203125 28.8125 -0.296875 
Q 28.421875 0.09375 28.421875 1.3125 
Q 28.421875 2.546875 28.8125 2.546875 
Q 29.984375 2.546875 32.28125 3.171875 
Q 34.578125 3.8125 34.765625 4.5 
Q 35.453125 7.328125 35.453125 11.328125 
L 35.453125 21.296875 
Q 35.453125 36.8125 26.078125 36.8125 
Q 23.140625 36.8125 20.15625 34.609375 
Q 17.1875 32.421875 17.1875 30.375 
L 17.1875 13.1875 
Q 17.1875 7.515625 17.96875 4.5 
Q 18.171875 3.8125 20.515625 3.171875 
Q 22.859375 2.546875 23.828125 2.546875 
Q 24.125 2.546875 24.21875 1.375 
Q 24.3125 0.203125 24.125 -0.296875 
Q 14.359375 0.203125 13.671875 0.203125 
Q 13.09375 0.203125 3.03125 -0.296875 
Q 2.640625 0.09375 2.640625 1.3125 
Q 2.640625 2.546875 3.03125 2.546875 
Q 4.203125 2.546875 6.5 3.171875 
Q 8.796875 3.8125 8.984375 4.5 
Q 9.671875 7.328125 9.671875 11.328125 
L 9.671875 29.78125 
Q 9.671875 33.59375 8.296875 35.0625 
Q 7.328125 36.234375 5.90625 36.671875 
Q 4.5 37.109375 3.5625 37.109375 
Q 2.640625 37.109375 2.640625 37.3125 
Q 2.640625 39.65625 3.21875 39.75 
Q 13.578125 41.3125 16.703125 42.28125 
Q 16.796875 42.28125 16.984375 42.328125 
Q 17.1875 42.390625 17.1875 42.390625 
Q 17.578125 42.390625 17.671875 41.546875 
Q 17.78125 40.71875 17.671875 40.328125 
Q 17.28125 37.59375 17.28125 36.421875 
Q 17.28125 36.03125 17.484375 36.03125 
Q 17.578125 36.03125 17.78125 36.234375 
Q 20.015625 38.578125 23.875 40.671875 
Q 27.734375 42.78125 31.25 42.78125 
z
" id="CrimsonText-Regular-109"></path>
<path d="M 21.96875 38.96875 
Q 16.890625 38.96875 14.203125 34.625 
Q 11.53125 30.28125 11.53125 27.4375 
Q 11.53125 26.765625 12.109375 26.765625 
L 31.15625 26.765625 
Q 31.640625 26.765625 31.640625 27.734375 
Q 31.640625 30.859375 29 34.90625 
Q 26.375 38.96875 21.96875 38.96875 
z
M 22.953125 42.578125 
Q 27.4375 42.578125 30.859375 40.859375 
Q 34.28125 39.15625 36.078125 36.46875 
Q 37.890625 33.796875 38.71875 31 
Q 39.546875 28.21875 39.546875 25.484375 
Q 39.546875 23.53125 38.953125 23.09375 
Q 38.375 22.65625 36.71875 22.65625 
L 12.109375 22.65625 
Q 11.328125 22.65625 11.328125 22.171875 
Q 11.328125 16.015625 15.03125 10.84375 
Q 18.75 5.671875 25.78125 5.671875 
Q 27.828125 5.671875 29.6875 6.0625 
Q 31.546875 6.453125 32.859375 6.984375 
Q 34.1875 7.515625 35.109375 8.046875 
Q 36.03125 8.59375 36.71875 9.078125 
L 37.40625 9.578125 
Q 37.984375 9.578125 37.984375 8.296875 
Q 37.984375 7.515625 37.40625 6.546875 
Q 35.453125 3.8125 31.640625 1.609375 
Q 27.828125 -0.59375 23.34375 -0.59375 
Q 15.234375 -0.59375 9.421875 5.515625 
Q 3.609375 11.625 3.609375 20.40625 
Q 3.609375 30.671875 9.125 36.625 
Q 14.65625 42.578125 22.953125 42.578125 
z
" id="CrimsonText-Regular-101"></path>
<path id="CrimsonText-Regular-32"></path>
<path d="M 13.28125 29.78125 
Q 13.28125 16.015625 18.203125 4.296875 
Q 23.140625 -7.421875 26.859375 -9.28125 
Q 27.046875 -9.375 27.046875 -9.765625 
Q 27.046875 -10.359375 26.609375 -11.078125 
Q 26.171875 -11.8125 25.6875 -11.8125 
Q 23.640625 -11.8125 20.515625 -8.484375 
Q 17.390625 -5.171875 14.3125 0.140625 
Q 11.234375 5.46875 9.078125 13.515625 
Q 6.9375 21.578125 6.9375 29.78125 
Q 6.9375 38.484375 8.9375 46.78125 
Q 10.9375 55.078125 13.8125 60.640625 
Q 16.703125 66.21875 19.921875 69.625 
Q 23.140625 73.046875 25.6875 73.046875 
Q 26.171875 73.046875 26.5625 72.171875 
Q 26.953125 71.296875 26.953125 70.703125 
Q 26.953125 70.40625 26.859375 70.40625 
Q 21.96875 68.0625 17.625 56 
Q 13.28125 43.953125 13.28125 29.78125 
z
" id="CrimsonText-Regular-40"></path>
<path d="M 18.65625 42.671875 
Q 20.796875 42.671875 24.0625 42.140625 
Q 27.34375 41.609375 28.609375 41.40625 
Q 29.59375 36.921875 29.78125 31.453125 
Q 29.78125 30.953125 28.515625 30.953125 
Q 27.15625 30.953125 27.046875 31.640625 
Q 26.5625 34.375 24.265625 36.8125 
Q 21.96875 39.265625 19.046875 39.265625 
Q 12.015625 39.265625 12.015625 33.5 
Q 12.015625 32.03125 12.40625 30.90625 
Q 12.796875 29.78125 13.921875 28.75 
Q 15.046875 27.734375 15.625 27.296875 
Q 16.21875 26.859375 18.21875 25.734375 
Q 20.21875 24.609375 20.703125 24.3125 
Q 21.09375 24.125 23 23 
Q 24.90625 21.875 25.6875 21.390625 
Q 26.46875 20.90625 27.984375 19.734375 
Q 29.5 18.5625 30.171875 17.625 
Q 30.859375 16.703125 31.484375 15.28125 
Q 32.125 13.875 32.125 12.40625 
Q 32.125 6.640625 27.625 2.78125 
Q 23.140625 -1.078125 17.09375 -1.078125 
Q 15.046875 -1.078125 13.328125 -0.828125 
Q 11.625 -0.59375 9.28125 0 
Q 6.9375 0.59375 5.671875 0.78125 
Q 5.078125 2.34375 4.53125 5.65625 
Q 4 8.984375 4 10.9375 
Q 4.78125 11.53125 5.171875 11.53125 
Q 6.640625 11.53125 6.734375 10.9375 
Q 7.328125 8.015625 10.40625 5.21875 
Q 13.484375 2.4375 17.09375 2.4375 
Q 20.21875 2.4375 22.21875 4.140625 
Q 24.21875 5.859375 24.21875 9.078125 
Q 24.21875 10.75 23.578125 12.15625 
Q 22.953125 13.578125 21.53125 14.703125 
Q 20.125 15.828125 18.890625 16.546875 
Q 17.671875 17.28125 15.421875 18.453125 
Q 13.1875 19.625 12.109375 20.3125 
Q 4.5 24.703125 4.5 30.765625 
Q 4.5 36.03125 8.734375 39.34375 
Q 12.984375 42.671875 18.65625 42.671875 
z
" id="CrimsonText-Regular-115"></path>
<path d="M 22.5625 42.578125 
Q 33.296875 42.578125 37.40625 37.59375 
Q 37.40625 31.0625 33.796875 31.0625 
Q 32.125 31.0625 31.25 31.78125 
Q 30.375 32.515625 29 34.46875 
Q 25.984375 38.96875 21.78125 38.96875 
Q 17.78125 38.96875 14.5 35.15625 
Q 11.234375 31.34375 11.234375 23.828125 
Q 11.234375 16.015625 15.09375 10.84375 
Q 18.953125 5.671875 25.78125 5.671875 
Q 27.828125 5.671875 29.6875 6.0625 
Q 31.546875 6.453125 32.859375 6.984375 
Q 34.1875 7.515625 35.109375 8.046875 
Q 36.03125 8.59375 36.71875 9.078125 
L 37.40625 9.578125 
Q 37.984375 9.578125 37.984375 8.296875 
Q 37.984375 7.515625 37.40625 6.546875 
Q 35.453125 3.8125 31.640625 1.609375 
Q 27.828125 -0.59375 23.34375 -0.59375 
Q 15.234375 -0.59375 9.421875 5.515625 
Q 3.609375 11.625 3.609375 20.40625 
Q 3.609375 29.390625 8.484375 35.984375 
Q 13.375 42.578125 22.5625 42.578125 
z
" id="CrimsonText-Regular-99"></path>
<path d="M 23.734375 38.875 
Q 18.5625 38.875 15.28125 34.125 
Q 12.015625 29.390625 12.015625 22.5625 
Q 12.015625 14.546875 16.15625 8.828125 
Q 20.3125 3.125 25.875 3.125 
Q 31.0625 3.125 34.375 8 
Q 37.703125 12.890625 37.703125 19.734375 
Q 37.703125 27.640625 33.5 33.25 
Q 29.296875 38.875 23.734375 38.875 
z
M 24.8125 42.671875 
Q 33.59375 42.671875 39.84375 36.328125 
Q 46.09375 29.984375 46.09375 21.09375 
Q 46.09375 12.109375 39.984375 5.703125 
Q 33.890625 -0.6875 25 -0.6875 
Q 16.109375 -0.6875 9.859375 5.703125 
Q 3.609375 12.109375 3.609375 21.09375 
Q 3.609375 30.171875 9.65625 36.421875 
Q 15.71875 42.671875 24.8125 42.671875 
z
" id="CrimsonText-Regular-111"></path>
<path d="M 31.453125 42.78125 
Q 38.28125 42.78125 41.015625 37.890625 
Q 43.75 33.015625 43.75 22.078125 
L 43.75 13.1875 
Q 43.75 7.515625 44.53125 4.5 
Q 44.734375 3.8125 47.078125 3.171875 
Q 49.421875 2.546875 50.390625 2.546875 
Q 50.6875 2.546875 50.78125 1.375 
Q 50.875 0.203125 50.6875 -0.296875 
Q 40.921875 0.203125 40.234375 0.203125 
Q 40.046875 0.203125 29.984375 -0.296875 
Q 29.59375 0.09375 29.59375 1.3125 
Q 29.59375 2.546875 29.984375 2.546875 
Q 31.15625 2.546875 33.25 3.171875 
Q 35.359375 3.8125 35.546875 4.5 
Q 36.234375 7.328125 36.234375 11.328125 
L 36.234375 21.09375 
Q 36.234375 30.171875 33.890625 33.484375 
Q 31.546875 36.8125 26.265625 36.8125 
Q 23.140625 36.8125 20.265625 34.515625 
Q 17.390625 32.234375 17.390625 30.375 
L 17.390625 13.1875 
Q 17.390625 7.515625 18.171875 4.5 
Q 18.359375 3.8125 20.703125 3.171875 
Q 23.046875 2.546875 24.03125 2.546875 
Q 24.3125 2.546875 24.40625 1.375 
Q 24.515625 0.203125 24.3125 -0.296875 
Q 14.546875 0.203125 13.875 0.203125 
Q 13.28125 0.203125 3.21875 -0.296875 
Q 2.828125 0.09375 2.828125 1.3125 
Q 2.828125 2.546875 3.21875 2.546875 
Q 4.390625 2.546875 6.6875 3.171875 
Q 8.984375 3.8125 9.1875 4.5 
Q 9.859375 7.328125 9.859375 11.328125 
L 9.859375 29.78125 
Q 9.859375 33.59375 8.5 35.0625 
Q 7.515625 36.234375 6.09375 36.671875 
Q 4.6875 37.109375 3.75 37.109375 
Q 2.828125 37.109375 2.828125 37.3125 
Q 2.828125 39.65625 3.421875 39.75 
Q 13.765625 41.3125 16.890625 42.28125 
Q 17 42.28125 17.1875 42.328125 
Q 17.390625 42.390625 17.390625 42.390625 
Q 17.78125 42.390625 17.875 41.546875 
Q 17.96875 40.71875 17.875 40.328125 
Q 17.484375 37.59375 17.484375 36.421875 
Q 17.484375 36.03125 17.671875 36.03125 
Q 17.78125 36.03125 17.96875 36.234375 
Q 20.21875 38.578125 24.078125 40.671875 
Q 27.9375 42.78125 31.453125 42.78125 
z
" id="CrimsonText-Regular-110"></path>
<path d="M 24.21875 38.875 
Q 18.5625 38.875 15.328125 33.796875 
Q 12.109375 28.71875 12.109375 21.96875 
Q 12.109375 14.84375 15.921875 9.609375 
Q 19.734375 4.390625 26.46875 4.390625 
Q 29.78125 4.390625 31.640625 5.90625 
Q 33.5 7.421875 33.5 9.96875 
L 33.5 33.203125 
Q 33.5 35.25 31.296875 37.0625 
Q 29.109375 38.875 24.21875 38.875 
z
M 25.484375 42.96875 
Q 29.6875 42.96875 32.8125 41.3125 
Q 33.5 41.3125 33.5 43.0625 
L 33.5 53.609375 
Q 33.5 56.9375 32.90625 59.859375 
Q 32.421875 61.421875 27.9375 61.421875 
L 27.046875 61.421875 
Q 26.46875 61.421875 26.46875 62.5 
Q 26.46875 64.0625 27.046875 64.0625 
Q 29.984375 64.359375 32.46875 64.84375 
Q 34.96875 65.328125 36.375 65.8125 
Q 37.796875 66.3125 38.765625 66.75 
Q 39.75 67.1875 40.234375 67.484375 
L 40.625 67.78125 
L 40.828125 67.78125 
Q 41.21875 67.78125 41.609375 67.234375 
Q 42 66.703125 42.09375 66.21875 
Q 41.015625 63.09375 41.015625 57.71875 
L 41.015625 13.765625 
Q 41.015625 9.078125 41.609375 6.34375 
Q 41.796875 5.671875 42.671875 5.28125 
Q 43.5625 4.890625 44.484375 4.78125 
Q 45.40625 4.6875 46.296875 4.6875 
L 47.171875 4.59375 
Q 47.46875 4.5 47.46875 3.421875 
Q 47.46875 1.953125 46.875 1.953125 
Q 45.40625 1.859375 43.59375 1.5625 
Q 41.796875 1.265625 40.1875 0.921875 
Q 38.578125 0.59375 37.203125 0.25 
Q 35.84375 -0.09375 34.96875 -0.390625 
L 34.078125 -0.59375 
Q 33.5 -0.59375 33.5 1.078125 
L 33.5 2.25 
Q 33.5 2.828125 33.109375 2.640625 
Q 27.640625 -0.390625 22.75 -0.390625 
Q 14.65625 -0.390625 9.1875 5.375 
Q 3.71875 11.140625 3.71875 19.140625 
Q 3.71875 28.609375 10.40625 35.78125 
Q 17.09375 42.96875 25.484375 42.96875 
z
" id="CrimsonText-Regular-100"></path>
<path d="M 18.171875 29.78125 
Q 18.171875 43.953125 13.8125 56 
Q 9.46875 68.0625 4.59375 70.40625 
Q 4.5 70.40625 4.5 70.703125 
Q 4.5 71.296875 4.890625 72.171875 
Q 5.28125 73.046875 5.765625 73.046875 
Q 8.296875 73.046875 11.515625 69.625 
Q 14.75 66.21875 17.625 60.640625 
Q 20.515625 55.078125 22.515625 46.78125 
Q 24.515625 38.484375 24.515625 29.78125 
Q 24.515625 21.578125 22.359375 13.515625 
Q 20.21875 5.46875 17.140625 0.140625 
Q 14.0625 -5.171875 10.9375 -8.484375 
Q 7.8125 -11.8125 5.765625 -11.8125 
Q 5.28125 -11.8125 4.828125 -11.078125 
Q 4.390625 -10.359375 4.390625 -9.765625 
Q 4.390625 -9.375 4.59375 -9.28125 
Q 8.296875 -7.421875 13.234375 4.296875 
Q 18.171875 16.015625 18.171875 29.78125 
z
" id="CrimsonText-Regular-41"></path>
</defs>
<g transform="translate(151.69 362.43625)scale(0.2 -0.2)">
<use xlink:href="#CrimsonText-Regular-84"></use>
<use x="65.332031" xlink:href="#CrimsonText-Regular-105"></use>
<use x="91.601562" xlink:href="#CrimsonText-Regular-109"></use>
<use x="169.726562" xlink:href="#CrimsonText-Regular-101"></use>
<use x="211.71875" xlink:href="#CrimsonText-Regular-32"></use>
<use x="234.082031" xlink:href="#CrimsonText-Regular-40"></use>
<use x="265.625" xlink:href="#CrimsonText-Regular-115"></use>
<use x="300.683594" xlink:href="#CrimsonText-Regular-101"></use>
<use x="342.675781" xlink:href="#CrimsonText-Regular-99"></use>
<use x="382.226562" xlink:href="#CrimsonText-Regular-111"></use>
<use x="432.03125" xlink:href="#CrimsonText-Regular-110"></use>
<use x="485.058594" xlink:href="#CrimsonText-Regular-100"></use>
<use x="533.59375" xlink:href="#CrimsonText-Regular-115"></use>
<use x="568.652344" xlink:href="#CrimsonText-Regular-41"></use>
</g>
</g>
</g>
<g id="matplotlib.axis_2">
<g id="text_2">
<!-- Height above ground (meters) -->
<defs>
<path d="M 49.515625 13.1875 
L 49.515625 30.375 
Q 49.515625 30.375 49.3125 30.765625 
Q 40.140625 30.953125 34.859375 30.953125 
Q 19.828125 30.953125 19.828125 30.46875 
L 19.828125 13.578125 
Q 19.828125 7.90625 20.703125 4.5 
Q 20.90625 3.8125 23.4375 3.171875 
Q 25.984375 2.546875 26.953125 2.546875 
Q 27.25 2.546875 27.296875 1.375 
Q 27.34375 0.203125 27.15625 -0.296875 
Q 17.390625 0.203125 15.828125 0.203125 
Q 15.328125 0.203125 4.109375 -0.296875 
Q 3.71875 0.09375 3.71875 1.171875 
Q 3.71875 2.546875 4.109375 2.546875 
Q 5.375 2.546875 7.859375 3.125 
Q 10.359375 3.71875 10.640625 4.5 
Q 11.328125 7.125 11.328125 13.1875 
L 11.328125 51.078125 
Q 11.328125 57.125 10.640625 59.765625 
Q 10.359375 60.546875 7.859375 61.171875 
Q 5.375 61.8125 4.109375 61.8125 
Q 3.71875 61.8125 3.71875 63.09375 
Q 3.71875 64.265625 4.109375 64.65625 
Q 5.375 64.546875 9.28125 64.296875 
Q 13.1875 64.0625 15.828125 64.0625 
Q 17.78125 64.0625 19.625 64.15625 
Q 21.484375 64.265625 23.625 64.40625 
Q 25.78125 64.546875 27.15625 64.65625 
Q 27.34375 64.265625 27.296875 63.03125 
Q 27.25 61.8125 26.953125 61.8125 
Q 25.984375 61.8125 23.4375 61.125 
Q 20.90625 60.453125 20.703125 59.765625 
Q 19.828125 56.34375 19.828125 50.6875 
L 19.828125 36.140625 
L 20.015625 35.84375 
Q 29.59375 35.640625 34.859375 35.640625 
Q 40.53125 35.640625 49.3125 35.84375 
Q 49.515625 36.03125 49.515625 36.234375 
L 49.515625 51.078125 
Q 49.515625 57.125 48.828125 59.765625 
Q 48.53125 60.546875 46.046875 61.171875 
Q 43.5625 61.8125 42.28125 61.8125 
Q 41.890625 61.8125 41.890625 63.03125 
Q 41.890625 64.265625 42.28125 64.65625 
Q 43.453125 64.546875 47.453125 64.296875 
Q 51.46875 64.0625 54.109375 64.0625 
Q 55.953125 64.0625 57.8125 64.15625 
Q 59.671875 64.265625 61.765625 64.40625 
Q 63.875 64.546875 65.234375 64.65625 
Q 65.4375 64.0625 65.4375 63.1875 
Q 65.4375 61.8125 65.046875 61.8125 
Q 64.0625 61.8125 61.515625 61.125 
Q 58.984375 60.453125 58.796875 59.765625 
Q 58.015625 56.734375 58.015625 50.6875 
L 58.015625 13.578125 
Q 58.015625 7.515625 58.796875 4.5 
Q 58.984375 3.8125 61.515625 3.171875 
Q 64.0625 2.546875 65.046875 2.546875 
Q 65.4375 2.546875 65.4375 1.078125 
Q 65.4375 0.296875 65.234375 -0.296875 
Q 55.46875 0.203125 54.109375 0.203125 
Q 53.515625 0.203125 42.28125 -0.296875 
Q 41.890625 0.09375 41.890625 1.3125 
Q 41.890625 2.546875 42.28125 2.546875 
Q 43.5625 2.546875 46.046875 3.125 
Q 48.53125 3.71875 48.828125 4.5 
Q 49.515625 7.125 49.515625 13.1875 
z
" id="CrimsonText-Regular-72"></path>
<path d="M 37.015625 -8.296875 
Q 37.015625 -4.203125 33 -2.78125 
Q 29 -1.375 17.09375 -1.375 
Q 16.890625 -1.375 16.5 -1.5625 
Q 16.40625 -1.65625 15.625 -2 
Q 14.84375 -2.34375 14.640625 -2.4375 
Q 14.453125 -2.546875 13.765625 -2.984375 
Q 13.09375 -3.421875 12.84375 -3.5625 
Q 12.59375 -3.71875 12 -4.15625 
Q 11.421875 -4.59375 11.21875 -4.9375 
Q 11.03125 -5.28125 10.640625 -5.765625 
Q 10.25 -6.25 10.109375 -6.734375 
Q 9.96875 -7.234375 9.8125 -7.859375 
Q 9.671875 -8.5 9.671875 -9.1875 
Q 9.671875 -13.375 14.015625 -15.96875 
Q 18.359375 -18.5625 23.640625 -18.5625 
Q 29.5 -18.5625 33.25 -15.4375 
Q 37.015625 -12.3125 37.015625 -8.296875 
z
M 12.015625 28.90625 
Q 12.015625 24.421875 14.796875 21.296875 
Q 17.578125 18.171875 21.296875 18.171875 
Q 25.09375 18.171875 27.578125 21.09375 
Q 30.078125 24.03125 30.078125 28.125 
Q 30.078125 32.625 27.296875 35.75 
Q 24.515625 38.875 20.796875 38.875 
Q 17 38.875 14.5 35.9375 
Q 12.015625 33.015625 12.015625 28.90625 
z
M 21.1875 42.1875 
Q 24.8125 42.1875 29.5 40.921875 
Q 34.1875 39.65625 37.203125 39.65625 
L 42.875 39.65625 
Q 43.453125 39.453125 43.453125 37.203125 
Q 43.453125 35.84375 42.875 35.84375 
L 35.9375 35.84375 
Q 35.546875 35.84375 35.546875 35.546875 
L 36.53125 33.203125 
Q 37.59375 30.859375 37.59375 28.515625 
Q 37.59375 23.25 32.90625 19.046875 
Q 28.21875 14.84375 21.390625 14.84375 
Q 18.265625 14.84375 15.921875 15.234375 
Q 14.65625 14.546875 13.234375 12.78125 
Q 11.8125 11.03125 11.8125 9.65625 
Q 11.8125 8.296875 12.59375 7.46875 
Q 13.375 6.640625 14.84375 6.296875 
Q 16.3125 5.953125 17.671875 5.8125 
Q 19.046875 5.671875 20.90625 5.671875 
Q 21.390625 5.671875 21.578125 5.671875 
Q 33.6875 5.46875 38.5625 3.171875 
Q 43.453125 0.875 43.453125 -3.71875 
Q 43.453125 -11.234375 37.109375 -16.65625 
Q 30.765625 -22.078125 20.796875 -22.171875 
Q 13.875 -22.265625 8.34375 -19.53125 
Q 2.828125 -16.796875 2.828125 -11.328125 
Q 2.828125 -5.28125 12.40625 -0.984375 
Q 9.765625 -0.59375 7.515625 1.453125 
Q 5.28125 3.515625 5.28125 6.453125 
Q 5.28125 8.984375 7.46875 11.71875 
Q 9.671875 14.453125 12.40625 16.21875 
Q 9.46875 17.28125 6.984375 20.84375 
Q 4.5 24.421875 4.5 28.515625 
Q 4.5 34.28125 9.328125 38.234375 
Q 14.15625 42.1875 21.1875 42.1875 
z
" id="CrimsonText-Regular-103"></path>
<path d="M 30.46875 42.78125 
Q 37.015625 42.78125 39.84375 38.09375 
Q 42.671875 33.40625 42.671875 23.640625 
L 42.671875 13.09375 
Q 42.671875 7.515625 43.453125 4.5 
Q 43.65625 3.8125 46 3.171875 
Q 48.34375 2.546875 49.3125 2.546875 
Q 49.609375 2.546875 49.703125 1.375 
Q 49.8125 0.203125 49.609375 -0.296875 
Q 39.84375 0.203125 39.15625 0.203125 
Q 38.875 0.203125 28.90625 -0.296875 
Q 28.515625 0.09375 28.515625 1.3125 
Q 28.515625 2.546875 28.90625 2.546875 
Q 30.078125 2.546875 32.171875 3.171875 
Q 34.28125 3.8125 34.46875 4.5 
Q 35.15625 7.328125 35.15625 11.328125 
L 35.15625 21.6875 
Q 35.15625 30.671875 32.65625 33.734375 
Q 30.171875 36.8125 25 36.8125 
Q 22.078125 36.8125 19.1875 34.515625 
Q 16.3125 32.234375 16.3125 30.46875 
L 16.3125 13.1875 
Q 16.3125 7.515625 17.09375 4.5 
Q 17.28125 3.8125 19.625 3.171875 
Q 21.96875 2.546875 22.953125 2.546875 
Q 23.25 2.546875 23.34375 1.375 
Q 23.4375 0.203125 23.25 -0.296875 
Q 13.484375 0.203125 12.796875 0.203125 
Q 12.203125 0.203125 2.15625 -0.296875 
Q 1.765625 0.09375 1.765625 1.3125 
Q 1.765625 2.546875 2.15625 2.546875 
Q 3.328125 2.546875 5.609375 3.171875 
Q 7.90625 3.8125 8.109375 4.5 
Q 8.796875 7.328125 8.796875 11.234375 
L 8.796875 53.609375 
Q 8.796875 56.9375 8.203125 59.859375 
Q 7.71875 61.421875 3.21875 61.421875 
L 2.34375 61.421875 
Q 1.765625 61.421875 1.765625 62.5 
Q 1.765625 64.0625 2.34375 64.0625 
Q 5.28125 64.359375 7.765625 64.84375 
Q 10.25 65.328125 11.671875 65.8125 
Q 13.09375 66.3125 14.0625 66.75 
Q 15.046875 67.1875 15.4375 67.484375 
L 15.921875 67.78125 
L 16.109375 67.78125 
Q 16.5 67.78125 16.890625 67.234375 
Q 17.28125 66.703125 17.390625 66.21875 
Q 16.3125 63.09375 16.3125 57.71875 
L 16.3125 36.328125 
Q 16.3125 35.9375 16.5 35.9375 
Q 16.609375 35.9375 16.796875 36.140625 
Q 18.953125 38.484375 22.90625 40.625 
Q 26.859375 42.78125 30.46875 42.78125 
z
" id="CrimsonText-Regular-104"></path>
<path d="M 7.8125 36.53125 
L 2.15625 36.53125 
Q 1.65625 36.53125 1.65625 38.578125 
Q 1.65625 39.15625 1.765625 39.265625 
Q 4.59375 40.53125 7.90625 44.4375 
Q 8.984375 45.703125 10 47.3125 
Q 11.03125 48.921875 11.71875 50.09375 
Q 12.40625 51.265625 12.40625 51.375 
Q 15.328125 51.375 15.328125 50.875 
L 15.328125 41.21875 
Q 17.875 41.21875 23.046875 41.15625 
Q 28.21875 41.109375 28.515625 41.109375 
Q 29.296875 41.109375 29.296875 40.234375 
Q 29.296875 38.484375 28.328125 36.53125 
L 15.328125 36.53125 
L 15.328125 12.59375 
Q 15.328125 8.6875 17.328125 6.34375 
Q 19.34375 4 22.5625 4 
Q 25.484375 4 28.609375 5.859375 
Q 28.90625 6.0625 29.484375 5.03125 
Q 30.078125 4 29.984375 3.90625 
Q 28.515625 2.34375 25.484375 0.828125 
Q 22.46875 -0.6875 19.234375 -0.6875 
Q 14.359375 -0.6875 11.078125 2.53125 
Q 7.8125 5.765625 7.8125 11.71875 
z
" id="CrimsonText-Regular-116"></path>
<path d="M 12.015625 7.71875 
Q 15.328125 4.890625 17.96875 4.890625 
Q 20.609375 4.890625 23.046875 6.5 
Q 25.484375 8.109375 25.484375 9.765625 
L 25.484375 19.828125 
Q 24.703125 19.4375 21.671875 18.453125 
Q 18.65625 17.484375 16.9375 16.75 
Q 15.234375 16.015625 13.625 14.296875 
Q 12.015625 12.59375 12.015625 10.359375 
Q 12.015625 7.71875 15.328125 4.890625 
z
M 22.859375 42.578125 
Q 28.21875 42.578125 30.5625 39.984375 
Q 32.90625 37.40625 32.90625 31.640625 
L 32.90625 9.078125 
Q 32.90625 7.03125 33.984375 5.65625 
Q 35.0625 4.296875 36.921875 4.296875 
Q 38.28125 4.296875 40.328125 5.671875 
Q 40.71875 5.671875 40.71875 4.890625 
Q 40.71875 3.609375 40.234375 2.828125 
Q 36.234375 -0.59375 33.40625 -0.59375 
Q 31.15625 -0.59375 29.09375 1.265625 
Q 27.046875 3.125 26.265625 5.171875 
Q 26.171875 5.171875 25.53125 4.53125 
Q 24.90625 3.90625 23.828125 3.078125 
Q 22.75 2.25 21.328125 1.359375 
Q 19.921875 0.484375 18.015625 -0.09375 
Q 16.109375 -0.6875 14.15625 -0.6875 
Q 9.671875 -0.6875 6.734375 1.703125 
Q 3.8125 4.109375 3.8125 8.890625 
Q 3.8125 11.03125 4.875 12.9375 
Q 5.953125 14.84375 7.421875 16.0625 
Q 8.890625 17.28125 11.421875 18.546875 
Q 13.96875 19.828125 15.765625 20.453125 
Q 17.578125 21.09375 20.5 22.0625 
Q 23.4375 23.046875 24.609375 23.53125 
Q 25.484375 23.828125 25.484375 25 
L 25.484375 32.328125 
Q 25.484375 35.453125 23.53125 37.15625 
Q 21.578125 38.875 18.84375 38.875 
Q 15.921875 38.875 13.96875 36.859375 
Q 12.015625 34.859375 12.015625 31.640625 
Q 12.015625 28.21875 8.015625 28.21875 
Q 5.28125 28.21875 4.203125 30.078125 
Q 4.203125 34.28125 10.34375 38.421875 
Q 16.5 42.578125 22.859375 42.578125 
z
" id="CrimsonText-Regular-97"></path>
<path d="M 25 42.78125 
Q 34.375 42.78125 39.6875 36.375 
Q 45.015625 29.984375 45.015625 22.75 
Q 45.015625 13.484375 38.125 6.4375 
Q 31.25 -0.59375 22.953125 -0.59375 
Q 19.34375 -0.59375 16.0625 0.046875 
Q 12.796875 0.6875 12.3125 0.6875 
Q 11.421875 0.6875 10.109375 0.140625 
Q 8.796875 -0.390625 8.59375 -0.390625 
Q 8.203125 -0.390625 7.375 -0.09375 
Q 6.546875 0.203125 6.546875 0.59375 
Q 6.546875 0.6875 6.828125 2.203125 
Q 7.125 3.71875 7.421875 6.640625 
Q 7.71875 9.578125 7.71875 13.1875 
L 7.71875 53.609375 
Q 7.71875 56.9375 7.125 59.859375 
Q 6.640625 61.421875 2.15625 61.421875 
L 1.265625 61.421875 
Q 0.6875 61.421875 0.6875 62.5 
Q 0.6875 64.0625 1.265625 64.0625 
Q 4.203125 64.359375 6.6875 64.84375 
Q 9.1875 65.328125 10.59375 65.8125 
Q 12.015625 66.3125 12.984375 66.75 
Q 13.96875 67.1875 14.453125 67.484375 
L 14.84375 67.78125 
L 15.046875 67.78125 
Q 15.4375 67.78125 15.828125 67.234375 
Q 16.21875 66.703125 16.3125 66.21875 
Q 15.234375 63.09375 15.234375 57.71875 
L 15.234375 40.625 
Q 15.234375 39.546875 15.53125 39.546875 
Q 15.625 39.546875 15.828125 39.65625 
Q 17.1875 40.625 20.015625 41.703125 
Q 22.859375 42.78125 25 42.78125 
z
M 21.875 37.984375 
Q 19.140625 37.984375 17.1875 36.46875 
Q 15.234375 34.96875 15.234375 32.125 
L 15.234375 9.375 
Q 15.234375 6.34375 18.109375 4.921875 
Q 21 3.515625 24.8125 3.515625 
Q 30.375 3.515625 33.5 8.78125 
Q 36.625 14.0625 36.625 20.703125 
Q 36.625 28.421875 32.5625 33.203125 
Q 28.515625 37.984375 21.875 37.984375 
z
" id="CrimsonText-Regular-98"></path>
<path d="M 37.40625 36.421875 
Q 37.40625 39.546875 30.375 39.546875 
Q 29.984375 39.546875 29.984375 40.765625 
Q 29.984375 42 30.375 42.390625 
Q 31.453125 42.28125 34.375 42.078125 
Q 37.3125 41.890625 39.65625 41.890625 
L 49.421875 42.390625 
Q 49.609375 41.796875 49.609375 40.921875 
Q 49.609375 39.546875 48.921875 39.546875 
Q 47.5625 39.546875 45.3125 38.765625 
Q 43.0625 37.984375 42.28125 36.234375 
L 26.765625 1.171875 
Q 26.5625 0.484375 25.578125 -0.296875 
Q 24.609375 -1.078125 23.921875 -1.078125 
Q 23.25 -1.078125 23.046875 -0.6875 
Q 21.390625 2.9375 15.765625 16.109375 
Q 10.15625 29.296875 5.953125 37.59375 
Q 4.984375 39.546875 0.203125 39.546875 
Q -0.203125 39.546875 -0.203125 40.828125 
Q -0.203125 42 0.203125 42.390625 
Q 10.25 41.890625 10.359375 41.890625 
L 20.125 42.390625 
Q 20.3125 42 20.15625 40.765625 
Q 20.015625 39.546875 19.734375 39.546875 
Q 14.9375 39.546875 14.9375 37.890625 
Q 14.9375 37.703125 15.046875 37.5 
L 26.765625 11.03125 
L 36.625 33.5 
Q 37.40625 35.359375 37.40625 36.421875 
z
" id="CrimsonText-Regular-118"></path>
<path d="M 28.609375 42.671875 
Q 34.375 42.671875 36.234375 39.84375 
Q 36.234375 36.421875 35.15625 34.859375 
Q 34.078125 33.296875 32.515625 33.296875 
Q 30.765625 33.296875 29.296875 34.953125 
Q 27.828125 36.625 25.296875 36.625 
Q 22.265625 36.625 20.015625 33.78125 
Q 17.78125 30.953125 17.78125 27.828125 
L 17.78125 13.1875 
Q 17.78125 7.515625 18.5625 4.5 
Q 18.75 3.8125 21.140625 3.171875 
Q 23.53125 2.546875 24.515625 2.546875 
Q 24.8125 2.546875 24.90625 1.375 
Q 25 0.203125 24.8125 -0.296875 
Q 15.046875 0.203125 14.265625 0.203125 
Q 13.671875 0.203125 3.609375 -0.296875 
Q 3.21875 0.09375 3.21875 1.3125 
Q 3.21875 2.546875 3.609375 2.546875 
Q 4.78125 2.546875 7.078125 3.171875 
Q 9.375 3.8125 9.578125 4.5 
Q 10.25 7.328125 10.25 11.328125 
L 10.25 29.78125 
Q 10.25 33.59375 8.890625 35.0625 
Q 7.90625 36.234375 6.484375 36.671875 
Q 5.078125 37.109375 4.140625 37.109375 
Q 3.21875 37.109375 3.21875 37.3125 
Q 3.21875 39.65625 3.8125 39.75 
Q 14.15625 41.3125 17.28125 42.28125 
Q 17.390625 42.28125 17.578125 42.328125 
Q 17.78125 42.390625 17.78125 42.390625 
Q 18.171875 42.390625 18.265625 41.546875 
Q 18.359375 40.71875 18.265625 40.328125 
L 17.671875 35.453125 
Q 19.4375 38.09375 22.515625 40.375 
Q 25.59375 42.671875 28.609375 42.671875 
z
" id="CrimsonText-Regular-114"></path>
<path d="M 42.484375 33.296875 
L 42.484375 13.765625 
Q 42.484375 9.578125 43.171875 6.34375 
Q 43.359375 5.671875 44.234375 5.28125 
Q 45.125 4.890625 46.09375 4.78125 
Q 47.078125 4.6875 48.046875 4.6875 
L 48.921875 4.59375 
Q 49.21875 4.5 49.21875 3.515625 
Q 49.21875 3.21875 48.96875 2.578125 
Q 48.734375 1.953125 48.4375 1.953125 
Q 46.96875 1.859375 45.15625 1.5625 
Q 43.359375 1.265625 41.796875 0.875 
Q 40.234375 0.484375 38.859375 0.09375 
Q 37.5 -0.296875 36.71875 -0.59375 
L 35.84375 -0.78125 
Q 35.0625 -0.78125 35.0625 0.78125 
L 35.0625 5.765625 
L 34.859375 6.25 
Q 28.421875 -0.6875 22.078125 -0.6875 
Q 18.453125 -0.6875 15.859375 1.125 
Q 13.28125 2.9375 12.0625 5.90625 
Q 10.84375 8.890625 10.34375 11.671875 
Q 9.859375 14.453125 9.859375 17.484375 
L 9.859375 29.78125 
Q 9.859375 33.59375 8.5 35.0625 
Q 7.515625 36.234375 6.09375 36.671875 
Q 4.6875 37.109375 3.75 37.109375 
Q 2.828125 37.109375 2.828125 37.3125 
Q 2.828125 39.65625 3.421875 39.75 
Q 13.765625 41.3125 16.890625 42.28125 
Q 17 42.28125 17.1875 42.328125 
Q 17.390625 42.390625 17.390625 42.390625 
Q 17.78125 42.390625 17.875 41.546875 
Q 17.96875 40.71875 17.875 40.328125 
Q 17.28125 35.640625 17.28125 33.109375 
L 17.28125 19.921875 
Q 17.28125 12.40625 19.53125 8.84375 
Q 21.78125 5.28125 26.859375 5.28125 
Q 29.78125 5.28125 32.421875 7.5625 
Q 35.0625 9.859375 35.0625 11.53125 
L 35.0625 29.78125 
Q 35.0625 33.59375 33.6875 35.0625 
Q 32.71875 36.234375 31.296875 36.671875 
Q 29.890625 37.109375 28.953125 37.109375 
Q 28.03125 37.109375 28.03125 37.3125 
Q 28.03125 39.65625 28.609375 39.75 
Q 38.96875 41.3125 42.09375 42.28125 
Q 42.1875 42.28125 42.375 42.328125 
Q 42.578125 42.390625 42.578125 42.390625 
Q 42.96875 42.390625 43.0625 41.546875 
Q 43.171875 40.71875 43.0625 40.328125 
Q 42.484375 35.640625 42.484375 33.296875 
z
" id="CrimsonText-Regular-117"></path>
</defs>
<g transform="translate(21.809375 296.195938)rotate(-90)scale(0.2 -0.2)">
<use xlink:href="#CrimsonText-Regular-72"></use>
<use x="69.042969" xlink:href="#CrimsonText-Regular-101"></use>
<use x="111.035156" xlink:href="#CrimsonText-Regular-105"></use>
<use x="137.304688" xlink:href="#CrimsonText-Regular-103"></use>
<use x="183.59375" xlink:href="#CrimsonText-Regular-104"></use>
<use x="235.351562" xlink:href="#CrimsonText-Regular-116"></use>
<use x="266.015625" xlink:href="#CrimsonText-Regular-32"></use>
<use x="288.378906" xlink:href="#CrimsonText-Regular-97"></use>
<use x="329.6875" xlink:href="#CrimsonText-Regular-98"></use>
<use x="378.417969" xlink:href="#CrimsonText-Regular-111"></use>
<use x="428.222656" xlink:href="#CrimsonText-Regular-118"></use>
<use x="476.367188" xlink:href="#CrimsonText-Regular-101"></use>
<use x="518.359375" xlink:href="#CrimsonText-Regular-32"></use>
<use x="540.722656" xlink:href="#CrimsonText-Regular-103"></use>
<use x="587.011719" xlink:href="#CrimsonText-Regular-114"></use>
<use x="624.121094" xlink:href="#CrimsonText-Regular-111"></use>
<use x="673.925781" xlink:href="#CrimsonText-Regular-117"></use>
<use x="724.414062" xlink:href="#CrimsonText-Regular-110"></use>
<use x="777.441406" xlink:href="#CrimsonText-Regular-100"></use>
<use x="825.976562" xlink:href="#CrimsonText-Regular-32"></use>
<use x="848.339844" xlink:href="#CrimsonText-Regular-40"></use>
<use x="879.882812" xlink:href="#CrimsonText-Regular-109"></use>
<use x="958.007812" xlink:href="#CrimsonText-Regular-101"></use>
<use x="1000" xlink:href="#CrimsonText-Regular-116"></use>
<use x="1030.664062" xlink:href="#CrimsonText-Regular-101"></use>
<use x="1072.65625" xlink:href="#CrimsonText-Regular-114"></use>
<use x="1109.765625" xlink:href="#CrimsonText-Regular-115"></use>
<use x="1144.824219" xlink:href="#CrimsonText-Regular-41"></use>
</g>
</g>
</g>
</g>
<g id="axes_2">
<g id="patch_3">
<path d="M 37.56459 354.96 
L 378.28041 354.96 
L 378.28041 7.2 
L 37.56459 7.2 
z
" style="fill:none;"></path>
</g>
<g id="matplotlib.axis_3">
<g id="xtick_1"></g>
<g id="xtick_2"></g>
<g id="xtick_3"></g>
<g id="xtick_4"></g>
<g id="xtick_5"></g>
<g id="xtick_6"></g>
<g id="xtick_7"></g>
</g>
<g id="matplotlib.axis_4">
<g id="ytick_1"></g>
<g id="ytick_2"></g>
<g id="ytick_3"></g>
<g id="ytick_4"></g>
<g id="ytick_5"></g>
<g id="ytick_6"></g>
<g id="ytick_7"></g>
<g id="ytick_8"></g>
<g id="ytick_9"></g>
</g>
<g id="LineCollection_1">
<path clip-path="url(#p0f5e6b29c7)" d="M 162.140953 326.345129 
L 162.140953 43.229796 
" style="fill:none;stroke:#000000;stroke-width:0.708982;"></path>
<path clip-path="url(#p0f5e6b29c7)" d="M 252.018836 326.345129 
L 252.018836 43.229796 
" style="fill:none;stroke:#000000;stroke-width:0.708982;"></path>
<path clip-path="url(#p0f5e6b29c7)" d="M 341.89672 326.345129 
L 341.89672 43.229796 
" style="fill:none;stroke:#000000;stroke-width:0.708982;"></path>
<path clip-path="url(#p0f5e6b29c7)" d="M 65.522229 281.085195 
L 348.637561 281.085195 
" style="fill:none;stroke:#000000;stroke-width:0.708982;"></path>
<path clip-path="url(#p0f5e6b29c7)" d="M 65.522229 242.566102 
L 348.637561 242.566102 
" style="fill:none;stroke:#000000;stroke-width:0.708982;"></path>
<path clip-path="url(#p0f5e6b29c7)" d="M 65.522229 204.047009 
L 348.637561 204.047009 
" style="fill:none;stroke:#000000;stroke-width:0.708982;"></path>
<path clip-path="url(#p0f5e6b29c7)" d="M 65.522229 165.527916 
L 348.637561 165.527916 
" style="fill:none;stroke:#000000;stroke-width:0.708982;"></path>
<path clip-path="url(#p0f5e6b29c7)" d="M 65.522229 127.008823 
L 348.637561 127.008823 
" style="fill:none;stroke:#000000;stroke-width:0.708982;"></path>
<path clip-path="url(#p0f5e6b29c7)" d="M 65.522229 88.489731 
L 348.637561 88.489731 
" style="fill:none;stroke:#000000;stroke-width:0.708982;"></path>
<path clip-path="url(#p0f5e6b29c7)" d="M 65.522229 49.970638 
L 348.637561 49.970638 
" style="fill:none;stroke:#000000;stroke-width:0.708982;"></path>
</g>
<g id="LineCollection_2">
<path clip-path="url(#p0f5e6b29c7)" d="M 65.522229 319.604288 
L 355.378402 319.604288 
" style="fill:none;stroke:#000000;stroke-width:1.949699;"></path>
</g>
<g id="PathCollection_1">
<defs>
<path d="M 351.778803 -53.134987 
L 355.378402 -54.447587 
L 351.778803 -55.760188 
L 351.778803 -53.134987 
L 355.378402 -54.447587 
" id="m96baf7137f" style="stroke:#000000;stroke-linejoin:miter;stroke-width:1.949699;"></path>
</defs>
<g clip-path="url(#p0f5e6b29c7)">
<use style="stroke:#000000;stroke-linejoin:miter;stroke-width:1.949699;" x="0" xlink:href="#m96baf7137f" y="374.051875"></use>
</g>
</g>
<g id="LineCollection_3">
<path clip-path="url(#p0f5e6b29c7)" d="M 72.26307 326.345129 
L 72.26307 36.488955 
" style="fill:none;stroke:#000000;stroke-width:1.949699;"></path>
</g>
<g id="PathCollection_2">
<defs>
<path d="M 73.537635 -332.797269 
L 72.26307 -337.56292 
L 70.988505 -332.797269 
L 73.537635 -332.797269 
L 72.26307 -337.56292 
" id="m46441718c2" style="stroke:#000000;stroke-linejoin:miter;stroke-width:1.949699;"></path>
</defs>
<g clip-path="url(#p0f5e6b29c7)">
<use style="stroke:#000000;stroke-linejoin:miter;stroke-width:1.949699;" x="0" xlink:href="#m46441718c2" y="374.051875"></use>
</g>
</g>
<g id="LineCollection_4">
<path clip-path="url(#p0f5e6b29c7)" d="M 162.140953 324.571223 
L 162.140953 314.637352 
" style="fill:none;stroke:#000000;stroke-width:0.886227;"></path>
<path clip-path="url(#p0f5e6b29c7)" d="M 252.018836 324.571223 
L 252.018836 314.637352 
" style="fill:none;stroke:#000000;stroke-width:0.886227;"></path>
<path clip-path="url(#p0f5e6b29c7)" d="M 341.89672 324.571223 
L 341.89672 314.637352 
" style="fill:none;stroke:#000000;stroke-width:0.886227;"></path>
</g>
<g id="LineCollection_5">
<path clip-path="url(#p0f5e6b29c7)" d="M 67.296134 281.085195 
L 77.230006 281.085195 
" style="fill:none;stroke:#000000;stroke-width:0.886227;"></path>
<path clip-path="url(#p0f5e6b29c7)" d="M 67.296134 242.566102 
L 77.230006 242.566102 
" style="fill:none;stroke:#000000;stroke-width:0.886227;"></path>
<path clip-path="url(#p0f5e6b29c7)" d="M 67.296134 204.047009 
L 77.230006 204.047009 
" style="fill:none;stroke:#000000;stroke-width:0.886227;"></path>
<path clip-path="url(#p0f5e6b29c7)" d="M 67.296134 165.527916 
L 77.230006 165.527916 
" style="fill:none;stroke:#000000;stroke-width:0.886227;"></path>
<path clip-path="url(#p0f5e6b29c7)" d="M 67.296134 127.008823 
L 77.230006 127.008823 
" style="fill:none;stroke:#000000;stroke-width:0.886227;"></path>
<path clip-path="url(#p0f5e6b29c7)" d="M 67.296134 88.489731 
L 77.230006 88.489731 
" style="fill:none;stroke:#000000;stroke-width:0.886227;"></path>
<path clip-path="url(#p0f5e6b29c7)" d="M 67.296134 49.970638 
L 77.230006 49.970638 
" style="fill:none;stroke:#000000;stroke-width:0.886227;"></path>
</g>
<g id="PolyCollection_1">
<path clip-path="url(#p0f5e6b29c7)" d="M 53.051672 289.174204 
L 53.051672 274.344354 
L 63.162934 274.344354 
L 63.162934 289.174204 
z
" style="fill:#ffffff;"></path>
</g>
<g id="text_3">
<g clip-path="url(#p0f5e6b29c7)">
<!-- 1 -->
<defs>
<path d="M 12.796875 48.4375 
Q 12.203125 48.734375 11.609375 49.5625 
Q 11.03125 50.390625 11.03125 50.875 
Q 11.03125 51.265625 11.234375 51.46875 
Q 27.734375 62.703125 28.125 62.703125 
L 28.328125 62.703125 
Q 29.109375 62.703125 29.5 60.84375 
Q 28.515625 57.625 28.515625 51.65625 
L 28.515625 13.1875 
Q 28.515625 7.515625 29.296875 4.5 
Q 29.5 3.8125 32.171875 3.171875 
Q 34.859375 2.546875 35.84375 2.546875 
Q 36.234375 2.546875 36.234375 0.78125 
Q 36.234375 -0.09375 36.140625 -0.296875 
Q 26.375 0.203125 24.3125 0.203125 
Q 22.75 0.203125 12.984375 -0.296875 
Q 12.59375 0.09375 12.59375 1.3125 
Q 12.59375 2.546875 12.984375 2.546875 
Q 14.265625 2.546875 16.9375 3.171875 
Q 19.625 3.8125 19.828125 4.5 
Q 20.40625 6.84375 20.40625 10.0625 
L 20.40625 45.21875 
Q 20.40625 48.046875 20.203125 49.515625 
Q 20.015625 50.984375 19.765625 51.3125 
Q 19.53125 51.65625 19.046875 51.65625 
Q 18.453125 51.65625 17.328125 51.0625 
Q 16.21875 50.484375 14.75 49.609375 
Q 13.28125 48.734375 12.796875 48.4375 
z
" id="CrimsonText-Regular-49"></path>
</defs>
<g transform="translate(53.372767 287.340718)scale(0.2 -0.2)">
<use xlink:href="#CrimsonText-Regular-49"></use>
</g>
</g>
</g>
<g id="text_4">
<g clip-path="url(#p0f5e6b29c7)">
<!-- 1 -->
<g transform="translate(53.372767 287.340718)scale(0.2 -0.2)">
<use xlink:href="#CrimsonText-Regular-49"></use>
</g>
</g>
</g>
<g id="PolyCollection_2">
<path clip-path="url(#p0f5e6b29c7)" d="M 53.051672 250.655111 
L 53.051672 235.825261 
L 63.162934 235.825261 
L 63.162934 250.655111 
z
" style="fill:#ffffff;"></path>
</g>
<g id="text_5">
<g clip-path="url(#p0f5e6b29c7)">
<!-- 2 -->
<defs>
<path d="M 25 62.703125 
Q 31.546875 62.703125 35.296875 57.8125 
Q 39.0625 52.9375 39.0625 46.78125 
Q 39.0625 43.171875 37.84375 39.3125 
Q 36.625 35.453125 34.03125 31.4375 
Q 31.453125 27.4375 29.34375 24.453125 
Q 27.25 21.484375 23.53125 17.578125 
Q 19.828125 13.671875 18.40625 12.203125 
Q 17 10.75 13.875 7.71875 
Q 13.578125 7.234375 14.0625 7.03125 
L 32.90625 7.03125 
Q 35.640625 7.03125 36.859375 8.59375 
Q 38.09375 10.15625 39.359375 14.546875 
Q 39.75 15.625 40.71875 15.625 
Q 42 15.625 42.484375 15.234375 
Q 40.140625 3.515625 39.84375 1.5625 
Q 39.65625 0 37.890625 0 
L 5.859375 0 
Q 5.46875 0 5.125 1.125 
Q 4.78125 2.25 4.78125 2.9375 
Q 15.4375 13.671875 23.046875 25.234375 
Q 30.671875 36.8125 30.671875 44.828125 
Q 30.671875 50.09375 28.03125 52.96875 
Q 25.390625 55.859375 21.09375 55.859375 
Q 12.984375 55.859375 8.109375 47.75 
Q 7.515625 47.75 6.875 48.390625 
Q 6.25 49.03125 6.25 49.3125 
Q 6.546875 50.484375 7.859375 52.484375 
Q 9.1875 54.5 11.375 56.890625 
Q 13.578125 59.28125 17.234375 60.984375 
Q 20.90625 62.703125 25 62.703125 
z
" id="CrimsonText-Regular-50"></path>
</defs>
<g transform="translate(53.372767 248.821625)scale(0.2 -0.2)">
<use xlink:href="#CrimsonText-Regular-50"></use>
</g>
</g>
</g>
<g id="text_6">
<g clip-path="url(#p0f5e6b29c7)">
<!-- 2 -->
<g transform="translate(53.372767 248.821625)scale(0.2 -0.2)">
<use xlink:href="#CrimsonText-Regular-50"></use>
</g>
</g>
</g>
<g id="PolyCollection_3">
<path clip-path="url(#p0f5e6b29c7)" d="M 53.051672 212.136019 
L 53.051672 197.306168 
L 63.162934 197.306168 
L 63.162934 212.136019 
z
" style="fill:#ffffff;"></path>
</g>
<g id="text_7">
<g clip-path="url(#p0f5e6b29c7)">
<!-- 3 -->
<defs>
<path d="M 24.421875 62.703125 
Q 28.609375 62.703125 32.46875 59.234375 
Q 36.328125 55.765625 36.328125 50.203125 
Q 36.328125 45.90625 34.21875 42.921875 
Q 32.125 39.9375 28.21875 37.015625 
Q 33.40625 35.15625 37.640625 30.859375 
Q 41.890625 26.5625 41.890625 20.125 
Q 41.890625 10.84375 35.34375 5.171875 
Q 28.8125 -0.484375 19.140625 -0.484375 
Q 10.84375 -0.484375 6.453125 2.4375 
Q 5.46875 3.125 5.46875 5.28125 
Q 5.46875 9.859375 9.078125 9.859375 
Q 9.96875 9.859375 10.890625 9.125 
Q 11.8125 8.40625 12.9375 7.234375 
Q 14.0625 6.0625 14.84375 5.46875 
Q 17.671875 3.421875 22.265625 3.421875 
Q 26.5625 3.421875 30.03125 6.78125 
Q 33.5 10.15625 33.5 17.578125 
Q 33.5 23.34375 29.78125 27.34375 
Q 26.078125 31.34375 21.09375 31.34375 
Q 17.484375 31.34375 14.75 30.671875 
Q 14.0625 31.546875 14.0625 33.203125 
Q 14.0625 33.890625 14.265625 34.1875 
Q 21 35.359375 25 38.875 
Q 29 42.390625 29 48.4375 
Q 29 51.765625 26.40625 54.34375 
Q 23.828125 56.9375 20.515625 56.9375 
Q 18.359375 56.9375 16.546875 56.203125 
Q 14.75 55.46875 13.8125 54.6875 
Q 12.890625 53.90625 12.015625 52.96875 
Q 11.140625 52.046875 11.03125 51.953125 
Q 10.640625 51.953125 10.25 52.875 
Q 9.859375 53.8125 9.859375 54.5 
Q 12.5 58.40625 15.8125 60.546875 
Q 19.140625 62.703125 24.421875 62.703125 
z
" id="CrimsonText-Regular-51"></path>
</defs>
<g transform="translate(53.354017 210.302532)scale(0.2 -0.2)">
<use xlink:href="#CrimsonText-Regular-51"></use>
</g>
</g>
</g>
<g id="text_8">
<g clip-path="url(#p0f5e6b29c7)">
<!-- 3 -->
<g transform="translate(53.354017 210.302532)scale(0.2 -0.2)">
<use xlink:href="#CrimsonText-Regular-51"></use>
</g>
</g>
</g>
<g id="PolyCollection_4">
<path clip-path="url(#p0f5e6b29c7)" d="M 53.051672 173.616926 
L 53.051672 158.787075 
L 63.162934 158.787075 
L 63.162934 173.616926 
z
" style="fill:#ffffff;"></path>
</g>
<g id="text_9">
<g clip-path="url(#p0f5e6b29c7)">
<!-- 4 -->
<defs>
<path d="M 35.0625 62.984375 
Q 36.328125 62.984375 36.328125 62.015625 
L 36.328125 22.65625 
L 42.390625 22.65625 
Q 43.953125 22.65625 43.953125 17.96875 
Q 43.953125 17.390625 43.359375 17 
Q 43.359375 17 36.328125 17 
L 36.328125 -0.09375 
Q 36.03125 -0.59375 32.234375 -0.59375 
Q 28.609375 -0.59375 28.609375 0.203125 
L 28.609375 17 
L 3.90625 17 
Q 3.21875 17.875 3.21875 20.015625 
L 32.8125 61.8125 
Q 33.6875 62.984375 35.0625 62.984375 
z
M 28.609375 22.65625 
L 28.609375 48.640625 
Q 28.609375 49.515625 28.125 49.515625 
Q 28.125 49.421875 28.03125 49.3125 
L 10.25 23.828125 
Q 10.15625 23.734375 10.15625 23.53125 
Q 10.15625 22.65625 10.84375 22.65625 
z
" id="CrimsonText-Regular-52"></path>
</defs>
<g transform="translate(53.410267 171.783439)scale(0.2 -0.2)">
<use xlink:href="#CrimsonText-Regular-52"></use>
</g>
</g>
</g>
<g id="text_10">
<g clip-path="url(#p0f5e6b29c7)">
<!-- 4 -->
<g transform="translate(53.410267 171.783439)scale(0.2 -0.2)">
<use xlink:href="#CrimsonText-Regular-52"></use>
</g>
</g>
</g>
<g id="PolyCollection_5">
<path clip-path="url(#p0f5e6b29c7)" d="M 53.051672 135.097833 
L 53.051672 120.267982 
L 63.162934 120.267982 
L 63.162934 135.097833 
z
" style="fill:#ffffff;"></path>
</g>
<g id="text_11">
<g clip-path="url(#p0f5e6b29c7)">
<!-- 5 -->
<defs>
<path d="M 13.578125 60.84375 
Q 32.8125 61.421875 36.53125 62.203125 
Q 37.015625 61.53125 37.015625 60.15625 
Q 37.015625 57.71875 36.421875 54.78125 
Q 33.890625 54 25.390625 53.71875 
L 16.890625 53.328125 
Q 16.40625 53.21875 16.21875 52.546875 
Q 15.140625 47.171875 13.375 36.921875 
Q 16.609375 38.1875 22.5625 38.1875 
Q 30.375 38.1875 36.078125 32.8125 
Q 41.796875 27.4375 41.796875 20.125 
Q 41.796875 11.140625 35.5 5.328125 
Q 29.203125 -0.484375 19.625 -0.484375 
Q 10.9375 -0.484375 6.546875 2.4375 
Q 5.5625 3.125 5.5625 5.28125 
Q 5.5625 9.859375 9.1875 9.859375 
Q 10.0625 9.859375 10.984375 9.125 
Q 11.921875 8.40625 13.03125 7.234375 
Q 14.15625 6.0625 14.9375 5.46875 
Q 17.78125 3.421875 22.75 3.421875 
Q 26.859375 3.421875 30.125 6.890625 
Q 33.40625 10.359375 33.40625 17.578125 
Q 33.40625 20.125 32.71875 22.359375 
Q 32.03125 24.609375 30.515625 26.796875 
Q 29 29 26.0625 30.265625 
Q 23.140625 31.546875 19.140625 31.546875 
Q 14.0625 31.546875 10.640625 30.46875 
Q 9.859375 30.859375 8.890625 31.84375 
z
" id="CrimsonText-Regular-53"></path>
</defs>
<g transform="translate(53.354017 133.264346)scale(0.2 -0.2)">
<use xlink:href="#CrimsonText-Regular-53"></use>
</g>
</g>
</g>
<g id="text_12">
<g clip-path="url(#p0f5e6b29c7)">
<!-- 5 -->
<g transform="translate(53.354017 133.264346)scale(0.2 -0.2)">
<use xlink:href="#CrimsonText-Regular-53"></use>
</g>
</g>
</g>
<g id="PolyCollection_6">
<path clip-path="url(#p0f5e6b29c7)" d="M 53.051672 96.57874 
L 53.051672 81.748889 
L 63.162934 81.748889 
L 63.162934 96.57874 
z
" style="fill:#ffffff;"></path>
</g>
<g id="text_13">
<g clip-path="url(#p0f5e6b29c7)">
<!-- 6 -->
<defs>
<path d="M 12.703125 20.515625 
Q 12.703125 13.671875 15.96875 8.4375 
Q 19.234375 3.21875 24.125 3.21875 
Q 28.421875 3.21875 31.640625 6.984375 
Q 34.859375 10.75 34.859375 17 
Q 34.859375 23.640625 31.6875 27.9375 
Q 28.515625 32.234375 22.359375 32.234375 
Q 19.734375 32.234375 17.28125 30.8125 
Q 14.84375 29.390625 14.15625 27.828125 
Q 12.796875 24.703125 12.703125 20.515625 
z
M 22.953125 -0.59375 
Q 14.84375 -0.59375 9.5625 5.703125 
Q 4.296875 12.015625 4.296875 20.3125 
Q 4.296875 27.9375 7.328125 34.96875 
Q 10.359375 42 15.484375 47.3125 
Q 20.609375 52.640625 26.515625 56.59375 
Q 32.421875 60.546875 39.0625 63.1875 
Q 39.65625 63.1875 40.484375 62.109375 
Q 41.3125 61.03125 41.3125 60.546875 
Q 31.453125 56.25 24.5625 50.140625 
Q 17.671875 44.046875 15.046875 34.375 
Q 14.84375 33.40625 15.140625 33.40625 
Q 15.328125 33.5 15.4375 33.59375 
Q 16.796875 34.671875 20.359375 35.9375 
Q 23.921875 37.203125 26.859375 37.203125 
Q 33.6875 37.203125 38.328125 31.484375 
Q 42.96875 25.78125 42.96875 19.046875 
Q 42.96875 10.9375 36.90625 5.171875 
Q 30.859375 -0.59375 22.953125 -0.59375 
z
" id="CrimsonText-Regular-54"></path>
</defs>
<g transform="translate(53.372767 94.745253)scale(0.2 -0.2)">
<use xlink:href="#CrimsonText-Regular-54"></use>
</g>
</g>
</g>
<g id="text_14">
<g clip-path="url(#p0f5e6b29c7)">
<!-- 6 -->
<g transform="translate(53.372767 94.745253)scale(0.2 -0.2)">
<use xlink:href="#CrimsonText-Regular-54"></use>
</g>
</g>
</g>
<g id="PolyCollection_7">
<path clip-path="url(#p0f5e6b29c7)" d="M 53.051672 58.059647 
L 53.051672 43.229796 
L 63.162934 43.229796 
L 63.162934 58.059647 
z
" style="fill:#ffffff;"></path>
</g>
<g id="text_15">
<g clip-path="url(#p0f5e6b29c7)">
<!-- 7 -->
<defs>
<path d="M 12.984375 54 
Q 11.328125 54 10 52.625 
Q 8.6875 51.265625 8.09375 49.890625 
Q 7.515625 48.53125 6.84375 46.296875 
Q 6.734375 45.90625 5.46875 45.796875 
Q 4.203125 45.703125 3.515625 46 
Q 3.71875 46.875 4.9375 52.484375 
Q 6.15625 58.109375 6.546875 60.640625 
Q 6.640625 61.8125 8.109375 61.8125 
L 36.328125 61.8125 
Q 37.890625 61.8125 40.328125 61.953125 
Q 42.78125 62.109375 42.875 62.109375 
Q 43.5625 62.109375 43.5625 61.234375 
Q 43.5625 60.640625 43.171875 59.71875 
Q 42.78125 58.796875 41.9375 57.125 
Q 41.109375 55.46875 40.71875 54.6875 
L 15.046875 -0.296875 
Q 14.75 -0.59375 13.96875 -0.59375 
Q 12.890625 -0.59375 11.71875 0.4375 
Q 10.546875 1.46875 10.546875 2.15625 
L 36.53125 54 
z
" id="CrimsonText-Regular-55"></path>
</defs>
<g transform="translate(53.391517 56.226161)scale(0.2 -0.2)">
<use xlink:href="#CrimsonText-Regular-55"></use>
</g>
</g>
</g>
<g id="text_16">
<g clip-path="url(#p0f5e6b29c7)">
<!-- 7 -->
<g transform="translate(53.391517 56.226161)scale(0.2 -0.2)">
<use xlink:href="#CrimsonText-Regular-55"></use>
</g>
</g>
</g>
<g id="PolyCollection_8">
<path clip-path="url(#p0f5e6b29c7)" d="M 156.074196 339.152727 
L 156.074196 324.322877 
L 166.185458 324.322877 
L 166.185458 339.152727 
z
" style="fill:#ffffff;"></path>
</g>
<g id="text_17">
<g clip-path="url(#p0f5e6b29c7)">
<!-- 1 -->
<g transform="translate(156.058249 337.656283)scale(0.2 -0.2)">
<use xlink:href="#CrimsonText-Regular-49"></use>
</g>
</g>
</g>
<g id="text_18">
<g clip-path="url(#p0f5e6b29c7)">
<!-- 1 -->
<g transform="translate(156.058249 337.656283)scale(0.2 -0.2)">
<use xlink:href="#CrimsonText-Regular-49"></use>
</g>
</g>
</g>
<g id="PolyCollection_9">
<path clip-path="url(#p0f5e6b29c7)" d="M 245.952079 339.152727 
L 245.952079 324.322877 
L 256.063341 324.322877 
L 256.063341 339.152727 
z
" style="fill:#ffffff;"></path>
</g>
<g id="text_19">
<g clip-path="url(#p0f5e6b29c7)">
<!-- 2 -->
<g transform="translate(245.936132 337.656283)scale(0.2 -0.2)">
<use xlink:href="#CrimsonText-Regular-50"></use>
</g>
</g>
</g>
<g id="text_20">
<g clip-path="url(#p0f5e6b29c7)">
<!-- 2 -->
<g transform="translate(245.936132 337.656283)scale(0.2 -0.2)">
<use xlink:href="#CrimsonText-Regular-50"></use>
</g>
</g>
</g>
<g id="PolyCollection_10">
<path clip-path="url(#p0f5e6b29c7)" d="M 335.829963 339.152727 
L 335.829963 324.322877 
L 345.941225 324.322877 
L 345.941225 339.152727 
z
" style="fill:#ffffff;"></path>
</g>
<g id="text_21">
<g clip-path="url(#p0f5e6b29c7)">
<!-- 3 -->
<g transform="translate(335.795265 337.656283)scale(0.2 -0.2)">
<use xlink:href="#CrimsonText-Regular-51"></use>
</g>
</g>
</g>
<g id="text_22">
<g clip-path="url(#p0f5e6b29c7)">
<!-- 3 -->
<g transform="translate(335.795265 337.656283)scale(0.2 -0.2)">
<use xlink:href="#CrimsonText-Regular-51"></use>
</g>
</g>
</g>
<g id="text_23">
<g clip-path="url(#p0f5e6b29c7)">
<!-- O -->
<defs>
<path d="M 39.9375 61.03125 
Q 29.390625 61.03125 22.0625 50.140625 
Q 14.75 39.265625 14.75 26.078125 
Q 14.75 16.109375 19.09375 9.65625 
Q 23.4375 3.21875 31.453125 3.21875 
Q 41.609375 3.21875 49.03125 14.296875 
Q 56.453125 25.390625 56.453125 38.578125 
Q 56.453125 48.34375 52.15625 54.6875 
Q 47.859375 61.03125 39.9375 61.03125 
z
M 42.1875 65.140625 
Q 52.046875 65.140625 58.734375 57.765625 
Q 65.4375 50.390625 65.4375 39.9375 
Q 65.4375 29.390625 60.40625 19.921875 
Q 55.375 10.453125 46.875 4.734375 
Q 38.375 -0.984375 28.90625 -0.984375 
Q 18.453125 -0.984375 12.15625 6.484375 
Q 5.859375 13.96875 5.859375 25.296875 
Q 5.859375 35.453125 11.234375 44.78125 
Q 16.609375 54.109375 25 59.625 
Q 33.40625 65.140625 42.1875 65.140625 
z
" id="CrimsonText-Italic-79"></path>
</defs>
<g transform="translate(57.069184 333.098173)scale(0.2 -0.2)">
<use xlink:href="#CrimsonText-Italic-79"></use>
</g>
</g>
</g>
<g id="text_24">
<g clip-path="url(#p0f5e6b29c7)">
<!-- y -->
<defs>
<path d="M 21.09375 42.484375 
Q 24.03125 42.484375 25.921875 37.5 
Q 27.828125 32.515625 28.515625 24.453125 
Q 29.203125 16.40625 29.390625 11.859375 
Q 29.59375 7.328125 29.59375 2.734375 
Q 33.40625 7.421875 37.203125 14.6875 
Q 41.015625 21.96875 41.015625 27.828125 
Q 41.015625 33.59375 38.578125 38.28125 
Q 39.84375 42.484375 43.453125 42.484375 
Q 47.75 42.484375 47.75 34.765625 
Q 47.75 24.03125 39.34375 10.109375 
Q 30.953125 -3.8125 20.359375 -13.28125 
Q 9.765625 -22.75 3.21875 -22.75 
Q 0.6875 -22.75 -0.96875 -21.578125 
Q -2.640625 -20.40625 -2.640625 -18.75 
Q -2.640625 -15.625 -0.390625 -14.453125 
Q 1.765625 -15.71875 6.15625 -15.71875 
Q 14.265625 -15.71875 20.21875 -7.03125 
Q 22.46875 -3.71875 22.46875 6.0625 
Q 22.46875 10.84375 22.21875 15.578125 
Q 21.96875 20.3125 21.328125 25.296875 
Q 20.703125 30.28125 19.484375 33.34375 
Q 18.265625 36.421875 16.609375 36.421875 
Q 15.71875 36.421875 13.953125 34.765625 
Q 12.203125 33.109375 11.234375 31.84375 
Q 11.03125 31.84375 10.5 32.765625 
Q 9.96875 33.6875 9.96875 34.078125 
Q 10.546875 35.546875 14.59375 39.015625 
Q 18.65625 42.484375 21.09375 42.484375 
z
" id="CrimsonText-Italic-121"></path>
</defs>
<g transform="translate(67.584945 27.401023)scale(0.2 -0.2)">
<use xlink:href="#CrimsonText-Italic-121"></use>
</g>
</g>
</g>
<g id="text_25">
<g clip-path="url(#p0f5e6b29c7)">
<!-- x -->
<defs>
<path d="M 20.3125 42.484375 
Q 24.421875 42.484375 26.953125 33.984375 
L 29 27.046875 
L 34.765625 36.921875 
Q 37.984375 42.484375 42.96875 42.484375 
Q 46.296875 42.484375 48.640625 40.53125 
Q 49.421875 38.96875 49.421875 37.984375 
Q 49.421875 36.53125 48.390625 35.5 
Q 47.359375 34.46875 46.296875 34.46875 
Q 45.015625 34.46875 43.40625 35.984375 
Q 41.796875 37.5 40.4375 37.5 
Q 39.265625 37.5 37.796875 34.96875 
L 30.46875 22.46875 
L 34.671875 8.6875 
Q 35.640625 5.375 37.3125 5.375 
Q 38.765625 5.375 40.421875 6.890625 
Q 42.09375 8.40625 42.78125 9.671875 
Q 43.171875 9.671875 43.75 8.890625 
Q 44.34375 8.109375 44.34375 7.71875 
Q 44.046875 6.0625 40.71875 2.78125 
Q 37.40625 -0.484375 34.375 -0.484375 
Q 30.28125 -0.484375 27.734375 8.015625 
L 25.484375 15.625 
L 19.34375 4.984375 
Q 16.109375 -0.59375 11.140625 -0.59375 
Q 7.8125 -0.59375 5.46875 1.375 
Q 4.6875 2.734375 4.6875 3.90625 
Q 4.6875 5.375 5.703125 6.390625 
Q 6.734375 7.421875 7.8125 7.421875 
Q 9.078125 7.421875 10.6875 5.90625 
Q 12.3125 4.390625 13.671875 4.390625 
Q 14.84375 4.390625 16.3125 6.9375 
L 24.03125 20.21875 
L 20.015625 33.296875 
Q 19.046875 36.625 17.390625 36.625 
Q 15.921875 36.625 14.25 35.109375 
Q 12.59375 33.59375 11.921875 32.328125 
Q 11.53125 32.328125 10.9375 33.109375 
Q 10.359375 33.890625 10.359375 34.28125 
Q 10.640625 35.9375 13.953125 39.203125 
Q 17.28125 42.484375 20.3125 42.484375 
z
" id="CrimsonText-Italic-120"></path>
</defs>
<g transform="translate(358.14489 323.998038)scale(0.2 -0.2)">
<use xlink:href="#CrimsonText-Italic-120"></use>
</g>
</g>
</g>
<g id="line2d_1">
<defs>
<path d="M 0 3 
C 0.795609 3 1.55874 2.683901 2.12132 2.12132 
C 2.683901 1.55874 3 0.795609 3 0 
C 3 -0.795609 2.683901 -1.55874 2.12132 -2.12132 
C 1.55874 -2.683901 0.795609 -3 0 -3 
C -0.795609 -3 -1.55874 -2.683901 -2.12132 -2.12132 
C -2.683901 -1.55874 -3 -0.795609 -3 0 
C -3 0.795609 -2.683901 1.55874 -2.12132 2.12132 
C -1.55874 2.683901 -0.795609 3 0 3 
z
" id="md919eff996" style="stroke:#000000;"></path>
</defs>
<g clip-path="url(#p0f5e6b29c7)">
<use style="stroke:#000000;" x="162.140953" xlink:href="#md919eff996" y="134.712642"></use>
</g>
</g>
<g id="line2d_2">
<path clip-path="url(#p0f5e6b29c7)" d="M 72.26307 176.769799 
L 76.045506 167.391023 
L 79.827942 158.680805 
L 83.07003 151.747022 
L 86.312118 145.304425 
L 89.554206 139.353015 
L 92.796294 133.89279 
L 96.038382 128.923752 
L 98.740122 125.158098 
L 101.441862 121.733546 
L 104.143602 118.650095 
L 106.845342 115.907746 
L 109.547082 113.506498 
L 112.248822 111.446351 
L 114.410214 110.043827 
L 116.571606 108.859607 
L 118.732998 107.893693 
L 120.89439 107.146084 
L 123.055781 106.616779 
L 125.217173 106.30578 
L 127.378565 106.213085 
L 129.539957 106.338695 
L 131.701349 106.68261 
L 133.862741 107.24483 
L 136.024133 108.025355 
L 138.185525 109.024185 
L 140.346917 110.24132 
L 142.508309 111.67676 
L 145.210049 113.778051 
L 147.911789 116.220443 
L 150.613529 119.003937 
L 153.315269 122.128533 
L 156.017009 125.594229 
L 158.718749 129.401028 
L 161.420489 133.548927 
L 164.662577 138.976661 
L 167.904665 144.89558 
L 171.146753 151.305686 
L 174.388841 158.206978 
L 177.630929 165.599455 
L 180.873017 173.483119 
L 184.655453 183.301532 
L 188.437889 193.788503 
L 192.220325 204.944033 
L 196.002761 216.768122 
L 199.785197 229.26077 
L 204.107981 244.356725 
L 208.430765 260.3259 
L 212.753549 277.168294 
L 217.076333 294.883908 
L 221.399117 313.472742 
L 224.100857 325.534195 
L 224.100857 325.534195 
" style="fill:none;stroke:#000000;stroke-linecap:square;stroke-width:2.3;"></path>
</g>
</g>
</g>
<defs>
<clipPath id="p0f5e6b29c7">
<rect height="347.76" width="340.715821" x="37.56459" y="7.2"></rect>
</clipPath>
</defs>
</svg>