<svg aria-label="Graph of a system of a line and a curve in the x y plane with the origin labeled O. The x axis ranges from negative 9 to 6. The y axis ranges from negative 6 to 9. Refer to long description." role="img" version="1.1" viewBox="0 0 377.28 362.16" width="377.28px" xmlns="http://www.w3.org/2000/svg" xmlns:xlink="http://www.w3.org/1999/xlink">
<defs>
<style type="text/css">
*{stroke-linecap:butt;stroke-linejoin:round;}
  </style>
</defs>
<g id="figure_1">
<g id="patch_1">
<path d="M 0 362.16 
L 377.28 362.16 
L 377.28 0 
L 0 0 
z
" style="fill:none;"></path>
</g>
<g id="axes_1">
<g id="patch_2">
<path d="M 7.2 344.88 
L 370.08 344.88 
L 370.08 12.24 
L 7.2 12.24 
z
" style="fill:none;"></path>
</g>
<g id="matplotlib.axis_1"></g>
<g id="matplotlib.axis_2"></g>
</g>
<g id="axes_2">
<g id="patch_3">
<path d="M 15.211593 354.96 
L 354.508407 354.96 
L 354.508407 7.2 
L 15.211593 7.2 
z
" style="fill:none;"></path>
</g>
<g id="matplotlib.axis_3">
<g id="xtick_1"></g>
<g id="xtick_2"></g>
<g id="xtick_3"></g>
<g id="xtick_4"></g>
<g id="xtick_5"></g>
<g id="xtick_6"></g>
<g id="xtick_7"></g>
<g id="xtick_8"></g>
</g>
<g id="matplotlib.axis_4">
<g id="ytick_1"></g>
<g id="ytick_2"></g>
<g id="ytick_3"></g>
<g id="ytick_4"></g>
<g id="ytick_5"></g>
<g id="ytick_6"></g>
<g id="ytick_7"></g>
</g>
<g id="LineCollection_1">
<path clip-path="url(#p0a4a18b084)" d="M 37.628544 337.753854 
L 37.628544 43.990378 
" style="fill:none;stroke:#000000;stroke-width:0.708982;"></path>
<path clip-path="url(#p0a4a18b084)" d="M 56.280193 337.753854 
L 56.280193 43.990378 
" style="fill:none;stroke:#000000;stroke-width:0.708982;"></path>
<path clip-path="url(#p0a4a18b084)" d="M 74.931842 337.753854 
L 74.931842 43.990378 
" style="fill:none;stroke:#000000;stroke-width:0.708982;"></path>
<path clip-path="url(#p0a4a18b084)" d="M 93.583492 337.753854 
L 93.583492 43.990378 
" style="fill:none;stroke:#000000;stroke-width:0.708982;"></path>
<path clip-path="url(#p0a4a18b084)" d="M 112.235141 337.753854 
L 112.235141 43.990378 
" style="fill:none;stroke:#000000;stroke-width:0.708982;"></path>
<path clip-path="url(#p0a4a18b084)" d="M 130.88679 337.753854 
L 130.88679 43.990378 
" style="fill:none;stroke:#000000;stroke-width:0.708982;"></path>
<path clip-path="url(#p0a4a18b084)" d="M 149.538439 337.753854 
L 149.538439 43.990378 
" style="fill:none;stroke:#000000;stroke-width:0.708982;"></path>
<path clip-path="url(#p0a4a18b084)" d="M 168.190088 337.753854 
L 168.190088 43.990378 
" style="fill:none;stroke:#000000;stroke-width:0.708982;"></path>
<path clip-path="url(#p0a4a18b084)" d="M 186.841738 337.753854 
L 186.841738 43.990378 
" style="fill:none;stroke:#000000;stroke-width:0.708982;"></path>
<path clip-path="url(#p0a4a18b084)" d="M 224.145036 337.753854 
L 224.145036 43.990378 
" style="fill:none;stroke:#000000;stroke-width:0.708982;"></path>
<path clip-path="url(#p0a4a18b084)" d="M 242.796685 337.753854 
L 242.796685 43.990378 
" style="fill:none;stroke:#000000;stroke-width:0.708982;"></path>
<path clip-path="url(#p0a4a18b084)" d="M 261.448335 337.753854 
L 261.448335 43.990378 
" style="fill:none;stroke:#000000;stroke-width:0.708982;"></path>
<path clip-path="url(#p0a4a18b084)" d="M 280.099984 337.753854 
L 280.099984 43.990378 
" style="fill:none;stroke:#000000;stroke-width:0.708982;"></path>
<path clip-path="url(#p0a4a18b084)" d="M 298.751633 337.753854 
L 298.751633 43.990378 
" style="fill:none;stroke:#000000;stroke-width:0.708982;"></path>
<path clip-path="url(#p0a4a18b084)" d="M 317.403282 337.753854 
L 317.403282 43.990378 
" style="fill:none;stroke:#000000;stroke-width:0.708982;"></path>
<path clip-path="url(#p0a4a18b084)" d="M 30.634175 330.759485 
L 324.397651 330.759485 
" style="fill:none;stroke:#000000;stroke-width:0.708982;"></path>
<path clip-path="url(#p0a4a18b084)" d="M 30.634175 312.107836 
L 324.397651 312.107836 
" style="fill:none;stroke:#000000;stroke-width:0.708982;"></path>
<path clip-path="url(#p0a4a18b084)" d="M 30.634175 293.456187 
L 324.397651 293.456187 
" style="fill:none;stroke:#000000;stroke-width:0.708982;"></path>
<path clip-path="url(#p0a4a18b084)" d="M 30.634175 274.804537 
L 324.397651 274.804537 
" style="fill:none;stroke:#000000;stroke-width:0.708982;"></path>
<path clip-path="url(#p0a4a18b084)" d="M 30.634175 256.152888 
L 324.397651 256.152888 
" style="fill:none;stroke:#000000;stroke-width:0.708982;"></path>
<path clip-path="url(#p0a4a18b084)" d="M 30.634175 237.501239 
L 324.397651 237.501239 
" style="fill:none;stroke:#000000;stroke-width:0.708982;"></path>
<path clip-path="url(#p0a4a18b084)" d="M 30.634175 200.19794 
L 324.397651 200.19794 
" style="fill:none;stroke:#000000;stroke-width:0.708982;"></path>
<path clip-path="url(#p0a4a18b084)" d="M 30.634175 181.546291 
L 324.397651 181.546291 
" style="fill:none;stroke:#000000;stroke-width:0.708982;"></path>
<path clip-path="url(#p0a4a18b084)" d="M 30.634175 162.894642 
L 324.397651 162.894642 
" style="fill:none;stroke:#000000;stroke-width:0.708982;"></path>
<path clip-path="url(#p0a4a18b084)" d="M 30.634175 144.242993 
L 324.397651 144.242993 
" style="fill:none;stroke:#000000;stroke-width:0.708982;"></path>
<path clip-path="url(#p0a4a18b084)" d="M 30.634175 125.591344 
L 324.397651 125.591344 
" style="fill:none;stroke:#000000;stroke-width:0.708982;"></path>
<path clip-path="url(#p0a4a18b084)" d="M 30.634175 106.939694 
L 324.397651 106.939694 
" style="fill:none;stroke:#000000;stroke-width:0.708982;"></path>
<path clip-path="url(#p0a4a18b084)" d="M 30.634175 88.288045 
L 324.397651 88.288045 
" style="fill:none;stroke:#000000;stroke-width:0.708982;"></path>
<path clip-path="url(#p0a4a18b084)" d="M 30.634175 69.636396 
L 324.397651 69.636396 
" style="fill:none;stroke:#000000;stroke-width:0.708982;"></path>
<path clip-path="url(#p0a4a18b084)" d="M 30.634175 50.984747 
L 324.397651 50.984747 
" style="fill:none;stroke:#000000;stroke-width:0.708982;"></path>
</g>
<g id="LineCollection_2">
<path clip-path="url(#p0a4a18b084)" d="M 30.634175 218.84959 
L 331.392019 218.84959 
" style="fill:none;stroke:#000000;stroke-width:1.949699;"></path>
</g>
<g id="PathCollection_1">
<defs>
<path d="M 327.807412 -141.99781 
L 331.392019 -143.31041 
L 327.807412 -144.623011 
L 327.807412 -141.99781 
L 331.392019 -143.31041 
" id="mc610cc9b7d" style="stroke:#000000;stroke-linejoin:miter;stroke-width:1.949699;"></path>
</defs>
<g clip-path="url(#p0a4a18b084)">
<use style="stroke:#000000;stroke-linejoin:miter;stroke-width:1.949699;" x="0" xlink:href="#mc610cc9b7d" y="362.16"></use>
</g>
</g>
<g id="LineCollection_3">
<path clip-path="url(#p0a4a18b084)" d="M 205.493387 337.753854 
L 205.493387 36.99601 
" style="fill:none;stroke:#000000;stroke-width:1.949699;"></path>
</g>
<g id="PathCollection_2">
<defs>
<path d="M 206.762644 -320.398339 
L 205.493387 -325.16399 
L 204.22413 -320.398339 
L 206.762644 -320.398339 
L 205.493387 -325.16399 
" id="mbe00282939" style="stroke:#000000;stroke-linejoin:miter;stroke-width:1.949699;"></path>
</defs>
<g clip-path="url(#p0a4a18b084)">
<use style="stroke:#000000;stroke-linejoin:miter;stroke-width:1.949699;" x="0" xlink:href="#mbe00282939" y="362.16"></use>
</g>
</g>
<g id="LineCollection_4">
<path clip-path="url(#p0a4a18b084)" d="M 37.628544 224.003335 
L 37.628544 213.695845 
" style="fill:none;stroke:#000000;stroke-width:0.886227;"></path>
<path clip-path="url(#p0a4a18b084)" d="M 56.280193 224.003335 
L 56.280193 213.695845 
" style="fill:none;stroke:#000000;stroke-width:0.886227;"></path>
<path clip-path="url(#p0a4a18b084)" d="M 74.931842 224.003335 
L 74.931842 213.695845 
" style="fill:none;stroke:#000000;stroke-width:0.886227;"></path>
<path clip-path="url(#p0a4a18b084)" d="M 93.583492 224.003335 
L 93.583492 213.695845 
" style="fill:none;stroke:#000000;stroke-width:0.886227;"></path>
<path clip-path="url(#p0a4a18b084)" d="M 112.235141 224.003335 
L 112.235141 213.695845 
" style="fill:none;stroke:#000000;stroke-width:0.886227;"></path>
<path clip-path="url(#p0a4a18b084)" d="M 130.88679 224.003335 
L 130.88679 213.695845 
" style="fill:none;stroke:#000000;stroke-width:0.886227;"></path>
<path clip-path="url(#p0a4a18b084)" d="M 149.538439 224.003335 
L 149.538439 213.695845 
" style="fill:none;stroke:#000000;stroke-width:0.886227;"></path>
<path clip-path="url(#p0a4a18b084)" d="M 168.190088 224.003335 
L 168.190088 213.695845 
" style="fill:none;stroke:#000000;stroke-width:0.886227;"></path>
<path clip-path="url(#p0a4a18b084)" d="M 186.841738 224.003335 
L 186.841738 213.695845 
" style="fill:none;stroke:#000000;stroke-width:0.886227;"></path>
<path clip-path="url(#p0a4a18b084)" d="M 224.145036 224.003335 
L 224.145036 213.695845 
" style="fill:none;stroke:#000000;stroke-width:0.886227;"></path>
<path clip-path="url(#p0a4a18b084)" d="M 242.796685 224.003335 
L 242.796685 213.695845 
" style="fill:none;stroke:#000000;stroke-width:0.886227;"></path>
<path clip-path="url(#p0a4a18b084)" d="M 261.448335 224.003335 
L 261.448335 213.695845 
" style="fill:none;stroke:#000000;stroke-width:0.886227;"></path>
<path clip-path="url(#p0a4a18b084)" d="M 280.099984 224.003335 
L 280.099984 213.695845 
" style="fill:none;stroke:#000000;stroke-width:0.886227;"></path>
<path clip-path="url(#p0a4a18b084)" d="M 298.751633 224.003335 
L 298.751633 213.695845 
" style="fill:none;stroke:#000000;stroke-width:0.886227;"></path>
<path clip-path="url(#p0a4a18b084)" d="M 317.403282 224.003335 
L 317.403282 213.695845 
" style="fill:none;stroke:#000000;stroke-width:0.886227;"></path>
</g>
<g id="LineCollection_5">
<path clip-path="url(#p0a4a18b084)" d="M 200.339642 330.759485 
L 210.647132 330.759485 
" style="fill:none;stroke:#000000;stroke-width:0.886227;"></path>
<path clip-path="url(#p0a4a18b084)" d="M 200.339642 312.107836 
L 210.647132 312.107836 
" style="fill:none;stroke:#000000;stroke-width:0.886227;"></path>
<path clip-path="url(#p0a4a18b084)" d="M 200.339642 293.456187 
L 210.647132 293.456187 
" style="fill:none;stroke:#000000;stroke-width:0.886227;"></path>
<path clip-path="url(#p0a4a18b084)" d="M 200.339642 274.804537 
L 210.647132 274.804537 
" style="fill:none;stroke:#000000;stroke-width:0.886227;"></path>
<path clip-path="url(#p0a4a18b084)" d="M 200.339642 256.152888 
L 210.647132 256.152888 
" style="fill:none;stroke:#000000;stroke-width:0.886227;"></path>
<path clip-path="url(#p0a4a18b084)" d="M 200.339642 237.501239 
L 210.647132 237.501239 
" style="fill:none;stroke:#000000;stroke-width:0.886227;"></path>
<path clip-path="url(#p0a4a18b084)" d="M 200.339642 200.19794 
L 210.647132 200.19794 
" style="fill:none;stroke:#000000;stroke-width:0.886227;"></path>
<path clip-path="url(#p0a4a18b084)" d="M 200.339642 181.546291 
L 210.647132 181.546291 
" style="fill:none;stroke:#000000;stroke-width:0.886227;"></path>
<path clip-path="url(#p0a4a18b084)" d="M 200.339642 162.894642 
L 210.647132 162.894642 
" style="fill:none;stroke:#000000;stroke-width:0.886227;"></path>
<path clip-path="url(#p0a4a18b084)" d="M 200.339642 144.242993 
L 210.647132 144.242993 
" style="fill:none;stroke:#000000;stroke-width:0.886227;"></path>
<path clip-path="url(#p0a4a18b084)" d="M 200.339642 125.591344 
L 210.647132 125.591344 
" style="fill:none;stroke:#000000;stroke-width:0.886227;"></path>
<path clip-path="url(#p0a4a18b084)" d="M 200.339642 106.939694 
L 210.647132 106.939694 
" style="fill:none;stroke:#000000;stroke-width:0.886227;"></path>
<path clip-path="url(#p0a4a18b084)" d="M 200.339642 88.288045 
L 210.647132 88.288045 
" style="fill:none;stroke:#000000;stroke-width:0.886227;"></path>
<path clip-path="url(#p0a4a18b084)" d="M 200.339642 69.636396 
L 210.647132 69.636396 
" style="fill:none;stroke:#000000;stroke-width:0.886227;"></path>
<path clip-path="url(#p0a4a18b084)" d="M 200.339642 50.984747 
L 210.647132 50.984747 
" style="fill:none;stroke:#000000;stroke-width:0.886227;"></path>
</g>
<g id="PolyCollection_1">
<path clip-path="url(#p0a4a18b084)" d="M 185.559437 339.152727 
L 185.559437 323.765117 
L 196.05099 323.765117 
L 196.05099 339.152727 
z
" style="fill:#ffffff;"></path>
</g>
<g id="PolyCollection_2">
<path clip-path="url(#p0a4a18b084)" d="M 174.718166 329.71033 
L 174.718166 335.655543 
L 188.706903 335.655543 
L 188.706903 329.71033 
z
" style="fill:#ffffff;"></path>
</g>
<g id="text_1">
<g clip-path="url(#p0a4a18b084)">
<!-- – -->
<defs>
<path d="M 2.734375 20.40625 
Q 2.734375 21.390625 3.078125 23.484375 
Q 3.421875 25.59375 4.109375 25.59375 
L 45.609375 25.59375 
Q 46.1875 25.59375 46.1875 24.703125 
Q 46.1875 23.734375 45.3125 20.21875 
Q 45.21875 19.921875 45.0625 19.765625 
Q 44.921875 19.625 44.734375 19.53125 
L 44.625 19.53125 
L 3.328125 19.53125 
Q 3.328125 19.53125 2.9375 19.734375 
Q 2.734375 20.015625 2.734375 20.40625 
z
" id="CrimsonText-Regular-8211"></path>
</defs>
<g transform="translate(175.812562 337.07839)scale(0.2 -0.2)">
<use xlink:href="#CrimsonText-Regular-8211"></use>
</g>
</g>
</g>
<g id="text_2">
<g clip-path="url(#p0a4a18b084)">
<!-- 6 -->
<defs>
<path d="M 12.703125 20.515625 
Q 12.703125 13.671875 15.96875 8.4375 
Q 19.234375 3.21875 24.125 3.21875 
Q 28.421875 3.21875 31.640625 6.984375 
Q 34.859375 10.75 34.859375 17 
Q 34.859375 23.640625 31.6875 27.9375 
Q 28.515625 32.234375 22.359375 32.234375 
Q 19.734375 32.234375 17.28125 30.8125 
Q 14.84375 29.390625 14.15625 27.828125 
Q 12.796875 24.703125 12.703125 20.515625 
z
M 22.953125 -0.59375 
Q 14.84375 -0.59375 9.5625 5.703125 
Q 4.296875 12.015625 4.296875 20.3125 
Q 4.296875 27.9375 7.328125 34.96875 
Q 10.359375 42 15.484375 47.3125 
Q 20.609375 52.640625 26.515625 56.59375 
Q 32.421875 60.546875 39.0625 63.1875 
Q 39.65625 63.1875 40.484375 62.109375 
Q 41.3125 61.03125 41.3125 60.546875 
Q 31.453125 56.25 24.5625 50.140625 
Q 17.671875 44.046875 15.046875 34.375 
Q 14.84375 33.40625 15.140625 33.40625 
Q 15.328125 33.5 15.4375 33.59375 
Q 16.796875 34.671875 20.359375 35.9375 
Q 23.921875 37.203125 26.859375 37.203125 
Q 33.6875 37.203125 38.328125 31.484375 
Q 42.96875 25.78125 42.96875 19.046875 
Q 42.96875 10.9375 36.90625 5.171875 
Q 30.859375 -0.59375 22.953125 -0.59375 
z
" id="CrimsonText-Regular-54"></path>
</defs>
<g transform="translate(186.248146 337.07839)scale(0.2 -0.2)">
<use xlink:href="#CrimsonText-Regular-54"></use>
</g>
</g>
</g>
<g id="text_3">
<g clip-path="url(#p0a4a18b084)">
<!-- 6 -->
<g transform="translate(186.248146 337.07839)scale(0.2 -0.2)">
<use xlink:href="#CrimsonText-Regular-54"></use>
</g>
</g>
</g>
<g id="PolyCollection_3">
<path clip-path="url(#p0a4a18b084)" d="M 185.559437 301.849429 
L 185.559437 286.461818 
L 196.05099 286.461818 
L 196.05099 301.849429 
z
" style="fill:#ffffff;"></path>
</g>
<g id="PolyCollection_4">
<path clip-path="url(#p0a4a18b084)" d="M 174.718166 292.407031 
L 174.718166 298.352245 
L 188.706903 298.352245 
L 188.706903 292.407031 
z
" style="fill:#ffffff;"></path>
</g>
<g id="text_4">
<g clip-path="url(#p0a4a18b084)">
<!-- – -->
<g transform="translate(175.812562 299.775091)scale(0.2 -0.2)">
<use xlink:href="#CrimsonText-Regular-8211"></use>
</g>
</g>
</g>
<g id="text_5">
<g clip-path="url(#p0a4a18b084)">
<!-- 4 -->
<defs>
<path d="M 35.0625 62.984375 
Q 36.328125 62.984375 36.328125 62.015625 
L 36.328125 22.65625 
L 42.390625 22.65625 
Q 43.953125 22.65625 43.953125 17.96875 
Q 43.953125 17.390625 43.359375 17 
Q 43.359375 17 36.328125 17 
L 36.328125 -0.09375 
Q 36.03125 -0.59375 32.234375 -0.59375 
Q 28.609375 -0.59375 28.609375 0.203125 
L 28.609375 17 
L 3.90625 17 
Q 3.21875 17.875 3.21875 20.015625 
L 32.8125 61.8125 
Q 33.6875 62.984375 35.0625 62.984375 
z
M 28.609375 22.65625 
L 28.609375 48.640625 
Q 28.609375 49.515625 28.125 49.515625 
Q 28.125 49.421875 28.03125 49.3125 
L 10.25 23.828125 
Q 10.15625 23.734375 10.15625 23.53125 
Q 10.15625 22.65625 10.84375 22.65625 
z
" id="CrimsonText-Regular-52"></path>
</defs>
<g transform="translate(186.285646 299.775091)scale(0.2 -0.2)">
<use xlink:href="#CrimsonText-Regular-52"></use>
</g>
</g>
</g>
<g id="text_6">
<g clip-path="url(#p0a4a18b084)">
<!-- 4 -->
<g transform="translate(186.285646 299.775091)scale(0.2 -0.2)">
<use xlink:href="#CrimsonText-Regular-52"></use>
</g>
</g>
</g>
<g id="PolyCollection_5">
<path clip-path="url(#p0a4a18b084)" d="M 185.559437 264.54613 
L 185.559437 249.15852 
L 196.05099 249.15852 
L 196.05099 264.54613 
z
" style="fill:#ffffff;"></path>
</g>
<g id="PolyCollection_6">
<path clip-path="url(#p0a4a18b084)" d="M 174.718166 255.103733 
L 174.718166 261.048946 
L 188.706903 261.048946 
L 188.706903 255.103733 
z
" style="fill:#ffffff;"></path>
</g>
<g id="text_7">
<g clip-path="url(#p0a4a18b084)">
<!-- – -->
<g transform="translate(175.812562 262.471793)scale(0.2 -0.2)">
<use xlink:href="#CrimsonText-Regular-8211"></use>
</g>
</g>
</g>
<g id="text_8">
<g clip-path="url(#p0a4a18b084)">
<!-- 2 -->
<defs>
<path d="M 25 62.703125 
Q 31.546875 62.703125 35.296875 57.8125 
Q 39.0625 52.9375 39.0625 46.78125 
Q 39.0625 43.171875 37.84375 39.3125 
Q 36.625 35.453125 34.03125 31.4375 
Q 31.453125 27.4375 29.34375 24.453125 
Q 27.25 21.484375 23.53125 17.578125 
Q 19.828125 13.671875 18.40625 12.203125 
Q 17 10.75 13.875 7.71875 
Q 13.578125 7.234375 14.0625 7.03125 
L 32.90625 7.03125 
Q 35.640625 7.03125 36.859375 8.59375 
Q 38.09375 10.15625 39.359375 14.546875 
Q 39.75 15.625 40.71875 15.625 
Q 42 15.625 42.484375 15.234375 
Q 40.140625 3.515625 39.84375 1.5625 
Q 39.65625 0 37.890625 0 
L 5.859375 0 
Q 5.46875 0 5.125 1.125 
Q 4.78125 2.25 4.78125 2.9375 
Q 15.4375 13.671875 23.046875 25.234375 
Q 30.671875 36.8125 30.671875 44.828125 
Q 30.671875 50.09375 28.03125 52.96875 
Q 25.390625 55.859375 21.09375 55.859375 
Q 12.984375 55.859375 8.109375 47.75 
Q 7.515625 47.75 6.875 48.390625 
Q 6.25 49.03125 6.25 49.3125 
Q 6.546875 50.484375 7.859375 52.484375 
Q 9.1875 54.5 11.375 56.890625 
Q 13.578125 59.28125 17.234375 60.984375 
Q 20.90625 62.703125 25 62.703125 
z
" id="CrimsonText-Regular-50"></path>
</defs>
<g transform="translate(186.248146 262.471793)scale(0.2 -0.2)">
<use xlink:href="#CrimsonText-Regular-50"></use>
</g>
</g>
</g>
<g id="text_9">
<g clip-path="url(#p0a4a18b084)">
<!-- 2 -->
<g transform="translate(186.248146 262.471793)scale(0.2 -0.2)">
<use xlink:href="#CrimsonText-Regular-50"></use>
</g>
</g>
</g>
<g id="PolyCollection_7">
<path clip-path="url(#p0a4a18b084)" d="M 185.559437 189.939533 
L 185.559437 174.551923 
L 196.05099 174.551923 
L 196.05099 189.939533 
z
" style="fill:#ffffff;"></path>
</g>
<g id="text_10">
<g clip-path="url(#p0a4a18b084)">
<!-- 2 -->
<g transform="translate(186.248146 187.865196)scale(0.2 -0.2)">
<use xlink:href="#CrimsonText-Regular-50"></use>
</g>
</g>
</g>
<g id="text_11">
<g clip-path="url(#p0a4a18b084)">
<!-- 2 -->
<g transform="translate(186.248146 187.865196)scale(0.2 -0.2)">
<use xlink:href="#CrimsonText-Regular-50"></use>
</g>
</g>
</g>
<g id="PolyCollection_8">
<path clip-path="url(#p0a4a18b084)" d="M 185.559437 152.636235 
L 185.559437 137.248624 
L 196.05099 137.248624 
L 196.05099 152.636235 
z
" style="fill:#ffffff;"></path>
</g>
<g id="text_12">
<g clip-path="url(#p0a4a18b084)">
<!-- 4 -->
<g transform="translate(186.285646 150.561897)scale(0.2 -0.2)">
<use xlink:href="#CrimsonText-Regular-52"></use>
</g>
</g>
</g>
<g id="text_13">
<g clip-path="url(#p0a4a18b084)">
<!-- 4 -->
<g transform="translate(186.285646 150.561897)scale(0.2 -0.2)">
<use xlink:href="#CrimsonText-Regular-52"></use>
</g>
</g>
</g>
<g id="PolyCollection_9">
<path clip-path="url(#p0a4a18b084)" d="M 185.559437 115.332936 
L 185.559437 99.945326 
L 196.05099 99.945326 
L 196.05099 115.332936 
z
" style="fill:#ffffff;"></path>
</g>
<g id="text_14">
<g clip-path="url(#p0a4a18b084)">
<!-- 6 -->
<g transform="translate(186.248146 113.258599)scale(0.2 -0.2)">
<use xlink:href="#CrimsonText-Regular-54"></use>
</g>
</g>
</g>
<g id="text_15">
<g clip-path="url(#p0a4a18b084)">
<!-- 6 -->
<g transform="translate(186.248146 113.258599)scale(0.2 -0.2)">
<use xlink:href="#CrimsonText-Regular-54"></use>
</g>
</g>
</g>
<g id="PolyCollection_10">
<path clip-path="url(#p0a4a18b084)" d="M 185.559437 78.029638 
L 185.559437 62.642027 
L 196.05099 62.642027 
L 196.05099 78.029638 
z
" style="fill:#ffffff;"></path>
</g>
<g id="text_16">
<g clip-path="url(#p0a4a18b084)">
<!-- 8 -->
<defs>
<path d="M 23.53125 2.640625 
Q 28.421875 2.640625 31.25 5.5625 
Q 34.078125 8.5 34.078125 13.484375 
Q 34.078125 16.3125 32.421875 19.09375 
Q 30.765625 21.875 28.21875 24.015625 
Q 25.6875 26.171875 24.265625 27.140625 
Q 22.859375 28.125 21.578125 28.8125 
Q 21.1875 29 21 29 
Q 20.703125 29 20.609375 28.90625 
Q 16.5 26.375 14.6875 23.1875 
Q 12.890625 20.015625 12.890625 15.328125 
Q 12.890625 9.671875 16.109375 6.15625 
Q 19.34375 2.640625 23.53125 2.640625 
z
M 23.53125 59.375 
Q 19.921875 59.375 17.53125 56.25 
Q 15.140625 53.125 15.140625 48.046875 
Q 15.140625 41.40625 25.296875 35.546875 
Q 25.6875 35.359375 25.875 35.359375 
Q 26.171875 35.359375 26.46875 35.546875 
Q 33.109375 39.9375 33.109375 47.46875 
Q 33.109375 52.046875 30.421875 55.703125 
Q 27.734375 59.375 23.53125 59.375 
z
M 24.125 62.796875 
Q 30.859375 62.796875 35.5 58.734375 
Q 40.140625 54.6875 40.140625 47.953125 
Q 40.140625 40.53125 29.203125 33.59375 
Q 28.515625 33.40625 29.203125 33.015625 
Q 34.28125 30.078125 38.140625 25.625 
Q 42 21.1875 42 16.3125 
Q 42 9.078125 36.375 4.09375 
Q 30.765625 -0.875 23.34375 -0.875 
Q 15.234375 -0.875 10.203125 3.515625 
Q 5.171875 7.90625 5.171875 15.046875 
Q 5.171875 16.3125 5.46875 17.53125 
Q 5.765625 18.75 6.109375 19.71875 
Q 6.453125 20.703125 7.234375 21.828125 
Q 8.015625 22.953125 8.546875 23.6875 
Q 9.078125 24.421875 10.15625 25.390625 
Q 11.234375 26.375 11.71875 26.8125 
Q 12.203125 27.25 13.46875 28.125 
Q 14.75 29 15.09375 29.25 
Q 15.4375 29.5 16.609375 30.28125 
L 17.875 31.0625 
Q 18.359375 31.34375 17.875 31.640625 
Q 14.0625 33.890625 10.984375 37.9375 
Q 7.90625 42 7.90625 46.875 
Q 7.90625 53.125 12.78125 57.953125 
Q 17.671875 62.796875 24.125 62.796875 
z
" id="CrimsonText-Regular-56"></path>
</defs>
<g transform="translate(186.248146 75.9553)scale(0.2 -0.2)">
<use xlink:href="#CrimsonText-Regular-56"></use>
</g>
</g>
</g>
<g id="text_17">
<g clip-path="url(#p0a4a18b084)">
<!-- 8 -->
<g transform="translate(186.248146 75.9553)scale(0.2 -0.2)">
<use xlink:href="#CrimsonText-Regular-56"></use>
</g>
</g>
</g>
<g id="PolyCollection_11">
<path clip-path="url(#p0a4a18b084)" d="M 31.799903 230.040579 
L 31.799903 235.636074 
L 161.895157 235.636074 
L 161.895157 230.040579 
z
" style="fill:#ffffff;"></path>
</g>
<g id="PolyCollection_12">
<path clip-path="url(#p0a4a18b084)" d="M 49.985261 239.133258 
L 49.985261 223.745648 
L 60.476814 223.745648 
L 60.476814 239.133258 
z
" style="fill:#ffffff;"></path>
</g>
<g id="text_18">
<g clip-path="url(#p0a4a18b084)">
<!-- – -->
<g transform="translate(40.588105 237.408639)scale(0.2 -0.2)">
<use xlink:href="#CrimsonText-Regular-8211"></use>
</g>
</g>
</g>
<g id="text_19">
<g clip-path="url(#p0a4a18b084)">
<!-- 8 -->
<g transform="translate(50.324252 237.408639)scale(0.2 -0.2)">
<use xlink:href="#CrimsonText-Regular-56"></use>
</g>
</g>
</g>
<g id="text_20">
<g clip-path="url(#p0a4a18b084)">
<!-- 8 -->
<g transform="translate(50.324252 237.408639)scale(0.2 -0.2)">
<use xlink:href="#CrimsonText-Regular-56"></use>
</g>
</g>
</g>
<g id="PolyCollection_13">
<path clip-path="url(#p0a4a18b084)" d="M 87.28856 239.133258 
L 87.28856 223.745648 
L 97.780113 223.745648 
L 97.780113 239.133258 
z
" style="fill:#ffffff;"></path>
</g>
<g id="text_21">
<g clip-path="url(#p0a4a18b084)">
<!-- – -->
<g transform="translate(77.891403 237.408639)scale(0.2 -0.2)">
<use xlink:href="#CrimsonText-Regular-8211"></use>
</g>
</g>
</g>
<g id="text_22">
<g clip-path="url(#p0a4a18b084)">
<!-- 6 -->
<g transform="translate(87.627551 237.408639)scale(0.2 -0.2)">
<use xlink:href="#CrimsonText-Regular-54"></use>
</g>
</g>
</g>
<g id="text_23">
<g clip-path="url(#p0a4a18b084)">
<!-- 6 -->
<g transform="translate(87.627551 237.408639)scale(0.2 -0.2)">
<use xlink:href="#CrimsonText-Regular-54"></use>
</g>
</g>
</g>
<g id="PolyCollection_14">
<path clip-path="url(#p0a4a18b084)" d="M 124.591858 239.133258 
L 124.591858 223.745648 
L 135.083411 223.745648 
L 135.083411 239.133258 
z
" style="fill:#ffffff;"></path>
</g>
<g id="text_24">
<g clip-path="url(#p0a4a18b084)">
<!-- – -->
<g transform="translate(115.194702 237.408639)scale(0.2 -0.2)">
<use xlink:href="#CrimsonText-Regular-8211"></use>
</g>
</g>
</g>
<g id="text_25">
<g clip-path="url(#p0a4a18b084)">
<!-- 4 -->
<g transform="translate(124.968349 237.408639)scale(0.2 -0.2)">
<use xlink:href="#CrimsonText-Regular-52"></use>
</g>
</g>
</g>
<g id="text_26">
<g clip-path="url(#p0a4a18b084)">
<!-- 4 -->
<g transform="translate(124.968349 237.408639)scale(0.2 -0.2)">
<use xlink:href="#CrimsonText-Regular-52"></use>
</g>
</g>
</g>
<g id="PolyCollection_15">
<path clip-path="url(#p0a4a18b084)" d="M 161.895157 239.133258 
L 161.895157 223.745648 
L 172.38671 223.745648 
L 172.38671 239.133258 
z
" style="fill:#ffffff;"></path>
</g>
<g id="text_27">
<g clip-path="url(#p0a4a18b084)">
<!-- – -->
<g transform="translate(152.498 237.408639)scale(0.2 -0.2)">
<use xlink:href="#CrimsonText-Regular-8211"></use>
</g>
</g>
</g>
<g id="text_28">
<g clip-path="url(#p0a4a18b084)">
<!-- 2 -->
<g transform="translate(162.234148 237.408639)scale(0.2 -0.2)">
<use xlink:href="#CrimsonText-Regular-50"></use>
</g>
</g>
</g>
<g id="text_29">
<g clip-path="url(#p0a4a18b084)">
<!-- 2 -->
<g transform="translate(162.234148 237.408639)scale(0.2 -0.2)">
<use xlink:href="#CrimsonText-Regular-50"></use>
</g>
</g>
</g>
<g id="PolyCollection_16">
<path clip-path="url(#p0a4a18b084)" d="M 236.501754 239.133258 
L 236.501754 223.745648 
L 246.993307 223.745648 
L 246.993307 239.133258 
z
" style="fill:#ffffff;"></path>
</g>
<g id="text_30">
<g clip-path="url(#p0a4a18b084)">
<!-- 2 -->
<g transform="translate(236.840745 237.408639)scale(0.2 -0.2)">
<use xlink:href="#CrimsonText-Regular-50"></use>
</g>
</g>
</g>
<g id="text_31">
<g clip-path="url(#p0a4a18b084)">
<!-- 2 -->
<g transform="translate(236.840745 237.408639)scale(0.2 -0.2)">
<use xlink:href="#CrimsonText-Regular-50"></use>
</g>
</g>
</g>
<g id="PolyCollection_17">
<path clip-path="url(#p0a4a18b084)" d="M 273.805052 239.133258 
L 273.805052 223.745648 
L 284.296605 223.745648 
L 284.296605 239.133258 
z
" style="fill:#ffffff;"></path>
</g>
<g id="text_32">
<g clip-path="url(#p0a4a18b084)">
<!-- 4 -->
<g transform="translate(274.181543 237.408639)scale(0.2 -0.2)">
<use xlink:href="#CrimsonText-Regular-52"></use>
</g>
</g>
</g>
<g id="text_33">
<g clip-path="url(#p0a4a18b084)">
<!-- 4 -->
<g transform="translate(274.181543 237.408639)scale(0.2 -0.2)">
<use xlink:href="#CrimsonText-Regular-52"></use>
</g>
</g>
</g>
<g id="PolyCollection_18">
<path clip-path="url(#p0a4a18b084)" d="M 311.108351 239.133258 
L 311.108351 223.745648 
L 321.599903 223.745648 
L 321.599903 239.133258 
z
" style="fill:#ffffff;"></path>
</g>
<g id="text_34">
<g clip-path="url(#p0a4a18b084)">
<!-- 6 -->
<g transform="translate(311.447342 237.408639)scale(0.2 -0.2)">
<use xlink:href="#CrimsonText-Regular-54"></use>
</g>
</g>
</g>
<g id="text_35">
<g clip-path="url(#p0a4a18b084)">
<!-- 6 -->
<g transform="translate(311.447342 237.408639)scale(0.2 -0.2)">
<use xlink:href="#CrimsonText-Regular-54"></use>
</g>
</g>
</g>
<g id="text_36">
<g clip-path="url(#p0a4a18b084)">
<!-- O -->
<defs>
<path d="M 39.9375 61.03125 
Q 29.390625 61.03125 22.0625 50.140625 
Q 14.75 39.265625 14.75 26.078125 
Q 14.75 16.109375 19.09375 9.65625 
Q 23.4375 3.21875 31.453125 3.21875 
Q 41.609375 3.21875 49.03125 14.296875 
Q 56.453125 25.390625 56.453125 38.578125 
Q 56.453125 48.34375 52.15625 54.6875 
Q 47.859375 61.03125 39.9375 61.03125 
z
M 42.1875 65.140625 
Q 52.046875 65.140625 58.734375 57.765625 
Q 65.4375 50.390625 65.4375 39.9375 
Q 65.4375 29.390625 60.40625 19.921875 
Q 55.375 10.453125 46.875 4.734375 
Q 38.375 -0.984375 28.90625 -0.984375 
Q 18.453125 -0.984375 12.15625 6.484375 
Q 5.859375 13.96875 5.859375 25.296875 
Q 5.859375 35.453125 11.234375 44.78125 
Q 16.609375 54.109375 25 59.625 
Q 33.40625 65.140625 42.1875 65.140625 
z
" id="CrimsonText-Italic-79"></path>
</defs>
<g transform="translate(189.95724 232.685737)scale(0.2 -0.2)">
<use xlink:href="#CrimsonText-Italic-79"></use>
</g>
</g>
</g>
<g id="text_37">
<g clip-path="url(#p0a4a18b084)">
<!-- y -->
<defs>
<path d="M 21.09375 42.484375 
Q 24.03125 42.484375 25.921875 37.5 
Q 27.828125 32.515625 28.515625 24.453125 
Q 29.203125 16.40625 29.390625 11.859375 
Q 29.59375 7.328125 29.59375 2.734375 
Q 33.40625 7.421875 37.203125 14.6875 
Q 41.015625 21.96875 41.015625 27.828125 
Q 41.015625 33.59375 38.578125 38.28125 
Q 39.84375 42.484375 43.453125 42.484375 
Q 47.75 42.484375 47.75 34.765625 
Q 47.75 24.03125 39.34375 10.109375 
Q 30.953125 -3.8125 20.359375 -13.28125 
Q 9.765625 -22.75 3.21875 -22.75 
Q 0.6875 -22.75 -0.96875 -21.578125 
Q -2.640625 -20.40625 -2.640625 -18.75 
Q -2.640625 -15.625 -0.390625 -14.453125 
Q 1.765625 -15.71875 6.15625 -15.71875 
Q 14.265625 -15.71875 20.21875 -7.03125 
Q 22.46875 -3.71875 22.46875 6.0625 
Q 22.46875 10.84375 22.21875 15.578125 
Q 21.96875 20.3125 21.328125 25.296875 
Q 20.703125 30.28125 19.484375 33.34375 
Q 18.265625 36.421875 16.609375 36.421875 
Q 15.71875 36.421875 13.953125 34.765625 
Q 12.203125 33.109375 11.234375 31.84375 
Q 11.03125 31.84375 10.5 32.765625 
Q 9.96875 33.6875 9.96875 34.078125 
Q 10.546875 35.546875 14.59375 39.015625 
Q 18.65625 42.484375 21.09375 42.484375 
z
" id="CrimsonText-Italic-121"></path>
</defs>
<g transform="translate(200.815262 27.401023)scale(0.2 -0.2)">
<use xlink:href="#CrimsonText-Italic-121"></use>
</g>
</g>
</g>
<g id="text_38">
<g clip-path="url(#p0a4a18b084)">
<!-- x -->
<defs>
<path d="M 20.3125 42.484375 
Q 24.421875 42.484375 26.953125 33.984375 
L 29 27.046875 
L 34.765625 36.921875 
Q 37.984375 42.484375 42.96875 42.484375 
Q 46.296875 42.484375 48.640625 40.53125 
Q 49.421875 38.96875 49.421875 37.984375 
Q 49.421875 36.53125 48.390625 35.5 
Q 47.359375 34.46875 46.296875 34.46875 
Q 45.015625 34.46875 43.40625 35.984375 
Q 41.796875 37.5 40.4375 37.5 
Q 39.265625 37.5 37.796875 34.96875 
L 30.46875 22.46875 
L 34.671875 8.6875 
Q 35.640625 5.375 37.3125 5.375 
Q 38.765625 5.375 40.421875 6.890625 
Q 42.09375 8.40625 42.78125 9.671875 
Q 43.171875 9.671875 43.75 8.890625 
Q 44.34375 8.109375 44.34375 7.71875 
Q 44.046875 6.0625 40.71875 2.78125 
Q 37.40625 -0.484375 34.375 -0.484375 
Q 30.28125 -0.484375 27.734375 8.015625 
L 25.484375 15.625 
L 19.34375 4.984375 
Q 16.109375 -0.59375 11.140625 -0.59375 
Q 7.8125 -0.59375 5.46875 1.375 
Q 4.6875 2.734375 4.6875 3.90625 
Q 4.6875 5.375 5.703125 6.390625 
Q 6.734375 7.421875 7.8125 7.421875 
Q 9.078125 7.421875 10.6875 5.90625 
Q 12.3125 4.390625 13.671875 4.390625 
Q 14.84375 4.390625 16.3125 6.9375 
L 24.03125 20.21875 
L 20.015625 33.296875 
Q 19.046875 36.625 17.390625 36.625 
Q 15.921875 36.625 14.25 35.109375 
Q 12.59375 33.59375 11.921875 32.328125 
Q 11.53125 32.328125 10.9375 33.109375 
Q 10.359375 33.890625 10.359375 34.28125 
Q 10.640625 35.9375 13.953125 39.203125 
Q 17.28125 42.484375 20.3125 42.484375 
z
" id="CrimsonText-Italic-120"></path>
</defs>
<g transform="translate(334.437387 223.24334)scale(0.2 -0.2)">
<use xlink:href="#CrimsonText-Italic-120"></use>
</g>
</g>
</g>
<g id="line2d_1">
<defs>
<path d="M 0 3 
C 0.795609 3 1.55874 2.683901 2.12132 2.12132 
C 2.683901 1.55874 3 0.795609 3 0 
C 3 -0.795609 2.683901 -1.55874 2.12132 -2.12132 
C 1.55874 -2.683901 0.795609 -3 0 -3 
C -0.795609 -3 -1.55874 -2.683901 -2.12132 -2.12132 
C -2.683901 -1.55874 -3 -0.795609 -3 0 
C -3 0.795609 -2.683901 1.55874 -2.12132 2.12132 
C -1.55874 2.683901 -0.795609 3 0 3 
z
" id="m72a75a6d15" style="stroke:#000000;"></path>
</defs>
<g clip-path="url(#p0a4a18b084)">
<use style="stroke:#000000;" x="168.190088" xlink:href="#m72a75a6d15" y="106.939694"></use>
</g>
</g>
<g id="line2d_2">
<path clip-path="url(#p0a4a18b084)" d="M 111.076421 44.193917 
L 317.403282 270.867143 
L 317.403282 270.867143 
" style="fill:none;stroke:#000000;stroke-linecap:square;stroke-width:2.3;"></path>
</g>
<g id="line2d_3">
<path clip-path="url(#p0a4a18b084)" d="M 143.595329 46.182822 
L 145.838012 56.009197 
L 148.080695 64.619612 
L 150.323378 72.164534 
L 152.566062 78.775813 
L 154.808745 84.568981 
L 157.051428 89.645277 
L 159.294112 94.093408 
L 161.536795 97.991107 
L 163.779478 101.406487 
L 166.022161 104.399233 
L 168.264845 107.021642 
L 170.507528 109.319542 
L 172.750211 111.333089 
L 174.992894 113.097471 
L 177.796249 114.999161 
L 180.599603 116.611395 
L 183.402957 117.978231 
L 186.766982 119.346691 
L 190.131007 120.469169 
L 194.055702 121.526366 
L 198.541069 122.470158 
L 203.587106 123.272675 
L 209.193814 123.924805 
L 215.921864 124.47008 
L 224.331926 124.908104 
L 234.984672 125.226532 
L 250.122784 125.44178 
L 276.474313 125.559667 
L 317.403282 125.588501 
L 317.403282 125.588501 
" style="fill:none;stroke:#000000;stroke-linecap:square;stroke-width:2.3;"></path>
</g>
</g>
</g>
<defs>
<clipPath id="p0a4a18b084">
<rect height="347.76" width="339.296814" x="15.211593" y="7.2"></rect>
</clipPath>
</defs>
</svg>