<svg aria-label="Graph of a curve in the x y plane with the origin labeled O. The x axis ranges from negative 10 to 10. The y axis ranges from negative 6 to 12. Refer to long description." role="img" version="1.1" viewBox="0 0 380.424425 362.16" width="380.424425px" xmlns="http://www.w3.org/2000/svg" xmlns:xlink="http://www.w3.org/1999/xlink">
<defs>
<style type="text/css">
*{stroke-linecap:butt;stroke-linejoin:round;}
  </style>
</defs>
<g id="figure_1">
<g id="patch_1">
<path d="M 0 362.16 
L 380.424425 362.16 
L 380.424425 0 
L 0 0 
z
" style="fill:none;"></path>
</g>
<g id="axes_1">
<g id="patch_2">
<path d="M 10.344425 344.88 
L 373.224425 344.88 
L 373.224425 12.24 
L 10.344425 12.24 
z
" style="fill:none;"></path>
</g>
<g id="matplotlib.axis_1"></g>
<g id="matplotlib.axis_2"></g>
</g>
<g id="axes_2">
<g id="patch_3">
<path d="M 7.2 354.96 
L 368.80885 354.96 
L 368.80885 7.2 
L 7.2 7.2 
z
" style="fill:none;"></path>
</g>
<g id="matplotlib.axis_3">
<g id="xtick_1"></g>
<g id="xtick_2"></g>
<g id="xtick_3"></g>
<g id="xtick_4"></g>
<g id="xtick_5"></g>
<g id="xtick_6"></g>
<g id="xtick_7"></g>
<g id="xtick_8"></g>
<g id="xtick_9"></g>
<g id="xtick_10"></g>
<g id="xtick_11"></g>
</g>
<g id="matplotlib.axis_4">
<g id="ytick_1"></g>
<g id="ytick_2"></g>
<g id="ytick_3"></g>
<g id="ytick_4"></g>
<g id="ytick_5"></g>
<g id="ytick_6"></g>
<g id="ytick_7"></g>
<g id="ytick_8"></g>
<g id="ytick_9"></g>
</g>
<g id="LineCollection_1">
<path clip-path="url(#pbe2bd04428)" d="M 50.914803 337.753854 
L 50.914803 43.990378 
" style="fill:none;stroke:#000000;stroke-width:0.708982;"></path>
<path clip-path="url(#pbe2bd04428)" d="M 64.90354 337.753854 
L 64.90354 43.990378 
" style="fill:none;stroke:#000000;stroke-width:0.708982;"></path>
<path clip-path="url(#pbe2bd04428)" d="M 78.892277 337.753854 
L 78.892277 43.990378 
" style="fill:none;stroke:#000000;stroke-width:0.708982;"></path>
<path clip-path="url(#pbe2bd04428)" d="M 92.881014 337.753854 
L 92.881014 43.990378 
" style="fill:none;stroke:#000000;stroke-width:0.708982;"></path>
<path clip-path="url(#pbe2bd04428)" d="M 106.869751 337.753854 
L 106.869751 43.990378 
" style="fill:none;stroke:#000000;stroke-width:0.708982;"></path>
<path clip-path="url(#pbe2bd04428)" d="M 120.858488 337.753854 
L 120.858488 43.990378 
" style="fill:none;stroke:#000000;stroke-width:0.708982;"></path>
<path clip-path="url(#pbe2bd04428)" d="M 134.847224 337.753854 
L 134.847224 43.990378 
" style="fill:none;stroke:#000000;stroke-width:0.708982;"></path>
<path clip-path="url(#pbe2bd04428)" d="M 148.835961 337.753854 
L 148.835961 43.990378 
" style="fill:none;stroke:#000000;stroke-width:0.708982;"></path>
<path clip-path="url(#pbe2bd04428)" d="M 162.824698 337.753854 
L 162.824698 43.990378 
" style="fill:none;stroke:#000000;stroke-width:0.708982;"></path>
<path clip-path="url(#pbe2bd04428)" d="M 176.813435 337.753854 
L 176.813435 43.990378 
" style="fill:none;stroke:#000000;stroke-width:0.708982;"></path>
<path clip-path="url(#pbe2bd04428)" d="M 204.790909 337.753854 
L 204.790909 43.990378 
" style="fill:none;stroke:#000000;stroke-width:0.708982;"></path>
<path clip-path="url(#pbe2bd04428)" d="M 218.779646 337.753854 
L 218.779646 43.990378 
" style="fill:none;stroke:#000000;stroke-width:0.708982;"></path>
<path clip-path="url(#pbe2bd04428)" d="M 232.768383 337.753854 
L 232.768383 43.990378 
" style="fill:none;stroke:#000000;stroke-width:0.708982;"></path>
<path clip-path="url(#pbe2bd04428)" d="M 246.75712 337.753854 
L 246.75712 43.990378 
" style="fill:none;stroke:#000000;stroke-width:0.708982;"></path>
<path clip-path="url(#pbe2bd04428)" d="M 260.745857 337.753854 
L 260.745857 43.990378 
" style="fill:none;stroke:#000000;stroke-width:0.708982;"></path>
<path clip-path="url(#pbe2bd04428)" d="M 274.734594 337.753854 
L 274.734594 43.990378 
" style="fill:none;stroke:#000000;stroke-width:0.708982;"></path>
<path clip-path="url(#pbe2bd04428)" d="M 288.723331 337.753854 
L 288.723331 43.990378 
" style="fill:none;stroke:#000000;stroke-width:0.708982;"></path>
<path clip-path="url(#pbe2bd04428)" d="M 302.712068 337.753854 
L 302.712068 43.990378 
" style="fill:none;stroke:#000000;stroke-width:0.708982;"></path>
<path clip-path="url(#pbe2bd04428)" d="M 316.700805 337.753854 
L 316.700805 43.990378 
" style="fill:none;stroke:#000000;stroke-width:0.708982;"></path>
<path clip-path="url(#pbe2bd04428)" d="M 330.689541 337.753854 
L 330.689541 43.990378 
" style="fill:none;stroke:#000000;stroke-width:0.708982;"></path>
<path clip-path="url(#pbe2bd04428)" d="M 43.920434 330.759485 
L 337.68391 330.759485 
" style="fill:none;stroke:#000000;stroke-width:0.708982;"></path>
<path clip-path="url(#pbe2bd04428)" d="M 43.920434 315.216444 
L 337.68391 315.216444 
" style="fill:none;stroke:#000000;stroke-width:0.708982;"></path>
<path clip-path="url(#pbe2bd04428)" d="M 43.920434 299.673403 
L 337.68391 299.673403 
" style="fill:none;stroke:#000000;stroke-width:0.708982;"></path>
<path clip-path="url(#pbe2bd04428)" d="M 43.920434 284.130362 
L 337.68391 284.130362 
" style="fill:none;stroke:#000000;stroke-width:0.708982;"></path>
<path clip-path="url(#pbe2bd04428)" d="M 43.920434 268.587321 
L 337.68391 268.587321 
" style="fill:none;stroke:#000000;stroke-width:0.708982;"></path>
<path clip-path="url(#pbe2bd04428)" d="M 43.920434 253.04428 
L 337.68391 253.04428 
" style="fill:none;stroke:#000000;stroke-width:0.708982;"></path>
<path clip-path="url(#pbe2bd04428)" d="M 43.920434 221.958198 
L 337.68391 221.958198 
" style="fill:none;stroke:#000000;stroke-width:0.708982;"></path>
<path clip-path="url(#pbe2bd04428)" d="M 43.920434 206.415157 
L 337.68391 206.415157 
" style="fill:none;stroke:#000000;stroke-width:0.708982;"></path>
<path clip-path="url(#pbe2bd04428)" d="M 43.920434 190.872116 
L 337.68391 190.872116 
" style="fill:none;stroke:#000000;stroke-width:0.708982;"></path>
<path clip-path="url(#pbe2bd04428)" d="M 43.920434 175.329075 
L 337.68391 175.329075 
" style="fill:none;stroke:#000000;stroke-width:0.708982;"></path>
<path clip-path="url(#pbe2bd04428)" d="M 43.920434 159.786034 
L 337.68391 159.786034 
" style="fill:none;stroke:#000000;stroke-width:0.708982;"></path>
<path clip-path="url(#pbe2bd04428)" d="M 43.920434 144.242993 
L 337.68391 144.242993 
" style="fill:none;stroke:#000000;stroke-width:0.708982;"></path>
<path clip-path="url(#pbe2bd04428)" d="M 43.920434 128.699952 
L 337.68391 128.699952 
" style="fill:none;stroke:#000000;stroke-width:0.708982;"></path>
<path clip-path="url(#pbe2bd04428)" d="M 43.920434 113.156911 
L 337.68391 113.156911 
" style="fill:none;stroke:#000000;stroke-width:0.708982;"></path>
<path clip-path="url(#pbe2bd04428)" d="M 43.920434 97.61387 
L 337.68391 97.61387 
" style="fill:none;stroke:#000000;stroke-width:0.708982;"></path>
<path clip-path="url(#pbe2bd04428)" d="M 43.920434 82.070829 
L 337.68391 82.070829 
" style="fill:none;stroke:#000000;stroke-width:0.708982;"></path>
<path clip-path="url(#pbe2bd04428)" d="M 43.920434 66.527788 
L 337.68391 66.527788 
" style="fill:none;stroke:#000000;stroke-width:0.708982;"></path>
<path clip-path="url(#pbe2bd04428)" d="M 43.920434 50.984747 
L 337.68391 50.984747 
" style="fill:none;stroke:#000000;stroke-width:0.708982;"></path>
</g>
<g id="LineCollection_2">
<path clip-path="url(#pbe2bd04428)" d="M 43.920434 237.501239 
L 344.678278 237.501239 
" style="fill:none;stroke:#000000;stroke-width:1.949699;"></path>
</g>
<g id="PathCollection_1">
<defs>
<path d="M 340.857948 -123.34616 
L 344.678278 -124.658761 
L 340.857948 -125.971362 
L 340.857948 -123.34616 
L 344.678278 -124.658761 
" id="m880f3e5f6b" style="stroke:#000000;stroke-linejoin:miter;stroke-width:1.949699;"></path>
</defs>
<g clip-path="url(#pbe2bd04428)">
<use style="stroke:#000000;stroke-linejoin:miter;stroke-width:1.949699;" x="0" xlink:href="#m880f3e5f6b" y="362.16"></use>
</g>
</g>
<g id="LineCollection_3">
<path clip-path="url(#pbe2bd04428)" d="M 190.802172 337.753854 
L 190.802172 36.99601 
" style="fill:none;stroke:#000000;stroke-width:1.949699;"></path>
</g>
<g id="PathCollection_2">
<defs>
<path d="M 192.154895 -320.398339 
L 190.802172 -325.16399 
L 189.449449 -320.398339 
L 192.154895 -320.398339 
L 190.802172 -325.16399 
" id="m0534a82512" style="stroke:#000000;stroke-linejoin:miter;stroke-width:1.949699;"></path>
</defs>
<g clip-path="url(#pbe2bd04428)">
<use style="stroke:#000000;stroke-linejoin:miter;stroke-width:1.949699;" x="0" xlink:href="#m0534a82512" y="362.16"></use>
</g>
</g>
<g id="LineCollection_4">
<path clip-path="url(#pbe2bd04428)" d="M 50.914803 242.654984 
L 50.914803 232.347494 
" style="fill:none;stroke:#000000;stroke-width:0.886227;"></path>
<path clip-path="url(#pbe2bd04428)" d="M 64.90354 242.654984 
L 64.90354 232.347494 
" style="fill:none;stroke:#000000;stroke-width:0.886227;"></path>
<path clip-path="url(#pbe2bd04428)" d="M 78.892277 242.654984 
L 78.892277 232.347494 
" style="fill:none;stroke:#000000;stroke-width:0.886227;"></path>
<path clip-path="url(#pbe2bd04428)" d="M 92.881014 242.654984 
L 92.881014 232.347494 
" style="fill:none;stroke:#000000;stroke-width:0.886227;"></path>
<path clip-path="url(#pbe2bd04428)" d="M 106.869751 242.654984 
L 106.869751 232.347494 
" style="fill:none;stroke:#000000;stroke-width:0.886227;"></path>
<path clip-path="url(#pbe2bd04428)" d="M 120.858488 242.654984 
L 120.858488 232.347494 
" style="fill:none;stroke:#000000;stroke-width:0.886227;"></path>
<path clip-path="url(#pbe2bd04428)" d="M 134.847224 242.654984 
L 134.847224 232.347494 
" style="fill:none;stroke:#000000;stroke-width:0.886227;"></path>
<path clip-path="url(#pbe2bd04428)" d="M 148.835961 242.654984 
L 148.835961 232.347494 
" style="fill:none;stroke:#000000;stroke-width:0.886227;"></path>
<path clip-path="url(#pbe2bd04428)" d="M 162.824698 242.654984 
L 162.824698 232.347494 
" style="fill:none;stroke:#000000;stroke-width:0.886227;"></path>
<path clip-path="url(#pbe2bd04428)" d="M 176.813435 242.654984 
L 176.813435 232.347494 
" style="fill:none;stroke:#000000;stroke-width:0.886227;"></path>
<path clip-path="url(#pbe2bd04428)" d="M 204.790909 242.654984 
L 204.790909 232.347494 
" style="fill:none;stroke:#000000;stroke-width:0.886227;"></path>
<path clip-path="url(#pbe2bd04428)" d="M 218.779646 242.654984 
L 218.779646 232.347494 
" style="fill:none;stroke:#000000;stroke-width:0.886227;"></path>
<path clip-path="url(#pbe2bd04428)" d="M 232.768383 242.654984 
L 232.768383 232.347494 
" style="fill:none;stroke:#000000;stroke-width:0.886227;"></path>
<path clip-path="url(#pbe2bd04428)" d="M 246.75712 242.654984 
L 246.75712 232.347494 
" style="fill:none;stroke:#000000;stroke-width:0.886227;"></path>
<path clip-path="url(#pbe2bd04428)" d="M 260.745857 242.654984 
L 260.745857 232.347494 
" style="fill:none;stroke:#000000;stroke-width:0.886227;"></path>
<path clip-path="url(#pbe2bd04428)" d="M 274.734594 242.654984 
L 274.734594 232.347494 
" style="fill:none;stroke:#000000;stroke-width:0.886227;"></path>
<path clip-path="url(#pbe2bd04428)" d="M 288.723331 242.654984 
L 288.723331 232.347494 
" style="fill:none;stroke:#000000;stroke-width:0.886227;"></path>
<path clip-path="url(#pbe2bd04428)" d="M 302.712068 242.654984 
L 302.712068 232.347494 
" style="fill:none;stroke:#000000;stroke-width:0.886227;"></path>
<path clip-path="url(#pbe2bd04428)" d="M 316.700805 242.654984 
L 316.700805 232.347494 
" style="fill:none;stroke:#000000;stroke-width:0.886227;"></path>
<path clip-path="url(#pbe2bd04428)" d="M 330.689541 242.654984 
L 330.689541 232.347494 
" style="fill:none;stroke:#000000;stroke-width:0.886227;"></path>
</g>
<g id="LineCollection_5">
<path clip-path="url(#pbe2bd04428)" d="M 185.648427 330.759485 
L 195.955917 330.759485 
" style="fill:none;stroke:#000000;stroke-width:0.886227;"></path>
<path clip-path="url(#pbe2bd04428)" d="M 185.648427 315.216444 
L 195.955917 315.216444 
" style="fill:none;stroke:#000000;stroke-width:0.886227;"></path>
<path clip-path="url(#pbe2bd04428)" d="M 185.648427 299.673403 
L 195.955917 299.673403 
" style="fill:none;stroke:#000000;stroke-width:0.886227;"></path>
<path clip-path="url(#pbe2bd04428)" d="M 185.648427 284.130362 
L 195.955917 284.130362 
" style="fill:none;stroke:#000000;stroke-width:0.886227;"></path>
<path clip-path="url(#pbe2bd04428)" d="M 185.648427 268.587321 
L 195.955917 268.587321 
" style="fill:none;stroke:#000000;stroke-width:0.886227;"></path>
<path clip-path="url(#pbe2bd04428)" d="M 185.648427 253.04428 
L 195.955917 253.04428 
" style="fill:none;stroke:#000000;stroke-width:0.886227;"></path>
<path clip-path="url(#pbe2bd04428)" d="M 185.648427 221.958198 
L 195.955917 221.958198 
" style="fill:none;stroke:#000000;stroke-width:0.886227;"></path>
<path clip-path="url(#pbe2bd04428)" d="M 185.648427 206.415157 
L 195.955917 206.415157 
" style="fill:none;stroke:#000000;stroke-width:0.886227;"></path>
<path clip-path="url(#pbe2bd04428)" d="M 185.648427 190.872116 
L 195.955917 190.872116 
" style="fill:none;stroke:#000000;stroke-width:0.886227;"></path>
<path clip-path="url(#pbe2bd04428)" d="M 185.648427 175.329075 
L 195.955917 175.329075 
" style="fill:none;stroke:#000000;stroke-width:0.886227;"></path>
<path clip-path="url(#pbe2bd04428)" d="M 185.648427 159.786034 
L 195.955917 159.786034 
" style="fill:none;stroke:#000000;stroke-width:0.886227;"></path>
<path clip-path="url(#pbe2bd04428)" d="M 185.648427 144.242993 
L 195.955917 144.242993 
" style="fill:none;stroke:#000000;stroke-width:0.886227;"></path>
<path clip-path="url(#pbe2bd04428)" d="M 185.648427 128.699952 
L 195.955917 128.699952 
" style="fill:none;stroke:#000000;stroke-width:0.886227;"></path>
<path clip-path="url(#pbe2bd04428)" d="M 185.648427 113.156911 
L 195.955917 113.156911 
" style="fill:none;stroke:#000000;stroke-width:0.886227;"></path>
<path clip-path="url(#pbe2bd04428)" d="M 185.648427 97.61387 
L 195.955917 97.61387 
" style="fill:none;stroke:#000000;stroke-width:0.886227;"></path>
<path clip-path="url(#pbe2bd04428)" d="M 185.648427 82.070829 
L 195.955917 82.070829 
" style="fill:none;stroke:#000000;stroke-width:0.886227;"></path>
<path clip-path="url(#pbe2bd04428)" d="M 185.648427 66.527788 
L 195.955917 66.527788 
" style="fill:none;stroke:#000000;stroke-width:0.886227;"></path>
<path clip-path="url(#pbe2bd04428)" d="M 185.648427 50.984747 
L 195.955917 50.984747 
" style="fill:none;stroke:#000000;stroke-width:0.886227;"></path>
</g>
<g id="PolyCollection_1">
<path clip-path="url(#pbe2bd04428)" d="M 170.868222 339.152727 
L 170.868222 323.765117 
L 181.359775 323.765117 
L 181.359775 339.152727 
z
" style="fill:#ffffff;"></path>
</g>
<g id="PolyCollection_2">
<path clip-path="url(#pbe2bd04428)" d="M 160.026951 329.71033 
L 160.026951 335.655543 
L 174.015688 335.655543 
L 174.015688 329.71033 
z
" style="fill:#ffffff;"></path>
</g>
<g id="text_1">
<g clip-path="url(#pbe2bd04428)">
<!-- – -->
<defs>
<path d="M 2.734375 20.40625 
Q 2.734375 21.390625 3.078125 23.484375 
Q 3.421875 25.59375 4.109375 25.59375 
L 45.609375 25.59375 
Q 46.1875 25.59375 46.1875 24.703125 
Q 46.1875 23.734375 45.3125 20.21875 
Q 45.21875 19.921875 45.0625 19.765625 
Q 44.921875 19.625 44.734375 19.53125 
L 44.625 19.53125 
L 3.328125 19.53125 
Q 3.328125 19.53125 2.9375 19.734375 
Q 2.734375 20.015625 2.734375 20.40625 
z
" id="CrimsonText-Regular-8211"></path>
</defs>
<g transform="translate(161.121347 337.07839)scale(0.2 -0.2)">
<use xlink:href="#CrimsonText-Regular-8211"></use>
</g>
</g>
</g>
<g id="text_2">
<g clip-path="url(#pbe2bd04428)">
<!-- 6 -->
<defs>
<path d="M 12.703125 20.515625 
Q 12.703125 13.671875 15.96875 8.4375 
Q 19.234375 3.21875 24.125 3.21875 
Q 28.421875 3.21875 31.640625 6.984375 
Q 34.859375 10.75 34.859375 17 
Q 34.859375 23.640625 31.6875 27.9375 
Q 28.515625 32.234375 22.359375 32.234375 
Q 19.734375 32.234375 17.28125 30.8125 
Q 14.84375 29.390625 14.15625 27.828125 
Q 12.796875 24.703125 12.703125 20.515625 
z
M 22.953125 -0.59375 
Q 14.84375 -0.59375 9.5625 5.703125 
Q 4.296875 12.015625 4.296875 20.3125 
Q 4.296875 27.9375 7.328125 34.96875 
Q 10.359375 42 15.484375 47.3125 
Q 20.609375 52.640625 26.515625 56.59375 
Q 32.421875 60.546875 39.0625 63.1875 
Q 39.65625 63.1875 40.484375 62.109375 
Q 41.3125 61.03125 41.3125 60.546875 
Q 31.453125 56.25 24.5625 50.140625 
Q 17.671875 44.046875 15.046875 34.375 
Q 14.84375 33.40625 15.140625 33.40625 
Q 15.328125 33.5 15.4375 33.59375 
Q 16.796875 34.671875 20.359375 35.9375 
Q 23.921875 37.203125 26.859375 37.203125 
Q 33.6875 37.203125 38.328125 31.484375 
Q 42.96875 25.78125 42.96875 19.046875 
Q 42.96875 10.9375 36.90625 5.171875 
Q 30.859375 -0.59375 22.953125 -0.59375 
z
" id="CrimsonText-Regular-54"></path>
</defs>
<g transform="translate(171.556931 337.07839)scale(0.2 -0.2)">
<use xlink:href="#CrimsonText-Regular-54"></use>
</g>
</g>
</g>
<g id="text_3">
<g clip-path="url(#pbe2bd04428)">
<!-- 6 -->
<g transform="translate(171.556931 337.07839)scale(0.2 -0.2)">
<use xlink:href="#CrimsonText-Regular-54"></use>
</g>
</g>
</g>
<g id="PolyCollection_3">
<path clip-path="url(#pbe2bd04428)" d="M 170.868222 308.066645 
L 170.868222 292.679035 
L 181.359775 292.679035 
L 181.359775 308.066645 
z
" style="fill:#ffffff;"></path>
</g>
<g id="PolyCollection_4">
<path clip-path="url(#pbe2bd04428)" d="M 160.026951 298.624248 
L 160.026951 304.569461 
L 174.015688 304.569461 
L 174.015688 298.624248 
z
" style="fill:#ffffff;"></path>
</g>
<g id="text_4">
<g clip-path="url(#pbe2bd04428)">
<!-- – -->
<g transform="translate(161.121347 305.992308)scale(0.2 -0.2)">
<use xlink:href="#CrimsonText-Regular-8211"></use>
</g>
</g>
</g>
<g id="text_5">
<g clip-path="url(#pbe2bd04428)">
<!-- 4 -->
<defs>
<path d="M 35.0625 62.984375 
Q 36.328125 62.984375 36.328125 62.015625 
L 36.328125 22.65625 
L 42.390625 22.65625 
Q 43.953125 22.65625 43.953125 17.96875 
Q 43.953125 17.390625 43.359375 17 
Q 43.359375 17 36.328125 17 
L 36.328125 -0.09375 
Q 36.03125 -0.59375 32.234375 -0.59375 
Q 28.609375 -0.59375 28.609375 0.203125 
L 28.609375 17 
L 3.90625 17 
Q 3.21875 17.875 3.21875 20.015625 
L 32.8125 61.8125 
Q 33.6875 62.984375 35.0625 62.984375 
z
M 28.609375 22.65625 
L 28.609375 48.640625 
Q 28.609375 49.515625 28.125 49.515625 
Q 28.125 49.421875 28.03125 49.3125 
L 10.25 23.828125 
Q 10.15625 23.734375 10.15625 23.53125 
Q 10.15625 22.65625 10.84375 22.65625 
z
" id="CrimsonText-Regular-52"></path>
</defs>
<g transform="translate(171.594431 305.992308)scale(0.2 -0.2)">
<use xlink:href="#CrimsonText-Regular-52"></use>
</g>
</g>
</g>
<g id="text_6">
<g clip-path="url(#pbe2bd04428)">
<!-- 4 -->
<g transform="translate(171.594431 305.992308)scale(0.2 -0.2)">
<use xlink:href="#CrimsonText-Regular-52"></use>
</g>
</g>
</g>
<g id="PolyCollection_5">
<path clip-path="url(#pbe2bd04428)" d="M 170.868222 276.980563 
L 170.868222 261.592953 
L 181.359775 261.592953 
L 181.359775 276.980563 
z
" style="fill:#ffffff;"></path>
</g>
<g id="PolyCollection_6">
<path clip-path="url(#pbe2bd04428)" d="M 160.026951 267.538166 
L 160.026951 273.483379 
L 174.015688 273.483379 
L 174.015688 267.538166 
z
" style="fill:#ffffff;"></path>
</g>
<g id="text_7">
<g clip-path="url(#pbe2bd04428)">
<!-- – -->
<g transform="translate(161.121347 274.906226)scale(0.2 -0.2)">
<use xlink:href="#CrimsonText-Regular-8211"></use>
</g>
</g>
</g>
<g id="text_8">
<g clip-path="url(#pbe2bd04428)">
<!-- 2 -->
<defs>
<path d="M 25 62.703125 
Q 31.546875 62.703125 35.296875 57.8125 
Q 39.0625 52.9375 39.0625 46.78125 
Q 39.0625 43.171875 37.84375 39.3125 
Q 36.625 35.453125 34.03125 31.4375 
Q 31.453125 27.4375 29.34375 24.453125 
Q 27.25 21.484375 23.53125 17.578125 
Q 19.828125 13.671875 18.40625 12.203125 
Q 17 10.75 13.875 7.71875 
Q 13.578125 7.234375 14.0625 7.03125 
L 32.90625 7.03125 
Q 35.640625 7.03125 36.859375 8.59375 
Q 38.09375 10.15625 39.359375 14.546875 
Q 39.75 15.625 40.71875 15.625 
Q 42 15.625 42.484375 15.234375 
Q 40.140625 3.515625 39.84375 1.5625 
Q 39.65625 0 37.890625 0 
L 5.859375 0 
Q 5.46875 0 5.125 1.125 
Q 4.78125 2.25 4.78125 2.9375 
Q 15.4375 13.671875 23.046875 25.234375 
Q 30.671875 36.8125 30.671875 44.828125 
Q 30.671875 50.09375 28.03125 52.96875 
Q 25.390625 55.859375 21.09375 55.859375 
Q 12.984375 55.859375 8.109375 47.75 
Q 7.515625 47.75 6.875 48.390625 
Q 6.25 49.03125 6.25 49.3125 
Q 6.546875 50.484375 7.859375 52.484375 
Q 9.1875 54.5 11.375 56.890625 
Q 13.578125 59.28125 17.234375 60.984375 
Q 20.90625 62.703125 25 62.703125 
z
" id="CrimsonText-Regular-50"></path>
</defs>
<g transform="translate(171.556931 274.906226)scale(0.2 -0.2)">
<use xlink:href="#CrimsonText-Regular-50"></use>
</g>
</g>
</g>
<g id="text_9">
<g clip-path="url(#pbe2bd04428)">
<!-- 2 -->
<g transform="translate(171.556931 274.906226)scale(0.2 -0.2)">
<use xlink:href="#CrimsonText-Regular-50"></use>
</g>
</g>
</g>
<g id="PolyCollection_7">
<path clip-path="url(#pbe2bd04428)" d="M 170.868222 214.808399 
L 170.868222 199.420788 
L 181.359775 199.420788 
L 181.359775 214.808399 
z
" style="fill:#ffffff;"></path>
</g>
<g id="text_10">
<g clip-path="url(#pbe2bd04428)">
<!-- 2 -->
<g transform="translate(171.556931 212.734061)scale(0.2 -0.2)">
<use xlink:href="#CrimsonText-Regular-50"></use>
</g>
</g>
</g>
<g id="text_11">
<g clip-path="url(#pbe2bd04428)">
<!-- 2 -->
<g transform="translate(171.556931 212.734061)scale(0.2 -0.2)">
<use xlink:href="#CrimsonText-Regular-50"></use>
</g>
</g>
</g>
<g id="PolyCollection_8">
<path clip-path="url(#pbe2bd04428)" d="M 170.868222 183.722317 
L 170.868222 168.334706 
L 181.359775 168.334706 
L 181.359775 183.722317 
z
" style="fill:#ffffff;"></path>
</g>
<g id="text_12">
<g clip-path="url(#pbe2bd04428)">
<!-- 4 -->
<g transform="translate(171.594431 181.647979)scale(0.2 -0.2)">
<use xlink:href="#CrimsonText-Regular-52"></use>
</g>
</g>
</g>
<g id="text_13">
<g clip-path="url(#pbe2bd04428)">
<!-- 4 -->
<g transform="translate(171.594431 181.647979)scale(0.2 -0.2)">
<use xlink:href="#CrimsonText-Regular-52"></use>
</g>
</g>
</g>
<g id="PolyCollection_9">
<path clip-path="url(#pbe2bd04428)" d="M 170.868222 152.636235 
L 170.868222 137.248624 
L 181.359775 137.248624 
L 181.359775 152.636235 
z
" style="fill:#ffffff;"></path>
</g>
<g id="text_14">
<g clip-path="url(#pbe2bd04428)">
<!-- 6 -->
<g transform="translate(171.556931 150.561897)scale(0.2 -0.2)">
<use xlink:href="#CrimsonText-Regular-54"></use>
</g>
</g>
</g>
<g id="text_15">
<g clip-path="url(#pbe2bd04428)">
<!-- 6 -->
<g transform="translate(171.556931 150.561897)scale(0.2 -0.2)">
<use xlink:href="#CrimsonText-Regular-54"></use>
</g>
</g>
</g>
<g id="PolyCollection_10">
<path clip-path="url(#pbe2bd04428)" d="M 170.868222 121.550153 
L 170.868222 106.162542 
L 181.359775 106.162542 
L 181.359775 121.550153 
z
" style="fill:#ffffff;"></path>
</g>
<g id="text_16">
<g clip-path="url(#pbe2bd04428)">
<!-- 8 -->
<defs>
<path d="M 23.53125 2.640625 
Q 28.421875 2.640625 31.25 5.5625 
Q 34.078125 8.5 34.078125 13.484375 
Q 34.078125 16.3125 32.421875 19.09375 
Q 30.765625 21.875 28.21875 24.015625 
Q 25.6875 26.171875 24.265625 27.140625 
Q 22.859375 28.125 21.578125 28.8125 
Q 21.1875 29 21 29 
Q 20.703125 29 20.609375 28.90625 
Q 16.5 26.375 14.6875 23.1875 
Q 12.890625 20.015625 12.890625 15.328125 
Q 12.890625 9.671875 16.109375 6.15625 
Q 19.34375 2.640625 23.53125 2.640625 
z
M 23.53125 59.375 
Q 19.921875 59.375 17.53125 56.25 
Q 15.140625 53.125 15.140625 48.046875 
Q 15.140625 41.40625 25.296875 35.546875 
Q 25.6875 35.359375 25.875 35.359375 
Q 26.171875 35.359375 26.46875 35.546875 
Q 33.109375 39.9375 33.109375 47.46875 
Q 33.109375 52.046875 30.421875 55.703125 
Q 27.734375 59.375 23.53125 59.375 
z
M 24.125 62.796875 
Q 30.859375 62.796875 35.5 58.734375 
Q 40.140625 54.6875 40.140625 47.953125 
Q 40.140625 40.53125 29.203125 33.59375 
Q 28.515625 33.40625 29.203125 33.015625 
Q 34.28125 30.078125 38.140625 25.625 
Q 42 21.1875 42 16.3125 
Q 42 9.078125 36.375 4.09375 
Q 30.765625 -0.875 23.34375 -0.875 
Q 15.234375 -0.875 10.203125 3.515625 
Q 5.171875 7.90625 5.171875 15.046875 
Q 5.171875 16.3125 5.46875 17.53125 
Q 5.765625 18.75 6.109375 19.71875 
Q 6.453125 20.703125 7.234375 21.828125 
Q 8.015625 22.953125 8.546875 23.6875 
Q 9.078125 24.421875 10.15625 25.390625 
Q 11.234375 26.375 11.71875 26.8125 
Q 12.203125 27.25 13.46875 28.125 
Q 14.75 29 15.09375 29.25 
Q 15.4375 29.5 16.609375 30.28125 
L 17.875 31.0625 
Q 18.359375 31.34375 17.875 31.640625 
Q 14.0625 33.890625 10.984375 37.9375 
Q 7.90625 42 7.90625 46.875 
Q 7.90625 53.125 12.78125 57.953125 
Q 17.671875 62.796875 24.125 62.796875 
z
" id="CrimsonText-Regular-56"></path>
</defs>
<g transform="translate(171.556931 119.475815)scale(0.2 -0.2)">
<use xlink:href="#CrimsonText-Regular-56"></use>
</g>
</g>
</g>
<g id="text_17">
<g clip-path="url(#pbe2bd04428)">
<!-- 8 -->
<g transform="translate(171.556931 119.475815)scale(0.2 -0.2)">
<use xlink:href="#CrimsonText-Regular-56"></use>
</g>
</g>
</g>
<g id="PolyCollection_11">
<path clip-path="url(#pbe2bd04428)" d="M 162.125261 90.464071 
L 162.125261 75.07646 
L 181.709493 75.07646 
L 181.709493 90.464071 
z
" style="fill:#ffffff;"></path>
</g>
<g id="text_18">
<g clip-path="url(#pbe2bd04428)">
<!-- 10 -->
<defs>
<path d="M 12.796875 48.4375 
Q 12.203125 48.734375 11.609375 49.5625 
Q 11.03125 50.390625 11.03125 50.875 
Q 11.03125 51.265625 11.234375 51.46875 
Q 27.734375 62.703125 28.125 62.703125 
L 28.328125 62.703125 
Q 29.109375 62.703125 29.5 60.84375 
Q 28.515625 57.625 28.515625 51.65625 
L 28.515625 13.1875 
Q 28.515625 7.515625 29.296875 4.5 
Q 29.5 3.8125 32.171875 3.171875 
Q 34.859375 2.546875 35.84375 2.546875 
Q 36.234375 2.546875 36.234375 0.78125 
Q 36.234375 -0.09375 36.140625 -0.296875 
Q 26.375 0.203125 24.3125 0.203125 
Q 22.75 0.203125 12.984375 -0.296875 
Q 12.59375 0.09375 12.59375 1.3125 
Q 12.59375 2.546875 12.984375 2.546875 
Q 14.265625 2.546875 16.9375 3.171875 
Q 19.625 3.8125 19.828125 4.5 
Q 20.40625 6.84375 20.40625 10.0625 
L 20.40625 45.21875 
Q 20.40625 48.046875 20.203125 49.515625 
Q 20.015625 50.984375 19.765625 51.3125 
Q 19.53125 51.65625 19.046875 51.65625 
Q 18.453125 51.65625 17.328125 51.0625 
Q 16.21875 50.484375 14.75 49.609375 
Q 13.28125 48.734375 12.796875 48.4375 
z
" id="CrimsonText-Regular-49"></path>
<path d="M 10.9375 31.25 
Q 10.9375 19.53125 14.359375 11.46875 
Q 17.78125 3.421875 23.140625 3.421875 
Q 29.390625 3.421875 32.859375 11.515625 
Q 36.328125 19.625 36.328125 31.734375 
Q 36.328125 43.359375 32.90625 51.125 
Q 29.5 58.890625 24.125 58.890625 
Q 18.171875 58.890625 14.546875 50.96875 
Q 10.9375 43.0625 10.9375 31.25 
z
M 2.34375 31.15625 
Q 2.34375 44.4375 8.109375 53.515625 
Q 13.875 62.59375 23.640625 62.59375 
Q 33.5 62.59375 39.203125 53.5625 
Q 44.921875 44.53125 44.921875 31.15625 
Q 44.921875 17.875 39.15625 8.78125 
Q 33.40625 -0.296875 23.640625 -0.296875 
Q 13.96875 -0.296875 8.15625 8.828125 
Q 2.34375 17.96875 2.34375 31.15625 
z
" id="CrimsonText-Regular-48"></path>
</defs>
<g transform="translate(162.103806 88.389733)scale(0.2 -0.2)">
<use xlink:href="#CrimsonText-Regular-49"></use>
<use x="47.265625" xlink:href="#CrimsonText-Regular-48"></use>
</g>
</g>
</g>
<g id="text_19">
<g clip-path="url(#pbe2bd04428)">
<!-- 10 -->
<g transform="translate(162.103806 88.389733)scale(0.2 -0.2)">
<use xlink:href="#CrimsonText-Regular-49"></use>
<use x="47.265625" xlink:href="#CrimsonText-Regular-48"></use>
</g>
</g>
</g>
<g id="PolyCollection_12">
<path clip-path="url(#pbe2bd04428)" d="M 162.125261 59.377989 
L 162.125261 43.990378 
L 181.709493 43.990378 
L 181.709493 59.377989 
z
" style="fill:#ffffff;"></path>
</g>
<g id="text_20">
<g clip-path="url(#pbe2bd04428)">
<!-- 12 -->
<g transform="translate(162.103806 57.303651)scale(0.2 -0.2)">
<use xlink:href="#CrimsonText-Regular-49"></use>
<use x="47.265625" xlink:href="#CrimsonText-Regular-50"></use>
</g>
</g>
</g>
<g id="text_21">
<g clip-path="url(#pbe2bd04428)">
<!-- 12 -->
<g transform="translate(162.103806 57.303651)scale(0.2 -0.2)">
<use xlink:href="#CrimsonText-Regular-49"></use>
<use x="47.265625" xlink:href="#CrimsonText-Regular-50"></use>
</g>
</g>
</g>
<g id="PolyCollection_13">
<path clip-path="url(#pbe2bd04428)" d="M 23.636766 248.692228 
L 23.636766 254.287723 
L 156.529767 254.287723 
L 156.529767 248.692228 
z
" style="fill:#ffffff;"></path>
</g>
<g id="PolyCollection_14">
<path clip-path="url(#pbe2bd04428)" d="M 39.374095 257.784907 
L 39.374095 242.397297 
L 57.909171 242.397297 
L 57.909171 257.784907 
z
" style="fill:#ffffff;"></path>
</g>
<g id="text_22">
<g clip-path="url(#pbe2bd04428)">
<!-- – -->
<g transform="translate(29.277502 256.060288)scale(0.2 -0.2)">
<use xlink:href="#CrimsonText-Regular-8211"></use>
</g>
</g>
</g>
<g id="text_23">
<g clip-path="url(#pbe2bd04428)">
<!-- 10 -->
<g transform="translate(39.002921 256.060288)scale(0.2 -0.2)">
<use xlink:href="#CrimsonText-Regular-49"></use>
<use x="47.265625" xlink:href="#CrimsonText-Regular-48"></use>
</g>
</g>
</g>
<g id="text_24">
<g clip-path="url(#pbe2bd04428)">
<!-- 10 -->
<g transform="translate(39.002921 256.060288)scale(0.2 -0.2)">
<use xlink:href="#CrimsonText-Regular-49"></use>
<use x="47.265625" xlink:href="#CrimsonText-Regular-48"></use>
</g>
</g>
</g>
<g id="PolyCollection_15">
<path clip-path="url(#pbe2bd04428)" d="M 72.597345 257.784907 
L 72.597345 242.397297 
L 83.088898 242.397297 
L 83.088898 257.784907 
z
" style="fill:#ffffff;"></path>
</g>
<g id="text_25">
<g clip-path="url(#pbe2bd04428)">
<!-- – -->
<g transform="translate(63.200189 256.060288)scale(0.2 -0.2)">
<use xlink:href="#CrimsonText-Regular-8211"></use>
</g>
</g>
</g>
<g id="text_26">
<g clip-path="url(#pbe2bd04428)">
<!-- 8 -->
<g transform="translate(72.936336 256.060288)scale(0.2 -0.2)">
<use xlink:href="#CrimsonText-Regular-56"></use>
</g>
</g>
</g>
<g id="text_27">
<g clip-path="url(#pbe2bd04428)">
<!-- 8 -->
<g transform="translate(72.936336 256.060288)scale(0.2 -0.2)">
<use xlink:href="#CrimsonText-Regular-56"></use>
</g>
</g>
</g>
<g id="PolyCollection_16">
<path clip-path="url(#pbe2bd04428)" d="M 100.574819 257.784907 
L 100.574819 242.397297 
L 111.066372 242.397297 
L 111.066372 257.784907 
z
" style="fill:#ffffff;"></path>
</g>
<g id="text_28">
<g clip-path="url(#pbe2bd04428)">
<!-- – -->
<g transform="translate(91.177662 256.060288)scale(0.2 -0.2)">
<use xlink:href="#CrimsonText-Regular-8211"></use>
</g>
</g>
</g>
<g id="text_29">
<g clip-path="url(#pbe2bd04428)">
<!-- 6 -->
<g transform="translate(100.91381 256.060288)scale(0.2 -0.2)">
<use xlink:href="#CrimsonText-Regular-54"></use>
</g>
</g>
</g>
<g id="text_30">
<g clip-path="url(#pbe2bd04428)">
<!-- 6 -->
<g transform="translate(100.91381 256.060288)scale(0.2 -0.2)">
<use xlink:href="#CrimsonText-Regular-54"></use>
</g>
</g>
</g>
<g id="PolyCollection_17">
<path clip-path="url(#pbe2bd04428)" d="M 128.552293 257.784907 
L 128.552293 242.397297 
L 139.043846 242.397297 
L 139.043846 257.784907 
z
" style="fill:#ffffff;"></path>
</g>
<g id="text_31">
<g clip-path="url(#pbe2bd04428)">
<!-- – -->
<g transform="translate(119.155136 256.060288)scale(0.2 -0.2)">
<use xlink:href="#CrimsonText-Regular-8211"></use>
</g>
</g>
</g>
<g id="text_32">
<g clip-path="url(#pbe2bd04428)">
<!-- 4 -->
<g transform="translate(128.928784 256.060288)scale(0.2 -0.2)">
<use xlink:href="#CrimsonText-Regular-52"></use>
</g>
</g>
</g>
<g id="text_33">
<g clip-path="url(#pbe2bd04428)">
<!-- 4 -->
<g transform="translate(128.928784 256.060288)scale(0.2 -0.2)">
<use xlink:href="#CrimsonText-Regular-52"></use>
</g>
</g>
</g>
<g id="PolyCollection_18">
<path clip-path="url(#pbe2bd04428)" d="M 156.529767 257.784907 
L 156.529767 242.397297 
L 167.021319 242.397297 
L 167.021319 257.784907 
z
" style="fill:#ffffff;"></path>
</g>
<g id="text_34">
<g clip-path="url(#pbe2bd04428)">
<!-- – -->
<g transform="translate(147.13261 256.060288)scale(0.2 -0.2)">
<use xlink:href="#CrimsonText-Regular-8211"></use>
</g>
</g>
</g>
<g id="text_35">
<g clip-path="url(#pbe2bd04428)">
<!-- 2 -->
<g transform="translate(156.868758 256.060288)scale(0.2 -0.2)">
<use xlink:href="#CrimsonText-Regular-50"></use>
</g>
</g>
</g>
<g id="text_36">
<g clip-path="url(#pbe2bd04428)">
<!-- 2 -->
<g transform="translate(156.868758 256.060288)scale(0.2 -0.2)">
<use xlink:href="#CrimsonText-Regular-50"></use>
</g>
</g>
</g>
<g id="PolyCollection_19">
<path clip-path="url(#pbe2bd04428)" d="M 212.484714 257.784907 
L 212.484714 242.397297 
L 222.976267 242.397297 
L 222.976267 257.784907 
z
" style="fill:#ffffff;"></path>
</g>
<g id="text_37">
<g clip-path="url(#pbe2bd04428)">
<!-- 2 -->
<g transform="translate(212.823705 256.060288)scale(0.2 -0.2)">
<use xlink:href="#CrimsonText-Regular-50"></use>
</g>
</g>
</g>
<g id="text_38">
<g clip-path="url(#pbe2bd04428)">
<!-- 2 -->
<g transform="translate(212.823705 256.060288)scale(0.2 -0.2)">
<use xlink:href="#CrimsonText-Regular-50"></use>
</g>
</g>
</g>
<g id="PolyCollection_20">
<path clip-path="url(#pbe2bd04428)" d="M 240.462188 257.784907 
L 240.462188 242.397297 
L 250.953741 242.397297 
L 250.953741 257.784907 
z
" style="fill:#ffffff;"></path>
</g>
<g id="text_39">
<g clip-path="url(#pbe2bd04428)">
<!-- 4 -->
<g transform="translate(240.838679 256.060288)scale(0.2 -0.2)">
<use xlink:href="#CrimsonText-Regular-52"></use>
</g>
</g>
</g>
<g id="text_40">
<g clip-path="url(#pbe2bd04428)">
<!-- 4 -->
<g transform="translate(240.838679 256.060288)scale(0.2 -0.2)">
<use xlink:href="#CrimsonText-Regular-52"></use>
</g>
</g>
</g>
<g id="PolyCollection_21">
<path clip-path="url(#pbe2bd04428)" d="M 268.439662 257.784907 
L 268.439662 242.397297 
L 278.931215 242.397297 
L 278.931215 257.784907 
z
" style="fill:#ffffff;"></path>
</g>
<g id="text_41">
<g clip-path="url(#pbe2bd04428)">
<!-- 6 -->
<g transform="translate(268.778653 256.060288)scale(0.2 -0.2)">
<use xlink:href="#CrimsonText-Regular-54"></use>
</g>
</g>
</g>
<g id="text_42">
<g clip-path="url(#pbe2bd04428)">
<!-- 6 -->
<g transform="translate(268.778653 256.060288)scale(0.2 -0.2)">
<use xlink:href="#CrimsonText-Regular-54"></use>
</g>
</g>
</g>
<g id="PolyCollection_22">
<path clip-path="url(#pbe2bd04428)" d="M 296.417136 257.784907 
L 296.417136 242.397297 
L 306.908689 242.397297 
L 306.908689 257.784907 
z
" style="fill:#ffffff;"></path>
</g>
<g id="text_43">
<g clip-path="url(#pbe2bd04428)">
<!-- 8 -->
<g transform="translate(296.756127 256.060288)scale(0.2 -0.2)">
<use xlink:href="#CrimsonText-Regular-56"></use>
</g>
</g>
</g>
<g id="text_44">
<g clip-path="url(#pbe2bd04428)">
<!-- 8 -->
<g transform="translate(296.756127 256.060288)scale(0.2 -0.2)">
<use xlink:href="#CrimsonText-Regular-56"></use>
</g>
</g>
</g>
<g id="PolyCollection_23">
<path clip-path="url(#pbe2bd04428)" d="M 318.799115 257.784907 
L 318.799115 242.397297 
L 338.383347 242.397297 
L 338.383347 257.784907 
z
" style="fill:#ffffff;"></path>
</g>
<g id="text_45">
<g clip-path="url(#pbe2bd04428)">
<!-- 10 -->
<g transform="translate(318.77766 256.060288)scale(0.2 -0.2)">
<use xlink:href="#CrimsonText-Regular-49"></use>
<use x="47.265625" xlink:href="#CrimsonText-Regular-48"></use>
</g>
</g>
</g>
<g id="text_46">
<g clip-path="url(#pbe2bd04428)">
<!-- 10 -->
<g transform="translate(318.77766 256.060288)scale(0.2 -0.2)">
<use xlink:href="#CrimsonText-Regular-49"></use>
<use x="47.265625" xlink:href="#CrimsonText-Regular-48"></use>
</g>
</g>
</g>
<g id="text_47">
<g clip-path="url(#pbe2bd04428)">
<!-- O -->
<defs>
<path d="M 39.9375 61.03125 
Q 29.390625 61.03125 22.0625 50.140625 
Q 14.75 39.265625 14.75 26.078125 
Q 14.75 16.109375 19.09375 9.65625 
Q 23.4375 3.21875 31.453125 3.21875 
Q 41.609375 3.21875 49.03125 14.296875 
Q 56.453125 25.390625 56.453125 38.578125 
Q 56.453125 48.34375 52.15625 54.6875 
Q 47.859375 61.03125 39.9375 61.03125 
z
M 42.1875 65.140625 
Q 52.046875 65.140625 58.734375 57.765625 
Q 65.4375 50.390625 65.4375 39.9375 
Q 65.4375 29.390625 60.40625 19.921875 
Q 55.375 10.453125 46.875 4.734375 
Q 38.375 -0.984375 28.90625 -0.984375 
Q 18.453125 -0.984375 12.15625 6.484375 
Q 5.859375 13.96875 5.859375 25.296875 
Q 5.859375 35.453125 11.234375 44.78125 
Q 16.609375 54.109375 25 59.625 
Q 33.40625 65.140625 42.1875 65.140625 
z
" id="CrimsonText-Italic-79"></path>
</defs>
<g transform="translate(175.266025 251.337386)scale(0.2 -0.2)">
<use xlink:href="#CrimsonText-Italic-79"></use>
</g>
</g>
</g>
<g id="text_48">
<g clip-path="url(#pbe2bd04428)">
<!-- y -->
<defs>
<path d="M 21.09375 42.484375 
Q 24.03125 42.484375 25.921875 37.5 
Q 27.828125 32.515625 28.515625 24.453125 
Q 29.203125 16.40625 29.390625 11.859375 
Q 29.59375 7.328125 29.59375 2.734375 
Q 33.40625 7.421875 37.203125 14.6875 
Q 41.015625 21.96875 41.015625 27.828125 
Q 41.015625 33.59375 38.578125 38.28125 
Q 39.84375 42.484375 43.453125 42.484375 
Q 47.75 42.484375 47.75 34.765625 
Q 47.75 24.03125 39.34375 10.109375 
Q 30.953125 -3.8125 20.359375 -13.28125 
Q 9.765625 -22.75 3.21875 -22.75 
Q 0.6875 -22.75 -0.96875 -21.578125 
Q -2.640625 -20.40625 -2.640625 -18.75 
Q -2.640625 -15.625 -0.390625 -14.453125 
Q 1.765625 -15.71875 6.15625 -15.71875 
Q 14.265625 -15.71875 20.21875 -7.03125 
Q 22.46875 -3.71875 22.46875 6.0625 
Q 22.46875 10.84375 22.21875 15.578125 
Q 21.96875 20.3125 21.328125 25.296875 
Q 20.703125 30.28125 19.484375 33.34375 
Q 18.265625 36.421875 16.609375 36.421875 
Q 15.71875 36.421875 13.953125 34.765625 
Q 12.203125 33.109375 11.234375 31.84375 
Q 11.03125 31.84375 10.5 32.765625 
Q 9.96875 33.6875 9.96875 34.078125 
Q 10.546875 35.546875 14.59375 39.015625 
Q 18.65625 42.484375 21.09375 42.484375 
z
" id="CrimsonText-Italic-121"></path>
</defs>
<g transform="translate(186.124047 27.401023)scale(0.2 -0.2)">
<use xlink:href="#CrimsonText-Italic-121"></use>
</g>
</g>
</g>
<g id="text_49">
<g clip-path="url(#pbe2bd04428)">
<!-- x -->
<defs>
<path d="M 20.3125 42.484375 
Q 24.421875 42.484375 26.953125 33.984375 
L 29 27.046875 
L 34.765625 36.921875 
Q 37.984375 42.484375 42.96875 42.484375 
Q 46.296875 42.484375 48.640625 40.53125 
Q 49.421875 38.96875 49.421875 37.984375 
Q 49.421875 36.53125 48.390625 35.5 
Q 47.359375 34.46875 46.296875 34.46875 
Q 45.015625 34.46875 43.40625 35.984375 
Q 41.796875 37.5 40.4375 37.5 
Q 39.265625 37.5 37.796875 34.96875 
L 30.46875 22.46875 
L 34.671875 8.6875 
Q 35.640625 5.375 37.3125 5.375 
Q 38.765625 5.375 40.421875 6.890625 
Q 42.09375 8.40625 42.78125 9.671875 
Q 43.171875 9.671875 43.75 8.890625 
Q 44.34375 8.109375 44.34375 7.71875 
Q 44.046875 6.0625 40.71875 2.78125 
Q 37.40625 -0.484375 34.375 -0.484375 
Q 30.28125 -0.484375 27.734375 8.015625 
L 25.484375 15.625 
L 19.34375 4.984375 
Q 16.109375 -0.59375 11.140625 -0.59375 
Q 7.8125 -0.59375 5.46875 1.375 
Q 4.6875 2.734375 4.6875 3.90625 
Q 4.6875 5.375 5.703125 6.390625 
Q 6.734375 7.421875 7.8125 7.421875 
Q 9.078125 7.421875 10.6875 5.90625 
Q 12.3125 4.390625 13.671875 4.390625 
Q 14.84375 4.390625 16.3125 6.9375 
L 24.03125 20.21875 
L 20.015625 33.296875 
Q 19.046875 36.625 17.390625 36.625 
Q 15.921875 36.625 14.25 35.109375 
Q 12.59375 33.59375 11.921875 32.328125 
Q 11.53125 32.328125 10.9375 33.109375 
Q 10.359375 33.890625 10.359375 34.28125 
Q 10.640625 35.9375 13.953125 39.203125 
Q 17.28125 42.484375 20.3125 42.484375 
z
" id="CrimsonText-Italic-120"></path>
</defs>
<g transform="translate(347.723646 241.894989)scale(0.2 -0.2)">
<use xlink:href="#CrimsonText-Italic-120"></use>
</g>
</g>
</g>
<g id="line2d_1">
<path clip-path="url(#pbe2bd04428)" d="M 50.914803 184.152169 
L 72.780965 184.758061 
L 90.722431 185.467419 
L 106.421214 186.30624 
L 119.877314 187.239664 
L 132.212072 188.317955 
L 142.864817 189.4622 
L 152.956892 190.768066 
L 161.927625 192.145238 
L 170.337687 193.654303 
L 178.187079 195.284057 
L 185.475799 197.017638 
L 192.203849 198.832391 
L 198.931899 200.880306 
L 205.099278 202.987907 
L 211.266657 205.342457 
L 216.873365 207.721539 
L 222.480073 210.352744 
L 227.526111 212.958419 
L 232.572148 215.811348 
L 237.618186 218.934994 
L 242.103552 221.959549 
L 246.588919 225.237918 
L 251.074285 228.791399 
L 255.559652 232.643079 
L 260.045018 236.817982 
L 263.969714 240.757435 
L 267.89441 244.984682 
L 271.819105 249.520747 
L 275.743801 254.388191 
L 279.668497 259.611223 
L 283.593193 265.21582 
L 287.517888 271.229856 
L 291.442584 277.683244 
L 295.36728 284.60808 
L 299.291976 292.038804 
L 303.216671 300.012375 
L 307.141367 308.568449 
L 311.066063 317.749581 
L 314.430088 326.151143 
L 317.794113 335.076121 
L 318.354783 336.616766 
L 318.354783 336.616766 
" style="fill:none;stroke:#000000;stroke-linecap:square;stroke-width:2.3;"></path>
</g>
</g>
</g>
<defs>
<clipPath id="pbe2bd04428">
<rect height="347.76" width="361.60885" x="7.2" y="7.2"></rect>
</clipPath>
</defs>
</svg>