<svg aria-label="Graph of a parabola in the x y plane with the origin labeled O. The x axis ranges from negative 6 to 10. The y axis ranges from negative 8 to 5. Refer to long description." role="img" version="1.1" viewBox="0 0 378.885664 362.16" width="378.885664px" xmlns="http://www.w3.org/2000/svg" xmlns:xlink="http://www.w3.org/1999/xlink">
<defs>
<style type="text/css">
*{stroke-linecap:butt;stroke-linejoin:round;}
  </style>
</defs>
<g id="figure_1">
<g id="patch_1">
<path d="M 0 362.16 
L 378.885664 362.16 
L 378.885664 0 
L 0 0 
z
" style="fill:none;"></path>
</g>
<g id="axes_1">
<g id="patch_2">
<path d="M 8.805664 344.88 
L 371.685664 344.88 
L 371.685664 12.24 
L 8.805664 12.24 
z
" style="fill:none;"></path>
</g>
<g id="matplotlib.axis_1"></g>
<g id="matplotlib.axis_2"></g>
</g>
<g id="axes_2">
<g id="patch_3">
<path d="M 7.2 354.96 
L 365.731327 354.96 
L 365.731327 7.2 
L 7.2 7.2 
z
" style="fill:none;"></path>
</g>
<g id="matplotlib.axis_3">
<g id="xtick_1"></g>
<g id="xtick_2"></g>
<g id="xtick_3"></g>
<g id="xtick_4"></g>
<g id="xtick_5"></g>
<g id="xtick_6"></g>
<g id="xtick_7"></g>
<g id="xtick_8"></g>
</g>
<g id="matplotlib.axis_4">
<g id="ytick_1"></g>
<g id="ytick_2"></g>
<g id="ytick_3"></g>
<g id="ytick_4"></g>
<g id="ytick_5"></g>
<g id="ytick_6"></g>
<g id="ytick_7"></g>
<g id="ytick_8"></g>
</g>
<g id="LineCollection_1">
<path clip-path="url(#p9f225f9ea4)" d="M 47.977168 337.753854 
L 47.977168 43.990378 
" style="fill:none;stroke:#000000;stroke-width:0.708982;"></path>
<path clip-path="url(#p9f225f9ea4)" d="M 65.463089 337.753854 
L 65.463089 43.990378 
" style="fill:none;stroke:#000000;stroke-width:0.708982;"></path>
<path clip-path="url(#p9f225f9ea4)" d="M 82.94901 337.753854 
L 82.94901 43.990378 
" style="fill:none;stroke:#000000;stroke-width:0.708982;"></path>
<path clip-path="url(#p9f225f9ea4)" d="M 100.434932 337.753854 
L 100.434932 43.990378 
" style="fill:none;stroke:#000000;stroke-width:0.708982;"></path>
<path clip-path="url(#p9f225f9ea4)" d="M 117.920853 337.753854 
L 117.920853 43.990378 
" style="fill:none;stroke:#000000;stroke-width:0.708982;"></path>
<path clip-path="url(#p9f225f9ea4)" d="M 135.406774 337.753854 
L 135.406774 43.990378 
" style="fill:none;stroke:#000000;stroke-width:0.708982;"></path>
<path clip-path="url(#p9f225f9ea4)" d="M 170.378616 337.753854 
L 170.378616 43.990378 
" style="fill:none;stroke:#000000;stroke-width:0.708982;"></path>
<path clip-path="url(#p9f225f9ea4)" d="M 187.864537 337.753854 
L 187.864537 43.990378 
" style="fill:none;stroke:#000000;stroke-width:0.708982;"></path>
<path clip-path="url(#p9f225f9ea4)" d="M 205.350459 337.753854 
L 205.350459 43.990378 
" style="fill:none;stroke:#000000;stroke-width:0.708982;"></path>
<path clip-path="url(#p9f225f9ea4)" d="M 222.83638 337.753854 
L 222.83638 43.990378 
" style="fill:none;stroke:#000000;stroke-width:0.708982;"></path>
<path clip-path="url(#p9f225f9ea4)" d="M 240.322301 337.753854 
L 240.322301 43.990378 
" style="fill:none;stroke:#000000;stroke-width:0.708982;"></path>
<path clip-path="url(#p9f225f9ea4)" d="M 257.808222 337.753854 
L 257.808222 43.990378 
" style="fill:none;stroke:#000000;stroke-width:0.708982;"></path>
<path clip-path="url(#p9f225f9ea4)" d="M 275.294143 337.753854 
L 275.294143 43.990378 
" style="fill:none;stroke:#000000;stroke-width:0.708982;"></path>
<path clip-path="url(#p9f225f9ea4)" d="M 292.780064 337.753854 
L 292.780064 43.990378 
" style="fill:none;stroke:#000000;stroke-width:0.708982;"></path>
<path clip-path="url(#p9f225f9ea4)" d="M 310.265986 337.753854 
L 310.265986 43.990378 
" style="fill:none;stroke:#000000;stroke-width:0.708982;"></path>
<path clip-path="url(#p9f225f9ea4)" d="M 327.751907 337.753854 
L 327.751907 43.990378 
" style="fill:none;stroke:#000000;stroke-width:0.708982;"></path>
<path clip-path="url(#p9f225f9ea4)" d="M 40.9828 330.759485 
L 334.746275 330.759485 
" style="fill:none;stroke:#000000;stroke-width:0.708982;"></path>
<path clip-path="url(#p9f225f9ea4)" d="M 40.9828 309.238351 
L 334.746275 309.238351 
" style="fill:none;stroke:#000000;stroke-width:0.708982;"></path>
<path clip-path="url(#p9f225f9ea4)" d="M 40.9828 287.717218 
L 334.746275 287.717218 
" style="fill:none;stroke:#000000;stroke-width:0.708982;"></path>
<path clip-path="url(#p9f225f9ea4)" d="M 40.9828 266.196084 
L 334.746275 266.196084 
" style="fill:none;stroke:#000000;stroke-width:0.708982;"></path>
<path clip-path="url(#p9f225f9ea4)" d="M 40.9828 244.67495 
L 334.746275 244.67495 
" style="fill:none;stroke:#000000;stroke-width:0.708982;"></path>
<path clip-path="url(#p9f225f9ea4)" d="M 40.9828 223.153816 
L 334.746275 223.153816 
" style="fill:none;stroke:#000000;stroke-width:0.708982;"></path>
<path clip-path="url(#p9f225f9ea4)" d="M 40.9828 201.632683 
L 334.746275 201.632683 
" style="fill:none;stroke:#000000;stroke-width:0.708982;"></path>
<path clip-path="url(#p9f225f9ea4)" d="M 40.9828 180.111549 
L 334.746275 180.111549 
" style="fill:none;stroke:#000000;stroke-width:0.708982;"></path>
<path clip-path="url(#p9f225f9ea4)" d="M 40.9828 137.069282 
L 334.746275 137.069282 
" style="fill:none;stroke:#000000;stroke-width:0.708982;"></path>
<path clip-path="url(#p9f225f9ea4)" d="M 40.9828 115.548148 
L 334.746275 115.548148 
" style="fill:none;stroke:#000000;stroke-width:0.708982;"></path>
<path clip-path="url(#p9f225f9ea4)" d="M 40.9828 94.027014 
L 334.746275 94.027014 
" style="fill:none;stroke:#000000;stroke-width:0.708982;"></path>
<path clip-path="url(#p9f225f9ea4)" d="M 40.9828 72.50588 
L 334.746275 72.50588 
" style="fill:none;stroke:#000000;stroke-width:0.708982;"></path>
<path clip-path="url(#p9f225f9ea4)" d="M 40.9828 50.984747 
L 334.746275 50.984747 
" style="fill:none;stroke:#000000;stroke-width:0.708982;"></path>
</g>
<g id="LineCollection_2">
<path clip-path="url(#p9f225f9ea4)" d="M 40.9828 158.590415 
L 341.740644 158.590415 
" style="fill:none;stroke:#000000;stroke-width:1.949699;"></path>
</g>
<g id="PathCollection_1">
<defs>
<path d="M 337.952827 -202.256984 
L 341.740644 -203.569585 
L 337.952827 -204.882186 
L 337.952827 -202.256984 
L 341.740644 -203.569585 
" id="m17d34c2003" style="stroke:#000000;stroke-linejoin:miter;stroke-width:1.949699;"></path>
</defs>
<g clip-path="url(#p9f225f9ea4)">
<use style="stroke:#000000;stroke-linejoin:miter;stroke-width:1.949699;" x="0" xlink:href="#m17d34c2003" y="362.16"></use>
</g>
</g>
<g id="LineCollection_3">
<path clip-path="url(#p9f225f9ea4)" d="M 152.892695 337.753854 
L 152.892695 36.99601 
" style="fill:none;stroke:#000000;stroke-width:1.949699;"></path>
</g>
<g id="PathCollection_2">
<defs>
<path d="M 154.233905 -320.398339 
L 152.892695 -325.16399 
L 151.551485 -320.398339 
L 154.233905 -320.398339 
L 152.892695 -325.16399 
" id="m93b0cf27f1" style="stroke:#000000;stroke-linejoin:miter;stroke-width:1.949699;"></path>
</defs>
<g clip-path="url(#p9f225f9ea4)">
<use style="stroke:#000000;stroke-linejoin:miter;stroke-width:1.949699;" x="0" xlink:href="#m93b0cf27f1" y="362.16"></use>
</g>
</g>
<g id="LineCollection_4">
<path clip-path="url(#p9f225f9ea4)" d="M 47.977168 163.74416 
L 47.977168 153.43667 
" style="fill:none;stroke:#000000;stroke-width:0.886227;"></path>
<path clip-path="url(#p9f225f9ea4)" d="M 65.463089 163.74416 
L 65.463089 153.43667 
" style="fill:none;stroke:#000000;stroke-width:0.886227;"></path>
<path clip-path="url(#p9f225f9ea4)" d="M 82.94901 163.74416 
L 82.94901 153.43667 
" style="fill:none;stroke:#000000;stroke-width:0.886227;"></path>
<path clip-path="url(#p9f225f9ea4)" d="M 100.434932 163.74416 
L 100.434932 153.43667 
" style="fill:none;stroke:#000000;stroke-width:0.886227;"></path>
<path clip-path="url(#p9f225f9ea4)" d="M 117.920853 163.74416 
L 117.920853 153.43667 
" style="fill:none;stroke:#000000;stroke-width:0.886227;"></path>
<path clip-path="url(#p9f225f9ea4)" d="M 135.406774 163.74416 
L 135.406774 153.43667 
" style="fill:none;stroke:#000000;stroke-width:0.886227;"></path>
<path clip-path="url(#p9f225f9ea4)" d="M 170.378616 163.74416 
L 170.378616 153.43667 
" style="fill:none;stroke:#000000;stroke-width:0.886227;"></path>
<path clip-path="url(#p9f225f9ea4)" d="M 187.864537 163.74416 
L 187.864537 153.43667 
" style="fill:none;stroke:#000000;stroke-width:0.886227;"></path>
<path clip-path="url(#p9f225f9ea4)" d="M 205.350459 163.74416 
L 205.350459 153.43667 
" style="fill:none;stroke:#000000;stroke-width:0.886227;"></path>
<path clip-path="url(#p9f225f9ea4)" d="M 222.83638 163.74416 
L 222.83638 153.43667 
" style="fill:none;stroke:#000000;stroke-width:0.886227;"></path>
<path clip-path="url(#p9f225f9ea4)" d="M 240.322301 163.74416 
L 240.322301 153.43667 
" style="fill:none;stroke:#000000;stroke-width:0.886227;"></path>
<path clip-path="url(#p9f225f9ea4)" d="M 257.808222 163.74416 
L 257.808222 153.43667 
" style="fill:none;stroke:#000000;stroke-width:0.886227;"></path>
<path clip-path="url(#p9f225f9ea4)" d="M 275.294143 163.74416 
L 275.294143 153.43667 
" style="fill:none;stroke:#000000;stroke-width:0.886227;"></path>
<path clip-path="url(#p9f225f9ea4)" d="M 292.780064 163.74416 
L 292.780064 153.43667 
" style="fill:none;stroke:#000000;stroke-width:0.886227;"></path>
<path clip-path="url(#p9f225f9ea4)" d="M 310.265986 163.74416 
L 310.265986 153.43667 
" style="fill:none;stroke:#000000;stroke-width:0.886227;"></path>
<path clip-path="url(#p9f225f9ea4)" d="M 327.751907 163.74416 
L 327.751907 153.43667 
" style="fill:none;stroke:#000000;stroke-width:0.886227;"></path>
</g>
<g id="LineCollection_5">
<path clip-path="url(#p9f225f9ea4)" d="M 147.73895 330.759485 
L 158.04644 330.759485 
" style="fill:none;stroke:#000000;stroke-width:0.886227;"></path>
<path clip-path="url(#p9f225f9ea4)" d="M 147.73895 309.238351 
L 158.04644 309.238351 
" style="fill:none;stroke:#000000;stroke-width:0.886227;"></path>
<path clip-path="url(#p9f225f9ea4)" d="M 147.73895 287.717218 
L 158.04644 287.717218 
" style="fill:none;stroke:#000000;stroke-width:0.886227;"></path>
<path clip-path="url(#p9f225f9ea4)" d="M 147.73895 266.196084 
L 158.04644 266.196084 
" style="fill:none;stroke:#000000;stroke-width:0.886227;"></path>
<path clip-path="url(#p9f225f9ea4)" d="M 147.73895 244.67495 
L 158.04644 244.67495 
" style="fill:none;stroke:#000000;stroke-width:0.886227;"></path>
<path clip-path="url(#p9f225f9ea4)" d="M 147.73895 223.153816 
L 158.04644 223.153816 
" style="fill:none;stroke:#000000;stroke-width:0.886227;"></path>
<path clip-path="url(#p9f225f9ea4)" d="M 147.73895 201.632683 
L 158.04644 201.632683 
" style="fill:none;stroke:#000000;stroke-width:0.886227;"></path>
<path clip-path="url(#p9f225f9ea4)" d="M 147.73895 180.111549 
L 158.04644 180.111549 
" style="fill:none;stroke:#000000;stroke-width:0.886227;"></path>
<path clip-path="url(#p9f225f9ea4)" d="M 147.73895 137.069282 
L 158.04644 137.069282 
" style="fill:none;stroke:#000000;stroke-width:0.886227;"></path>
<path clip-path="url(#p9f225f9ea4)" d="M 147.73895 115.548148 
L 158.04644 115.548148 
" style="fill:none;stroke:#000000;stroke-width:0.886227;"></path>
<path clip-path="url(#p9f225f9ea4)" d="M 147.73895 94.027014 
L 158.04644 94.027014 
" style="fill:none;stroke:#000000;stroke-width:0.886227;"></path>
<path clip-path="url(#p9f225f9ea4)" d="M 147.73895 72.50588 
L 158.04644 72.50588 
" style="fill:none;stroke:#000000;stroke-width:0.886227;"></path>
<path clip-path="url(#p9f225f9ea4)" d="M 147.73895 50.984747 
L 158.04644 50.984747 
" style="fill:none;stroke:#000000;stroke-width:0.886227;"></path>
</g>
<g id="PolyCollection_1">
<path clip-path="url(#p9f225f9ea4)" d="M 132.958745 339.152727 
L 132.958745 323.765117 
L 143.450298 323.765117 
L 143.450298 339.152727 
z
" style="fill:#ffffff;"></path>
</g>
<g id="PolyCollection_2">
<path clip-path="url(#p9f225f9ea4)" d="M 122.117474 329.71033 
L 122.117474 335.655543 
L 136.106211 335.655543 
L 136.106211 329.71033 
z
" style="fill:#ffffff;"></path>
</g>
<g id="text_1">
<g clip-path="url(#p9f225f9ea4)">
<!-- – -->
<defs>
<path d="M 2.734375 20.40625 
Q 2.734375 21.390625 3.078125 23.484375 
Q 3.421875 25.59375 4.109375 25.59375 
L 45.609375 25.59375 
Q 46.1875 25.59375 46.1875 24.703125 
Q 46.1875 23.734375 45.3125 20.21875 
Q 45.21875 19.921875 45.0625 19.765625 
Q 44.921875 19.625 44.734375 19.53125 
L 44.625 19.53125 
L 3.328125 19.53125 
Q 3.328125 19.53125 2.9375 19.734375 
Q 2.734375 20.015625 2.734375 20.40625 
z
" id="CrimsonText-Regular-8211"></path>
</defs>
<g transform="translate(123.21187 337.07839)scale(0.2 -0.2)">
<use xlink:href="#CrimsonText-Regular-8211"></use>
</g>
</g>
</g>
<g id="text_2">
<g clip-path="url(#p9f225f9ea4)">
<!-- 8 -->
<defs>
<path d="M 23.53125 2.640625 
Q 28.421875 2.640625 31.25 5.5625 
Q 34.078125 8.5 34.078125 13.484375 
Q 34.078125 16.3125 32.421875 19.09375 
Q 30.765625 21.875 28.21875 24.015625 
Q 25.6875 26.171875 24.265625 27.140625 
Q 22.859375 28.125 21.578125 28.8125 
Q 21.1875 29 21 29 
Q 20.703125 29 20.609375 28.90625 
Q 16.5 26.375 14.6875 23.1875 
Q 12.890625 20.015625 12.890625 15.328125 
Q 12.890625 9.671875 16.109375 6.15625 
Q 19.34375 2.640625 23.53125 2.640625 
z
M 23.53125 59.375 
Q 19.921875 59.375 17.53125 56.25 
Q 15.140625 53.125 15.140625 48.046875 
Q 15.140625 41.40625 25.296875 35.546875 
Q 25.6875 35.359375 25.875 35.359375 
Q 26.171875 35.359375 26.46875 35.546875 
Q 33.109375 39.9375 33.109375 47.46875 
Q 33.109375 52.046875 30.421875 55.703125 
Q 27.734375 59.375 23.53125 59.375 
z
M 24.125 62.796875 
Q 30.859375 62.796875 35.5 58.734375 
Q 40.140625 54.6875 40.140625 47.953125 
Q 40.140625 40.53125 29.203125 33.59375 
Q 28.515625 33.40625 29.203125 33.015625 
Q 34.28125 30.078125 38.140625 25.625 
Q 42 21.1875 42 16.3125 
Q 42 9.078125 36.375 4.09375 
Q 30.765625 -0.875 23.34375 -0.875 
Q 15.234375 -0.875 10.203125 3.515625 
Q 5.171875 7.90625 5.171875 15.046875 
Q 5.171875 16.3125 5.46875 17.53125 
Q 5.765625 18.75 6.109375 19.71875 
Q 6.453125 20.703125 7.234375 21.828125 
Q 8.015625 22.953125 8.546875 23.6875 
Q 9.078125 24.421875 10.15625 25.390625 
Q 11.234375 26.375 11.71875 26.8125 
Q 12.203125 27.25 13.46875 28.125 
Q 14.75 29 15.09375 29.25 
Q 15.4375 29.5 16.609375 30.28125 
L 17.875 31.0625 
Q 18.359375 31.34375 17.875 31.640625 
Q 14.0625 33.890625 10.984375 37.9375 
Q 7.90625 42 7.90625 46.875 
Q 7.90625 53.125 12.78125 57.953125 
Q 17.671875 62.796875 24.125 62.796875 
z
" id="CrimsonText-Regular-56"></path>
</defs>
<g transform="translate(133.647454 337.07839)scale(0.2 -0.2)">
<use xlink:href="#CrimsonText-Regular-56"></use>
</g>
</g>
</g>
<g id="text_3">
<g clip-path="url(#p9f225f9ea4)">
<!-- 8 -->
<g transform="translate(133.647454 337.07839)scale(0.2 -0.2)">
<use xlink:href="#CrimsonText-Regular-56"></use>
</g>
</g>
</g>
<g id="PolyCollection_3">
<path clip-path="url(#p9f225f9ea4)" d="M 132.958745 296.11046 
L 132.958745 280.722849 
L 143.450298 280.722849 
L 143.450298 296.11046 
z
" style="fill:#ffffff;"></path>
</g>
<g id="PolyCollection_4">
<path clip-path="url(#p9f225f9ea4)" d="M 122.117474 286.668062 
L 122.117474 292.613276 
L 136.106211 292.613276 
L 136.106211 286.668062 
z
" style="fill:#ffffff;"></path>
</g>
<g id="text_4">
<g clip-path="url(#p9f225f9ea4)">
<!-- – -->
<g transform="translate(123.21187 294.036122)scale(0.2 -0.2)">
<use xlink:href="#CrimsonText-Regular-8211"></use>
</g>
</g>
</g>
<g id="text_5">
<g clip-path="url(#p9f225f9ea4)">
<!-- 6 -->
<defs>
<path d="M 12.703125 20.515625 
Q 12.703125 13.671875 15.96875 8.4375 
Q 19.234375 3.21875 24.125 3.21875 
Q 28.421875 3.21875 31.640625 6.984375 
Q 34.859375 10.75 34.859375 17 
Q 34.859375 23.640625 31.6875 27.9375 
Q 28.515625 32.234375 22.359375 32.234375 
Q 19.734375 32.234375 17.28125 30.8125 
Q 14.84375 29.390625 14.15625 27.828125 
Q 12.796875 24.703125 12.703125 20.515625 
z
M 22.953125 -0.59375 
Q 14.84375 -0.59375 9.5625 5.703125 
Q 4.296875 12.015625 4.296875 20.3125 
Q 4.296875 27.9375 7.328125 34.96875 
Q 10.359375 42 15.484375 47.3125 
Q 20.609375 52.640625 26.515625 56.59375 
Q 32.421875 60.546875 39.0625 63.1875 
Q 39.65625 63.1875 40.484375 62.109375 
Q 41.3125 61.03125 41.3125 60.546875 
Q 31.453125 56.25 24.5625 50.140625 
Q 17.671875 44.046875 15.046875 34.375 
Q 14.84375 33.40625 15.140625 33.40625 
Q 15.328125 33.5 15.4375 33.59375 
Q 16.796875 34.671875 20.359375 35.9375 
Q 23.921875 37.203125 26.859375 37.203125 
Q 33.6875 37.203125 38.328125 31.484375 
Q 42.96875 25.78125 42.96875 19.046875 
Q 42.96875 10.9375 36.90625 5.171875 
Q 30.859375 -0.59375 22.953125 -0.59375 
z
" id="CrimsonText-Regular-54"></path>
</defs>
<g transform="translate(133.647454 294.036122)scale(0.2 -0.2)">
<use xlink:href="#CrimsonText-Regular-54"></use>
</g>
</g>
</g>
<g id="text_6">
<g clip-path="url(#p9f225f9ea4)">
<!-- 6 -->
<g transform="translate(133.647454 294.036122)scale(0.2 -0.2)">
<use xlink:href="#CrimsonText-Regular-54"></use>
</g>
</g>
</g>
<g id="PolyCollection_5">
<path clip-path="url(#p9f225f9ea4)" d="M 132.958745 253.068192 
L 132.958745 237.680582 
L 143.450298 237.680582 
L 143.450298 253.068192 
z
" style="fill:#ffffff;"></path>
</g>
<g id="PolyCollection_6">
<path clip-path="url(#p9f225f9ea4)" d="M 122.117474 243.625795 
L 122.117474 249.571008 
L 136.106211 249.571008 
L 136.106211 243.625795 
z
" style="fill:#ffffff;"></path>
</g>
<g id="text_7">
<g clip-path="url(#p9f225f9ea4)">
<!-- – -->
<g transform="translate(123.21187 250.993855)scale(0.2 -0.2)">
<use xlink:href="#CrimsonText-Regular-8211"></use>
</g>
</g>
</g>
<g id="text_8">
<g clip-path="url(#p9f225f9ea4)">
<!-- 4 -->
<defs>
<path d="M 35.0625 62.984375 
Q 36.328125 62.984375 36.328125 62.015625 
L 36.328125 22.65625 
L 42.390625 22.65625 
Q 43.953125 22.65625 43.953125 17.96875 
Q 43.953125 17.390625 43.359375 17 
Q 43.359375 17 36.328125 17 
L 36.328125 -0.09375 
Q 36.03125 -0.59375 32.234375 -0.59375 
Q 28.609375 -0.59375 28.609375 0.203125 
L 28.609375 17 
L 3.90625 17 
Q 3.21875 17.875 3.21875 20.015625 
L 32.8125 61.8125 
Q 33.6875 62.984375 35.0625 62.984375 
z
M 28.609375 22.65625 
L 28.609375 48.640625 
Q 28.609375 49.515625 28.125 49.515625 
Q 28.125 49.421875 28.03125 49.3125 
L 10.25 23.828125 
Q 10.15625 23.734375 10.15625 23.53125 
Q 10.15625 22.65625 10.84375 22.65625 
z
" id="CrimsonText-Regular-52"></path>
</defs>
<g transform="translate(133.684954 250.993855)scale(0.2 -0.2)">
<use xlink:href="#CrimsonText-Regular-52"></use>
</g>
</g>
</g>
<g id="text_9">
<g clip-path="url(#p9f225f9ea4)">
<!-- 4 -->
<g transform="translate(133.684954 250.993855)scale(0.2 -0.2)">
<use xlink:href="#CrimsonText-Regular-52"></use>
</g>
</g>
</g>
<g id="PolyCollection_7">
<path clip-path="url(#p9f225f9ea4)" d="M 132.958745 210.025925 
L 132.958745 194.638314 
L 143.450298 194.638314 
L 143.450298 210.025925 
z
" style="fill:#ffffff;"></path>
</g>
<g id="PolyCollection_8">
<path clip-path="url(#p9f225f9ea4)" d="M 122.117474 200.583527 
L 122.117474 206.528741 
L 136.106211 206.528741 
L 136.106211 200.583527 
z
" style="fill:#ffffff;"></path>
</g>
<g id="text_10">
<g clip-path="url(#p9f225f9ea4)">
<!-- – -->
<g transform="translate(123.21187 207.951587)scale(0.2 -0.2)">
<use xlink:href="#CrimsonText-Regular-8211"></use>
</g>
</g>
</g>
<g id="text_11">
<g clip-path="url(#p9f225f9ea4)">
<!-- 2 -->
<defs>
<path d="M 25 62.703125 
Q 31.546875 62.703125 35.296875 57.8125 
Q 39.0625 52.9375 39.0625 46.78125 
Q 39.0625 43.171875 37.84375 39.3125 
Q 36.625 35.453125 34.03125 31.4375 
Q 31.453125 27.4375 29.34375 24.453125 
Q 27.25 21.484375 23.53125 17.578125 
Q 19.828125 13.671875 18.40625 12.203125 
Q 17 10.75 13.875 7.71875 
Q 13.578125 7.234375 14.0625 7.03125 
L 32.90625 7.03125 
Q 35.640625 7.03125 36.859375 8.59375 
Q 38.09375 10.15625 39.359375 14.546875 
Q 39.75 15.625 40.71875 15.625 
Q 42 15.625 42.484375 15.234375 
Q 40.140625 3.515625 39.84375 1.5625 
Q 39.65625 0 37.890625 0 
L 5.859375 0 
Q 5.46875 0 5.125 1.125 
Q 4.78125 2.25 4.78125 2.9375 
Q 15.4375 13.671875 23.046875 25.234375 
Q 30.671875 36.8125 30.671875 44.828125 
Q 30.671875 50.09375 28.03125 52.96875 
Q 25.390625 55.859375 21.09375 55.859375 
Q 12.984375 55.859375 8.109375 47.75 
Q 7.515625 47.75 6.875 48.390625 
Q 6.25 49.03125 6.25 49.3125 
Q 6.546875 50.484375 7.859375 52.484375 
Q 9.1875 54.5 11.375 56.890625 
Q 13.578125 59.28125 17.234375 60.984375 
Q 20.90625 62.703125 25 62.703125 
z
" id="CrimsonText-Regular-50"></path>
</defs>
<g transform="translate(133.647454 207.951587)scale(0.2 -0.2)">
<use xlink:href="#CrimsonText-Regular-50"></use>
</g>
</g>
</g>
<g id="text_12">
<g clip-path="url(#p9f225f9ea4)">
<!-- 2 -->
<g transform="translate(133.647454 207.951587)scale(0.2 -0.2)">
<use xlink:href="#CrimsonText-Regular-50"></use>
</g>
</g>
</g>
<g id="PolyCollection_9">
<path clip-path="url(#p9f225f9ea4)" d="M 132.958745 123.94139 
L 132.958745 108.553779 
L 143.450298 108.553779 
L 143.450298 123.94139 
z
" style="fill:#ffffff;"></path>
</g>
<g id="text_13">
<g clip-path="url(#p9f225f9ea4)">
<!-- 2 -->
<g transform="translate(133.647454 121.867052)scale(0.2 -0.2)">
<use xlink:href="#CrimsonText-Regular-50"></use>
</g>
</g>
</g>
<g id="text_14">
<g clip-path="url(#p9f225f9ea4)">
<!-- 2 -->
<g transform="translate(133.647454 121.867052)scale(0.2 -0.2)">
<use xlink:href="#CrimsonText-Regular-50"></use>
</g>
</g>
</g>
<g id="PolyCollection_10">
<path clip-path="url(#p9f225f9ea4)" d="M 132.958745 80.899122 
L 132.958745 65.511512 
L 143.450298 65.511512 
L 143.450298 80.899122 
z
" style="fill:#ffffff;"></path>
</g>
<g id="text_15">
<g clip-path="url(#p9f225f9ea4)">
<!-- 4 -->
<g transform="translate(133.684954 78.824785)scale(0.2 -0.2)">
<use xlink:href="#CrimsonText-Regular-52"></use>
</g>
</g>
</g>
<g id="text_16">
<g clip-path="url(#p9f225f9ea4)">
<!-- 4 -->
<g transform="translate(133.684954 78.824785)scale(0.2 -0.2)">
<use xlink:href="#CrimsonText-Regular-52"></use>
</g>
</g>
</g>
<g id="PolyCollection_11">
<path clip-path="url(#p9f225f9ea4)" d="M 23.496879 169.781405 
L 23.496879 175.3769 
L 111.625921 175.3769 
L 111.625921 169.781405 
z
" style="fill:#ffffff;"></path>
</g>
<g id="PolyCollection_12">
<path clip-path="url(#p9f225f9ea4)" d="M 41.682237 178.874084 
L 41.682237 163.486473 
L 52.173789 163.486473 
L 52.173789 178.874084 
z
" style="fill:#ffffff;"></path>
</g>
<g id="text_17">
<g clip-path="url(#p9f225f9ea4)">
<!-- – -->
<g transform="translate(32.28508 177.149465)scale(0.2 -0.2)">
<use xlink:href="#CrimsonText-Regular-8211"></use>
</g>
</g>
</g>
<g id="text_18">
<g clip-path="url(#p9f225f9ea4)">
<!-- 6 -->
<g transform="translate(42.021227 177.149465)scale(0.2 -0.2)">
<use xlink:href="#CrimsonText-Regular-54"></use>
</g>
</g>
</g>
<g id="text_19">
<g clip-path="url(#p9f225f9ea4)">
<!-- 6 -->
<g transform="translate(42.021227 177.149465)scale(0.2 -0.2)">
<use xlink:href="#CrimsonText-Regular-54"></use>
</g>
</g>
</g>
<g id="PolyCollection_13">
<path clip-path="url(#p9f225f9ea4)" d="M 76.654079 178.874084 
L 76.654079 163.486473 
L 87.145632 163.486473 
L 87.145632 178.874084 
z
" style="fill:#ffffff;"></path>
</g>
<g id="text_20">
<g clip-path="url(#p9f225f9ea4)">
<!-- – -->
<g transform="translate(67.256922 177.149465)scale(0.2 -0.2)">
<use xlink:href="#CrimsonText-Regular-8211"></use>
</g>
</g>
</g>
<g id="text_21">
<g clip-path="url(#p9f225f9ea4)">
<!-- 4 -->
<g transform="translate(77.03057 177.149465)scale(0.2 -0.2)">
<use xlink:href="#CrimsonText-Regular-52"></use>
</g>
</g>
</g>
<g id="text_22">
<g clip-path="url(#p9f225f9ea4)">
<!-- 4 -->
<g transform="translate(77.03057 177.149465)scale(0.2 -0.2)">
<use xlink:href="#CrimsonText-Regular-52"></use>
</g>
</g>
</g>
<g id="PolyCollection_14">
<path clip-path="url(#p9f225f9ea4)" d="M 111.625921 178.874084 
L 111.625921 163.486473 
L 122.117474 163.486473 
L 122.117474 178.874084 
z
" style="fill:#ffffff;"></path>
</g>
<g id="text_23">
<g clip-path="url(#p9f225f9ea4)">
<!-- – -->
<g transform="translate(102.228765 177.149465)scale(0.2 -0.2)">
<use xlink:href="#CrimsonText-Regular-8211"></use>
</g>
</g>
</g>
<g id="text_24">
<g clip-path="url(#p9f225f9ea4)">
<!-- 2 -->
<g transform="translate(111.964912 177.149465)scale(0.2 -0.2)">
<use xlink:href="#CrimsonText-Regular-50"></use>
</g>
</g>
</g>
<g id="text_25">
<g clip-path="url(#p9f225f9ea4)">
<!-- 2 -->
<g transform="translate(111.964912 177.149465)scale(0.2 -0.2)">
<use xlink:href="#CrimsonText-Regular-50"></use>
</g>
</g>
</g>
<g id="PolyCollection_15">
<path clip-path="url(#p9f225f9ea4)" d="M 181.569606 178.874084 
L 181.569606 163.486473 
L 192.061158 163.486473 
L 192.061158 178.874084 
z
" style="fill:#ffffff;"></path>
</g>
<g id="text_26">
<g clip-path="url(#p9f225f9ea4)">
<!-- 2 -->
<g transform="translate(181.908597 177.149465)scale(0.2 -0.2)">
<use xlink:href="#CrimsonText-Regular-50"></use>
</g>
</g>
</g>
<g id="text_27">
<g clip-path="url(#p9f225f9ea4)">
<!-- 2 -->
<g transform="translate(181.908597 177.149465)scale(0.2 -0.2)">
<use xlink:href="#CrimsonText-Regular-50"></use>
</g>
</g>
</g>
<g id="PolyCollection_16">
<path clip-path="url(#p9f225f9ea4)" d="M 216.541448 178.874084 
L 216.541448 163.486473 
L 227.033001 163.486473 
L 227.033001 178.874084 
z
" style="fill:#ffffff;"></path>
</g>
<g id="text_28">
<g clip-path="url(#p9f225f9ea4)">
<!-- 4 -->
<g transform="translate(216.917939 177.149465)scale(0.2 -0.2)">
<use xlink:href="#CrimsonText-Regular-52"></use>
</g>
</g>
</g>
<g id="text_29">
<g clip-path="url(#p9f225f9ea4)">
<!-- 4 -->
<g transform="translate(216.917939 177.149465)scale(0.2 -0.2)">
<use xlink:href="#CrimsonText-Regular-52"></use>
</g>
</g>
</g>
<g id="PolyCollection_17">
<path clip-path="url(#p9f225f9ea4)" d="M 251.51329 178.874084 
L 251.51329 163.486473 
L 262.004843 163.486473 
L 262.004843 178.874084 
z
" style="fill:#ffffff;"></path>
</g>
<g id="text_30">
<g clip-path="url(#p9f225f9ea4)">
<!-- 6 -->
<g transform="translate(251.852281 177.149465)scale(0.2 -0.2)">
<use xlink:href="#CrimsonText-Regular-54"></use>
</g>
</g>
</g>
<g id="text_31">
<g clip-path="url(#p9f225f9ea4)">
<!-- 6 -->
<g transform="translate(251.852281 177.149465)scale(0.2 -0.2)">
<use xlink:href="#CrimsonText-Regular-54"></use>
</g>
</g>
</g>
<g id="PolyCollection_18">
<path clip-path="url(#p9f225f9ea4)" d="M 286.485133 178.874084 
L 286.485133 163.486473 
L 296.976685 163.486473 
L 296.976685 178.874084 
z
" style="fill:#ffffff;"></path>
</g>
<g id="text_32">
<g clip-path="url(#p9f225f9ea4)">
<!-- 8 -->
<g transform="translate(286.824124 177.149465)scale(0.2 -0.2)">
<use xlink:href="#CrimsonText-Regular-56"></use>
</g>
</g>
</g>
<g id="text_33">
<g clip-path="url(#p9f225f9ea4)">
<!-- 8 -->
<g transform="translate(286.824124 177.149465)scale(0.2 -0.2)">
<use xlink:href="#CrimsonText-Regular-56"></use>
</g>
</g>
</g>
<g id="PolyCollection_19">
<path clip-path="url(#p9f225f9ea4)" d="M 315.86148 178.874084 
L 315.86148 163.486473 
L 335.445712 163.486473 
L 335.445712 178.874084 
z
" style="fill:#ffffff;"></path>
</g>
<g id="text_34">
<g clip-path="url(#p9f225f9ea4)">
<!-- 10 -->
<defs>
<path d="M 12.796875 48.4375 
Q 12.203125 48.734375 11.609375 49.5625 
Q 11.03125 50.390625 11.03125 50.875 
Q 11.03125 51.265625 11.234375 51.46875 
Q 27.734375 62.703125 28.125 62.703125 
L 28.328125 62.703125 
Q 29.109375 62.703125 29.5 60.84375 
Q 28.515625 57.625 28.515625 51.65625 
L 28.515625 13.1875 
Q 28.515625 7.515625 29.296875 4.5 
Q 29.5 3.8125 32.171875 3.171875 
Q 34.859375 2.546875 35.84375 2.546875 
Q 36.234375 2.546875 36.234375 0.78125 
Q 36.234375 -0.09375 36.140625 -0.296875 
Q 26.375 0.203125 24.3125 0.203125 
Q 22.75 0.203125 12.984375 -0.296875 
Q 12.59375 0.09375 12.59375 1.3125 
Q 12.59375 2.546875 12.984375 2.546875 
Q 14.265625 2.546875 16.9375 3.171875 
Q 19.625 3.8125 19.828125 4.5 
Q 20.40625 6.84375 20.40625 10.0625 
L 20.40625 45.21875 
Q 20.40625 48.046875 20.203125 49.515625 
Q 20.015625 50.984375 19.765625 51.3125 
Q 19.53125 51.65625 19.046875 51.65625 
Q 18.453125 51.65625 17.328125 51.0625 
Q 16.21875 50.484375 14.75 49.609375 
Q 13.28125 48.734375 12.796875 48.4375 
z
" id="CrimsonText-Regular-49"></path>
<path d="M 10.9375 31.25 
Q 10.9375 19.53125 14.359375 11.46875 
Q 17.78125 3.421875 23.140625 3.421875 
Q 29.390625 3.421875 32.859375 11.515625 
Q 36.328125 19.625 36.328125 31.734375 
Q 36.328125 43.359375 32.90625 51.125 
Q 29.5 58.890625 24.125 58.890625 
Q 18.171875 58.890625 14.546875 50.96875 
Q 10.9375 43.0625 10.9375 31.25 
z
M 2.34375 31.15625 
Q 2.34375 44.4375 8.109375 53.515625 
Q 13.875 62.59375 23.640625 62.59375 
Q 33.5 62.59375 39.203125 53.5625 
Q 44.921875 44.53125 44.921875 31.15625 
Q 44.921875 17.875 39.15625 8.78125 
Q 33.40625 -0.296875 23.640625 -0.296875 
Q 13.96875 -0.296875 8.15625 8.828125 
Q 2.34375 17.96875 2.34375 31.15625 
z
" id="CrimsonText-Regular-48"></path>
</defs>
<g transform="translate(315.840025 177.149465)scale(0.2 -0.2)">
<use xlink:href="#CrimsonText-Regular-49"></use>
<use x="47.265625" xlink:href="#CrimsonText-Regular-48"></use>
</g>
</g>
</g>
<g id="text_35">
<g clip-path="url(#p9f225f9ea4)">
<!-- 10 -->
<g transform="translate(315.840025 177.149465)scale(0.2 -0.2)">
<use xlink:href="#CrimsonText-Regular-49"></use>
<use x="47.265625" xlink:href="#CrimsonText-Regular-48"></use>
</g>
</g>
</g>
<g id="text_36">
<g clip-path="url(#p9f225f9ea4)">
<!-- O -->
<defs>
<path d="M 39.9375 61.03125 
Q 29.390625 61.03125 22.0625 50.140625 
Q 14.75 39.265625 14.75 26.078125 
Q 14.75 16.109375 19.09375 9.65625 
Q 23.4375 3.21875 31.453125 3.21875 
Q 41.609375 3.21875 49.03125 14.296875 
Q 56.453125 25.390625 56.453125 38.578125 
Q 56.453125 48.34375 52.15625 54.6875 
Q 47.859375 61.03125 39.9375 61.03125 
z
M 42.1875 65.140625 
Q 52.046875 65.140625 58.734375 57.765625 
Q 65.4375 50.390625 65.4375 39.9375 
Q 65.4375 29.390625 60.40625 19.921875 
Q 55.375 10.453125 46.875 4.734375 
Q 38.375 -0.984375 28.90625 -0.984375 
Q 18.453125 -0.984375 12.15625 6.484375 
Q 5.859375 13.96875 5.859375 25.296875 
Q 5.859375 35.453125 11.234375 44.78125 
Q 16.609375 54.109375 25 59.625 
Q 33.40625 65.140625 42.1875 65.140625 
z
" id="CrimsonText-Italic-79"></path>
</defs>
<g transform="translate(137.356548 172.426563)scale(0.2 -0.2)">
<use xlink:href="#CrimsonText-Italic-79"></use>
</g>
</g>
</g>
<g id="text_37">
<g clip-path="url(#p9f225f9ea4)">
<!-- y -->
<defs>
<path d="M 21.09375 42.484375 
Q 24.03125 42.484375 25.921875 37.5 
Q 27.828125 32.515625 28.515625 24.453125 
Q 29.203125 16.40625 29.390625 11.859375 
Q 29.59375 7.328125 29.59375 2.734375 
Q 33.40625 7.421875 37.203125 14.6875 
Q 41.015625 21.96875 41.015625 27.828125 
Q 41.015625 33.59375 38.578125 38.28125 
Q 39.84375 42.484375 43.453125 42.484375 
Q 47.75 42.484375 47.75 34.765625 
Q 47.75 24.03125 39.34375 10.109375 
Q 30.953125 -3.8125 20.359375 -13.28125 
Q 9.765625 -22.75 3.21875 -22.75 
Q 0.6875 -22.75 -0.96875 -21.578125 
Q -2.640625 -20.40625 -2.640625 -18.75 
Q -2.640625 -15.625 -0.390625 -14.453125 
Q 1.765625 -15.71875 6.15625 -15.71875 
Q 14.265625 -15.71875 20.21875 -7.03125 
Q 22.46875 -3.71875 22.46875 6.0625 
Q 22.46875 10.84375 22.21875 15.578125 
Q 21.96875 20.3125 21.328125 25.296875 
Q 20.703125 30.28125 19.484375 33.34375 
Q 18.265625 36.421875 16.609375 36.421875 
Q 15.71875 36.421875 13.953125 34.765625 
Q 12.203125 33.109375 11.234375 31.84375 
Q 11.03125 31.84375 10.5 32.765625 
Q 9.96875 33.6875 9.96875 34.078125 
Q 10.546875 35.546875 14.59375 39.015625 
Q 18.65625 42.484375 21.09375 42.484375 
z
" id="CrimsonText-Italic-121"></path>
</defs>
<g transform="translate(148.21457 27.401023)scale(0.2 -0.2)">
<use xlink:href="#CrimsonText-Italic-121"></use>
</g>
</g>
</g>
<g id="text_38">
<g clip-path="url(#p9f225f9ea4)">
<!-- x -->
<defs>
<path d="M 20.3125 42.484375 
Q 24.421875 42.484375 26.953125 33.984375 
L 29 27.046875 
L 34.765625 36.921875 
Q 37.984375 42.484375 42.96875 42.484375 
Q 46.296875 42.484375 48.640625 40.53125 
Q 49.421875 38.96875 49.421875 37.984375 
Q 49.421875 36.53125 48.390625 35.5 
Q 47.359375 34.46875 46.296875 34.46875 
Q 45.015625 34.46875 43.40625 35.984375 
Q 41.796875 37.5 40.4375 37.5 
Q 39.265625 37.5 37.796875 34.96875 
L 30.46875 22.46875 
L 34.671875 8.6875 
Q 35.640625 5.375 37.3125 5.375 
Q 38.765625 5.375 40.421875 6.890625 
Q 42.09375 8.40625 42.78125 9.671875 
Q 43.171875 9.671875 43.75 8.890625 
Q 44.34375 8.109375 44.34375 7.71875 
Q 44.046875 6.0625 40.71875 2.78125 
Q 37.40625 -0.484375 34.375 -0.484375 
Q 30.28125 -0.484375 27.734375 8.015625 
L 25.484375 15.625 
L 19.34375 4.984375 
Q 16.109375 -0.59375 11.140625 -0.59375 
Q 7.8125 -0.59375 5.46875 1.375 
Q 4.6875 2.734375 4.6875 3.90625 
Q 4.6875 5.375 5.703125 6.390625 
Q 6.734375 7.421875 7.8125 7.421875 
Q 9.078125 7.421875 10.6875 5.90625 
Q 12.3125 4.390625 13.671875 4.390625 
Q 14.84375 4.390625 16.3125 6.9375 
L 24.03125 20.21875 
L 20.015625 33.296875 
Q 19.046875 36.625 17.390625 36.625 
Q 15.921875 36.625 14.25 35.109375 
Q 12.59375 33.59375 11.921875 32.328125 
Q 11.53125 32.328125 10.9375 33.109375 
Q 10.359375 33.890625 10.359375 34.28125 
Q 10.640625 35.9375 13.953125 39.203125 
Q 17.28125 42.484375 20.3125 42.484375 
z
" id="CrimsonText-Italic-120"></path>
</defs>
<g transform="translate(344.786011 162.984165)scale(0.2 -0.2)">
<use xlink:href="#CrimsonText-Italic-120"></use>
</g>
</g>
</g>
<g id="line2d_1">
<path clip-path="url(#p9f225f9ea4)" d="M 143.291207 47.806252 
L 146.655232 70.149144 
L 149.458586 87.429594 
L 152.26194 103.493112 
L 155.065295 118.339696 
L 157.868649 131.969346 
L 160.672003 144.382064 
L 162.914686 153.436047 
L 165.157369 161.711192 
L 167.400053 169.2075 
L 169.642736 175.924971 
L 171.885419 181.863604 
L 174.128102 187.023401 
L 175.810115 190.382136 
L 177.492127 193.302776 
L 179.17414 195.785319 
L 180.856152 197.829767 
L 182.538165 199.436118 
L 183.659506 200.263633 
L 184.780848 200.896438 
L 185.90219 201.334534 
L 187.023531 201.577921 
L 188.144873 201.626598 
L 189.266214 201.480566 
L 190.387556 201.139825 
L 191.508898 200.604374 
L 192.630239 199.874214 
L 193.751581 198.949345 
L 195.433593 197.196962 
L 197.115606 195.006482 
L 198.797618 192.377906 
L 200.479631 189.311235 
L 202.161643 185.806468 
L 203.843656 181.863604 
L 206.086339 175.924971 
L 208.329022 169.2075 
L 210.571706 161.711192 
L 212.814389 153.436047 
L 215.057072 144.382064 
L 217.299755 134.549245 
L 220.103109 121.16298 
L 222.906464 106.559783 
L 225.709818 90.739652 
L 228.513172 73.702589 
L 231.316526 55.448592 
L 232.437867 47.806252 
L 232.437867 47.806252 
" style="fill:none;stroke:#000000;stroke-linecap:square;stroke-width:2.3;"></path>
</g>
</g>
</g>
<defs>
<clipPath id="p9f225f9ea4">
<rect height="347.76" width="358.531327" x="7.2" y="7.2"></rect>
</clipPath>
</defs>
</svg>